<mxfile host="app.diagrams.net" modified="2024-01-25T14:56:48.822Z" agent="Mozilla/5.0 (Macintosh; Intel Mac OS X 10_15_7) AppleWebKit/605.1.15 (KHTML, like Gecko) Version/17.0 Safari/605.1.15" etag="qoD70CvWg8H_py4o9Etj" version="23.0.1" type="device">
  <diagram name="Page-1" id="WqzZO07smqbQA7xUgbWW">
    <mxGraphModel dx="743" dy="524" grid="1" gridSize="10" guides="1" tooltips="1" connect="1" arrows="1" fold="1" page="1" pageScale="1" pageWidth="650" pageHeight="275" math="0" shadow="0">
      <root>
        <mxCell id="0" />
        <mxCell id="1" parent="0" />
        <mxCell id="Hpuvhwq70IxdgYuToOBc-2" value="" style="shape=image;verticalLabelPosition=bottom;labelBackgroundColor=default;verticalAlign=top;aspect=fixed;imageAspect=0;image=data:image/jpeg,/9j/4AAQSkZJRgABAQEASABIAAD/2wBDAAEBAQEBAQEBAQEBAQECAgMCAgICAgQDAwIDBQQFBQUEBAQFBgcGBQUHBgQEBgkGBwgICAgIBQYJCgkICgcICAj/2wBDAQEBAQICAgQCAgQIBQQFCAgICAgICAgICAgICAgICAgICAgICAgICAgICAgICAgICAgICAgICAgICAgICAgICAj/wAARCAGeAfQDAREAAhEBAxEB/8QAHgAAAgICAwEBAAAAAAAAAAAABAUDBgIHAQgJAAr/xABHEAACAQIEBAQDBgUCBwABAAsBAgMEEQAFEiEGMUFREyJhcQcygQgUkaGxwRUjQtHwUuEJFiQzYnLxQxc0UxglJjVjgqLC/8QAHAEAAgMBAQEBAAAAAAAAAAAAAwQBAgUABgcI/8QAMxEAAgEEAgICAgICAQMEAwEBAAECAwQRIRIxBUETURQiMmEGFUJxgbFSkaHwI8HRFjP/2gAMAwEAAhEDEQA/AEUWV5dTuVHhFTcXAB36Wv19ce74M8+OG4fpJwz3QiwLXFj/AL4Yt6OZC9aaWmFR8MUx8CNoo2WwAU2Pl5e+N+EOC0ZlSW8oEreDqEgALHDJ2APtsfp1+mHKbi9yBOcim1vBoRbxtGyEAEm477dPyx01BrOStOv9MqU/DVYTIsEcjqVIYKDZT/7Hl1xnToQltMd+d4yJq/hjNwCx1WChh4iNf/569cMUqMMYXYCdVsCTKaynYJG0qE2YAAENY7AC/e+B3FtjtF6VzktdJRZj4AVlj5BltaxIJBsO1wcY9a1zLJpUbnBj/CKpiFh8UufMQinn2xSpaxS5MchcZloEqMpnSRPFapiQgn5b3Fvx5/phJ20X0XldfZNTZM7yGUrMVOl2AvYkcj6dcBdhl9EK5WR5Fw4shV2BVWCg3G535m/thSv4t/8AFDtO4xpjil4QZtUmjS67BynW1+/TFI+NljaCfkIdS8N0kEZQKQQL78iPTrzv+OCw8W3topO6SMqTIoV/7iKzh9Ua6NRUevc4DX8VvKRKr5GFVw9SMGYvGzclspF/SwGF/wAJ5xgJ8yFb8K0cmt5mKbE8uvT1x3+uZKu0FJkVJTPGsTIwX5mI+Xbbfny6YWrWGHtBVdJezKSly+KmNqaEqF0sUBu3O31wt+Im8YLSuVjIrmhpELARwWSxUhTuBa9zh6n4l4yD/LiYjK4Xu5V0bbUL+W9uQHXBafiAVW6xsgkyelkcCRVCqw6i9htf3wap4rDwAhdZWSKfKI1hKeFr2IJNlLbcvQ+oxefiYpHK8WcCSoymEsJFUuSW3QEAD19P1wrLxCZd3YC+SU+jzxzGo3Ak1blv9XLl6euA1vEKXSLx8hh4YNFlJidVjimRmYNY8j7/ANsZs/CyTxgfh5GSXYdLTEwxeJD1ZXfkQOR25YDLwTSzJaLPykgSWg1EpDb5BpbkCQdyTb9RhWXhE/Qen5OR9ToAGL7eUhNJvc/22OKS8JnpBY+Wf0YzwU4kEayTS8vlYbbXt0B54BLwnFey3+zTKnVppdZQ3i7aHBBGk9rbbd/ywtKwl0g8fIL2KGmZoljXwnAsPLvoPa/Mc7YXlayXYSN2myRmWCMiSU6Gve/lN+5vhWWc4wOcljJJFU7ai4ZwbqQb6je/Xri/xy+jnJYzkbZYKd4Zn8RWktYMBYtvysbXH64n4n9A4ThnbGh+5GZB4kaa9jY9uXp3wCUHkLiHaA3VHBYaigIAu1rg99+n74v+30RzRLCQJ9DKrIH06FN2PSxHVvbF5U3jo5VEn2H1ETLHIA8LLp0pZt1IIsLdBhZrAwqkX7FDjW5m8FlXYkEbtfofXEEucV7I00aYjEFOwcg3Fhfltvcd+WL3H8CFNMktaNJFUJvbmLgAdCOt8Xi9FODMlaMa5HUBNgNVySOw32wOTyyYrisMNWKJkkkMOqPYhiLFj78h74qUUcvBNFTwhCBC4Q6WOptVuv1544OBTFHKMI9BJJVmB8m/pzwXmi7UZdH1ofKWQvGh8v8ApDdTtvbENZ2gago9EscaGJJEZZLH+pyC37YrGWCyeDgI9OdVOiksQAB253UHF+aK01htjJrx+G5USKRpBX+m/r+GBB4yyS1VMhLWe8a7c7G/Lpz6jEJ5LOKa/sjVJFChZJdj8gUAr7E+wwSUsg3FReUZyTxRSBmaRuek7eU+tt/rgLi85J5o+jlqZCPEjVFZxpCrfcm3Mbc7YuUlLJmsRURyFhJJa9gSepBuPpjisIPBKKUkOSQjoLjUDY+3btbviG8BYxwBThwkSh5S9r7Cx58r9cRzRcg8GYq/mXZ23UeZyOtug7DpiU/YDDBWgkMigkxro8lza5I6et8SQqSezn7uwcFV1KBqChib7dfrfBIdMqqKZIY0hWLxYmHlY3UE27XtywGMWuyG5L/oLpaqFGCqsy7C40k7+/X3xY75I/YSmf5l4jxLHMykFSbeVjz598foiFBs+OfMiWm4xzamv4ysXvaI7k3HTD1txjLDFKsuUi2Q8f1Jg8zSA2vrGm3K52/HGlBRc9AXbyWyZviJM6MWM+tr/wAsNZd+w7DGdc1GnhF6FNyezCD4gxTBQFjjCXJ/b3O1z74x6160sI17e3psLg4zy9IEMxExIuwBG9m5gnbkcLUr94ww9a3iliILV8b5VUl4kiikbfU6sdKjoLH0540rW92Y1a0kFZfmOVTBJJoKenSxY3a1ktzA9b4euLvK7F4WLQ2FZkdOY/AEEbea56EXvc+u+3fGVV8lFdmhQsn7LVlb5bV+ZPAJJDKii1tv1PPGRc+Ui216Na08f+2QjM6Gl8jeFAxQgNpffT1I9L2wGj5aMWMVLJvsVZbT0UgR3KF91YBALg9hvg9fzcYrQKjYt9h9VVZXlkUkgcyFQLrtsPr9cWoebT7LStH6FkPEonl8JVJYGy6APNv25XtbFqnmYZ0V/EkTmesq5QtPEzarFUYWvg0vKwayiJWsmwH+LPlzETu2s8/Nsd+WrocZtTy+9DFO0aZIvEUJkISRvDJAvsQOtj3xML1NlpUpBjVEiws1ittlPPe9uR6Y2baupfyEp05d5BKjMZIlkRqiN1FyqJaxPWxxWq4PtC3GSeBRPUR1fh6ZEuT5LGx69QN+ZwlKUIvOB34JSjgb0VF40BVSyKD8trDlub4h+QpyXFILStZINkpZIU8TxE1XsDy3tyO/PB7W+TewNWk32VTNc1WBxGJkFj8uo2N+gH+c8a8asGZlSEk8JgCZkjRqGu4Yk3JKspvfa/U4u6kXoidrUxyyTvPHI9xp6BlJALE32seffAa1KGM5KUpzTwzj7yiGzTI+wBdxY8t9rbYFbRilloYqwk9jKKaCpQMs/iAkrcHY39Ti8qiksopCq1psFqI9S64ZZI7DSQOp9b4QuI5YxGqKGoJ/EFT/ACWCHQWseZ/U4FUtsIbp10RzZNVyK7+GU1XJdF2AB3+pvglKg5LLFq11vESuyZFmkladMQCFxyXytYdu9rfTFZ0I/wDJB4TeCat4dqnp0j+6QoQ/UeaUG++/TCL8fCX9BZV5+mVZeF5pdAiik0aQCSBceoG3W+Ea3h4MLSu5LsaRcETzKxfTBCwsPKSzW3N/rjIq+Iw84NKF9J6yYnhCenceEpdlAYXA2N+f5YEvHtbZErl9ZJ14cdCAXAiUAKG22vf8cUnaRj2uyIV3kbDIokUaGjipj5QEGojfe/ocCdjnaHadxogTKFjZXZ1di1mLadhblbncYvGwXsHO8l9kpjijD/ePCAJ1WIB1chfVy64PDxsXpgfzJZ2Kps4oTJ93BgEhFowLWG+x272wGXjY+0WhdyJV0VKGa0ZOykKbg9jb8sKy8fHOEi6upZ7BpcveXSwmAI8pAGx9/UY6XjU9Nh15CUewKpgngCrLG/hAkCxF/Q252wjPxH0MUvLvoXQzS0xtJHdSb8v998LPxsk9IM/I5ezKHMmRo4XSW5uqgi409Tz5YHVs5qPQzTu4h9TWK0axotvIx/7m9hsAvbCv40/oLXvIRWUwWnaPQkvm0gl9yeVsX/El9FKU4vZm63d3CmIWA0ycuWxxMbaaeDvyWtBkNPNLGJZdTw2AO4BO3bpgisW+jvy8dkGtxLEW1ala7HVe57emOrWfBZO/Mj9lxMEM1PG8BVJGAPhu19B5gi3PfGbVpzTwzTpuLWQIvUTS+HrjkBsL/wDl0JPLY4s1jooqmdoIijqA7mqu0gItYbqvuOmJisllLPZKkZvIurfkAV3AJ9MXcECp1IthEUKUpC+GqoQrhg2nmdtvpgQbgjMu7eRk8VL2tfYAk8/a+LcHgq3jRKgUgeLo2+YljYsNufXptgfF5/YmM/shkieVFhljZWBFtG+oftvfbHcEEOQl0UeEqsBptbfFJSxotzYPIiqUDIsa8z5uY7C/4/TE0m2irYVHSxzhLELq3/8AE776bdMX+TDaFnHJy2WLJ4wGrUNSg6jvtffvjuabCqOY4Ek9B5l1mQNpHXEg/gNx1/AtJTiYqxcWvoePdbddulsfeYXjPkVawWf1RWq7hCKRtUSIqsfKTzO2x33Avhl3+PWQStG2I24BnIYtTvN5rNvb1tt0N98Un5FpaQV2v/ECquApPIJI2EJJ81yL9Nv0x0bxS7A07RxewNvh1eAPFFJHHe6tcEMdgNv3xFTgaCoJiKp+GVWHkSRptOwNr/5thKWPRZWyFcfw/rPHsWqZUG2noN9r/wCo+uFJyUey0rdPSLpT/D7M6VAyadQVSAX1Mu1txjql1FrstGlgNp+CczXW3glSSSdyP/uM2vsepqIauU5zlkmm00kZBFwD5bdb36354TdHL6G1NJBDy5hGQJ6WsikCi2zaiQQbfni/4TfoHKqmJdWZ04vFNXDTcFtHK29vbEqwlnSKOolsHlbOq6WWSZJowxJfUgAY26emHoeJk/5Cs7yL1ks2S0Jo/DNQrgDdNtiLXsPXAqvjeLeBmFRdtF2y6pp6d9ZpNai5JA3vbCdSk0sMLOsmuiscRxNXyaaaL7vGvnfnz6c9uVsN2NtEXlLG0VhY5qSUGRXexHMWtq/XD87KLKfMxwmaVNRAV3MBGknRswt/T06YNRoqPQLLzkWVlbMquxLqHuRYbW7/AN8Hr5fZBWK/OM0gKyosnlINrch0H4b4xK8HnQ1GWA/LuLK5Fd4kkVdQW7C4vsRYYmhYPuRWdWORVmPHGbuzRLBHqO2oXFzfoOluWHlFQ/ihcoeYZhnNdPpMMpW24UEbcvm5YJGq5bZR04t5ZY6FMx0xK5bWjBWIsenPrgkajTyjvlwWiHLs0YLOqXG6gPzO3zd8NTuZNYF5UIzex9leSTO6tPK8jXLDVc2uL7HmBsMLOsw9OKSwi9RZEkSRlGjhII8lrMBa9gemC07nGmBlQysIkTL4Gd3d9DN5iVQW5Da/K/PBJV8kxt9YY2Siy+KO8zNuQGZgGsPbB6Mk0J1aa6DKaPKt4y6pADcWUESKOh9PTBJ1Ixjo6jRyENSZNSxlrBtTAlrjr2HT6cuWMSpc5NSFJRjsr9dmGWF2MQXUq6hdfNGO1ul7dMPW+cfsBuJqOMCN6yiSwUxM5O3NT02ueZ3w7GkmzPr12xfNmtOYRHBpjBuRpJNrG2xwadtFi8rtroRVuapDGZIlElSdr6t2tyufa+Mq5t+LNGyuFOO+yoyV1fOwSJWswLE2+X6YTdkpMdnX4pIPpXrT4KyWjIGq5uRpvvfArjxqjFjFKvlFpyyhWraGR7BnFyxXlb1+g64y8ygGf7dD5uFKCqjKSOsUo3LaBZb9L8vW+ATrt7ZPBGus2+FytVo1PVsdyRqFig6DV1wPlLDCxgorLKvWZDm2So8UUtVLpYvYb+pF+QG4xl1ZSyaFtGEu+gWmrcypvDM9OxR2HPew/DYnlglOrUK3NKH/ABHzZpTVLeGV8UglixOo3G1tv8vhxTzr2ZreCKqkjjjZHiRbkkeS+q3S/O2G4W0u2Dc/op8teHlbw6V5CPO2kG4Fr2t35YPKwi449nOtx2YzzHwmaRZRpXU2pCQw21C/p2xel4yIGVeTBqfNqdag07yimXcqCOYOKVfFQSyi1C/fsZy5zlkTpdgp030nkAOoPvbCMLWLkMKvLpDTL82pqgMI4YxK12Fj8p9e+2wGNT/WwUMrsDCtJs+knp9QkMZjiZxtq+Xe2/64QlYcmE+aQQuZzxhLEo6XU9mUbWI9e98BufDv6Lx8lJMc5ZLI6KFDA73RDtbna2Mr/TGhC9eNh1ZHKjlo6aSOS+6qTysLXB3tbCkvE/Qx/skgdZa55JUZJxKAA0T+UAd7jkMV/wBTL6DR8wse/wD7/wByWR6xDGxSW6n5tvSxtvtbp/fAoeIkwn+1X2EfzHZ9TPpUqrdAO/7Y0bfwTaw0L1PM4YYtTMIhq0hhqYb2ufbty3w7L/F5pZaAS82nrCFkWayRyv4qxEA6VKkm3pa23vjGuPBSWhin5oZSZk0zyrHDqBU3cKTpI7/3xlVPFfH6NCl5KNQ4aaKVFZyzx21bixH06j0wlKi16HoVV0hjHIsFOpVUjDMdTMGBA9PXA9/QXmgGfNA1xHC8sj2Gkah6E32vi6pS7wDlXS7RHEtZoUa322sWtp9MRwZb5Y/Z3zzHhDQ8sBmEguRcrZdhf69NsfWqV2j59OiVit4CkmLGnpoTGQHPK42OwH7YZd99AlbS7RTazIKuhkvPTOFAsQDYXxSV7nTOdpJ7Mny2kkRmlhhvuQF56bdPrjoXa9Eqlx7IGyZEZWEcfmJKnrYdB++G5V8izjh6BWyhSw1ymIkjYC+3v+2A1LlLQ5GkmssybJKdizhiHbZQCNvXCcnKRPBR6GEuXwJDGYmAW24J0i3v17k9MUUkuy0loDo5o4h4avDqIJ1SLs5FuVum5wCVWTeyYUiCWmglkUFI76gCV2AUfXBNdl5Rxo5TIaZvE3QHcqVIIAO+xPXE/M49ME4fQJPwtFMHSMoUNkNyCNJ3OwwzTu2tshweBQnA1RJK7KhDkbAAeboMMLyTQr+PvOC0U/AOYtCATMtwQF07j1PT8MKVLyUm9jUabwAVnDNdSxlXRyDcKVHzbf8A3AVLOjuDEgyKouUWGpkVOSuu49APp+eLRnx2iJQ0V6u4bl2kliZJN2YlrG4/p9x0w5Tr57F5pIXwZFJAxVbmQhjuty3Kwtf35YapttZKn0uRyurVR8R411IbJyt3HbBZPOik5YADlckyTRrRr4lwoYm5I6HcYNSssyUjpXKawJGyFg6MYQqkEWZuu9rYeqxjGOxWb9HC5JStGWNJEW31Ky3I3ubYy3TYWNddMNXJKSnj8RKVUlVTby+YDtbr7YBVbj0HUk+j6FYo2DxQwSoGBCoosb98Et565SBxTyPmnh0IjxIHsbC/zHbcjDPzItKmn2QLW+AdYUQql73ty/Hv+WFqk+XRWlTcewGp4jZpyok0eco4LBgByF8ApQaeGMy2sjGLOVljAD3dm2F7ITbt7b/XDcJKO2LVE3pA9RIsiKxrrk38oOks3qPbAZ3UUWjRz2SUqVKqPAqirDYgONQ2G+9v1GKu8g49h/iYc+QcT1MbC8jxtve9gfc9eWFIXdNIn421gwh4J4kn0StQVD72IPlvbl+PfDUPKwSx0ArWjlghm4fzKCof7xSTRAkBmJuQb3+uIl5Gn9gY2bXoTzUbqbBAHU6LWFrdyL4et/Jx6A1rDMcohfLQ0LPJFHqZipsPlW459iTvv6HD1SvGayxS2spZ2c0uXpAr3EaspAIFz1O98Vpzi2GqW7T2M4ITFJ5FUqTuxsQ4tsB6DnywaooyWGT8zggvXDCU+7IssY3j57G3MdPphOdhTl2Wp38voDqc2qYlJpapztzsRc2ve3UdPfCNfxlNfxY1C7ecnEea5iER1ZWl0g6W9+2AVPEJ9sYle4WGK5cxqqoKKlYGC2XSQS0m/IjuNzg9PwcfsW/2LWvRjNQ5fLTskVGFmJOo2FnHa2K1fAr7CxvuXQFl/DoWZbU8gFvlW92v0A733OE346EX2MTrrA9k4ahnCrJRVBQm5JsoAPPY3ufrjVpW0XH9APznEHBVDBC8koi8a+wZPmX6dcAds12Sq2xXmfDlII5Aio0asbMY78/8ti1Omis7jHRr2t+H7zhSBHJG2xK7FCewvuMFrUU1hC9Oos6E8/w2qCTBqmkBQXHe251Dp7Yx34yXLK6HVWWNhuX8Fy04lIjZ5becXFx23xqQtWlhitS4UNks3Dk8OmOTx1S3yhrjbcnBI26XRNO9TG0eUPIQ6TRMSyg3X074HV/i8kfA+Rf8qyeNI41apAnKlQI1Fw3O5N7jGFOth4ZpRg0uyyLSZUfDWWBIrXGvYWt159rjfAnVf/E742+2Ay0lC7qkbqAb6NXMj8Rt63xoUrvCw4gp0GjGrhy9AdSRlwWChmB6ddtrdr4co0o4zgEqr+ytSPTIrQo4KX8tlAFh6jBqdVQBzpKT2CrDUTWlVVVblSg52/3w5Dyaf6itWwemLaiGFZQzMdBNyo6d+XLtfCNxCM3tDFKm4rZA5EMsTRyFCEAXU3zgnYb9fXGZW8ap+jQo18dGdNWyK6/eD4CqSFC7k3P67YzZ+CWRv85r2fVOfi6LG+pPNqDC51Da1uuKLwMV6L/7OX2cDMYU8IhwTuNJYGxHP3xWfifSKPyD7yfHPqePSNJba9wTij8E/pBYeTeD1lqzlzRFpKhC9tR8w3bsB174HCU16K8Yi6Gvy+lk0RpS+EN1OsXv6jFnUm/Rb9QDMGyiuYalo9V1TQBcEd9/XfAFzTyyUomvM3yGjh11FPAsaqTsOcYG34YahWa7BTgmaqzMxQyhaYrIVNyCQLd97f7YY+V/QP4kKWkknQH5FUauYPlvt0579MDU5OWiso4IYxNAHKzENuLgb8+djh6La7K59BcddUtrQaihGkBhubHucQ1k4iNFWRqZF0lSLh9Oxv19Ti36/QHmwQUVe+txqia/+om55Hfr1wNpI6Oc5CYocwRpD4tQTp2YfIG6XPqOV8RKH0GD46qqpiGVPlWx1ILAdye2K8GcWbIs/gpvPVQiLYOFCjY8tP8A69cRwn9FozSLonHlKsaxEyG/lCgC3+XxMreXZb5sk8uZ5bXiMJGwlcWOo2t7jl054HGOCZNeiuVYogJGRCpN9K3HQbHuBthulDLQvNCWtShVRG6XDbg3+a45DbvjUhBITnATy0lPGJmgASXcXHmv22w5SqxS6I4vAsqqbxNejSwYgEhfl/CxGK/Ik84wD+JlTqqDwdbiCVwCRcIdxyAvf1w1QuI5BV8pcWLZkAZoCgJ0+Xyggdd+uGJ0ufQnGWCWGhc+a1mcnVp2awH74DOfBcWMKnFkslKoV0cR6wSFI5Hb0tvvhXDxkapwwsCN6aD7wT4d5SSboOe3flgNVZWAsXh5M0ji0MVJMjW0gcyNhsbXHLCNOlsIqpjVQQMqM8baCCSpNiLdMalSKjHCFKa2Vypy2BWAiXTIP6dIIA/v64xZ1ZZGVBewKqoZPBsrKl0Fg1/Lt69cDlVkWjTh7K9IudRBhGI/BsVva5Ht6+uAycnsOpJdBuVT57SyRtJRfeY15+Wy7b7nfFY021k7mjtDwV8QMlh+6U+b0qRMCFDSKF9f8OF6sJPpjMGsdHaXJOOfh2IljkmyuCUAklfOb22vt64QTmmGg4jCuh4BzimNQi0Mku4UNpsdjcW6HfBFOXsicIs07m3AXDc9TPLSpHpMttTKLNsBf0w5Go0AlTTAz8P8iSD/ALcAOg3Y8sMRvJYwBdsntlcrOCcqiImhgihkRmIKegG574sr6S6O/EiUMcMSVcwSnhJ33YsefbYdvxxZeRmnk78ZAldwZXRMqm7opuCBo58uXv8AXFp+TqMH+EhcnBs7zOHiL3YeYL5r8j6YLS8hUa7Ku2hnSGg4HnSWJpqcRm2pbRhemwIwWN/LO9lfxU3sZQcCUckjK8IiubgFflPK/rjVt/KYFq9nnaQ2fgDL449QQRqxB07WNuvviK/lcisLRp5Zx/yxltPGHRnUC122BYnlsb9sZVW4cnlM0OC+iFcpy2DxDHGzS8wD5Rb0HTB6F+4dMpOin6AZqClaVnip0EV9VzfY7dPp9cMOp8n7ZIVFfRGMtoSXLrEkirfSxsG7X229sAqV3Dot8IDNkVOryHwzKi3A0ja/sPTB6dZvtlOOFoVVmUU80cVwAm/mVj5h69uuNSglJZMypGS7K0MpUOY7EPffSvlJ7knD8KSEK/JoGqsoiMahvCKlj85/qt78vQYvcU1jsraOSYmjoqZJUVFEUalixuH0r0Nh0xhV7dt4Zv0azRZqWnVokRZfCOq/e55dB++KR8VHOwte8S6BKjKZEDPEWLC1lAsCL7377E4dj4aljLWTKn5aWeIkbL6gEKisuxspbyqvPmf0wpV8bCL0hml5DPZO2T1ckSKqoQtlFiPL2PrgE48NDrqqTyirPR1VPNKslpZbMUXVsL+uLxw1j2QoY7LxluRvU05NOzPKVA5abML7X5gbHfGfUlGEth6X0gleEGkiXx9CefSCwuF3326+598Dd5jphuDE9bwnP4MjAmUWKo4TUL9h9OuBQu89FZLBUnoJFlnQPYk7AH5Vt1GDfkYITF78PO1jGRK1jIrMCQduh5c/0wKpeBPj+xRU5U9NI7uEB0sXdW30lr3t+4xWN8k/QOtQ5dAKK0ahXV5G6k2/Lblg/wDtI/Qv+PL7O+MuaZjESEmQhTZtcmqwJ33/AAwaHjoy6Zf8mX2Cfxyrp3Z5GdCSQCXsCL8r9MMLw/8A3Bfmyzpgc3EOYSSAmqG/lsLi3t6+vLFZeHTCflyx2TfxDMalXDSySAnSoZ73P6YSqeLUfYWFywB8trJJAJTHIt7i55/7X2x1G1g1lsJ88wqDIpEkgVRuW20tsAPQdcS7JY0yruH7GsfD7SMHlhtr82rVcn1I+mKRs3kFKs+0WWi4NjfQ4YXJBIV9yB64YjZ62VVw+mXak4KiaHTsQNixA/Edjik7ZIMNF+HNHGhbRsgAA1gBR6DCdVJfr7CxesAFVwJRpqZY4Y7HSd7Gx5W6c8EjWjjRVwKjU8OwQCeJ4YixJudN/KMNQqQF5yZSKzKoTN4Zhkc3F2YXF7c8a1CNJr9lsVqVJoxXK6dIZnjW0pNgRz/vilxGPS6L05S0EUuXBVEaBZFXYBVIH+/fGTOgs6GqdR+ziaZ6aBiS7SKbMDsTb36YX+XDwEcmyq11YElDyRuq6rgqQQo7H1w7T2Aqvoyjzai8MNqZAdr9he364YhgjmxY2cQ6nBlEoDEXbYnftgM+wlORkztVIxBCm+yhrbdT/nbHU3h56IqQUt+yU5M0iJJCw1lBvpC3Pc9bjDsbn6YFUGLWpa2AkeApUE7ECxHc9N8MSvIvsW4SQtkqKhXCNG8cRYra1zv025Yq5xkXUpewGaVx4iaSWFgLr77jrgc4xJdRoTyip8RtNNIwvYsTzUD05c+WFpRSegkJpj2ChappyksR1gBRcX0gqDseht2wvOrLHYzJJ9n0+R1aRBI4JDFct8umy8tsBcuX/UrGnFAq0Rjm8KSGRkuQG3fURbrf9MEjQfbYIeRLSuQ0lIhlZb7ixHT8cHjbJlodlipqTKXpleWAJISbNe+rl3/H6YVrW+FoeJ6XIclcvqMes21XXcL+o5c8Iqng4UVXD8Md5KFXYMxs/iElQfX6Yh0uWkUlVUdjvKJ5ynhvWVW4OtSeYI6378sT+EzlcouGUVscJaJ6nxkvtcaidx6+4wGdBoL88SwVFW8C6Z3cqVsV1jb19Dvjo0fsj5MiJq6GUgyVDspAIFz1/O+LfCjvk/sMhzOhy5mFKVMm2kuRcn07dr4E6LyTzYLJnP3qUzzRJJHcBQDcNbc4t8J3Nj3LquhgdZGgXX27E+mLfG0sI7mxvX5ll8w8OKnZZLgAGx1d/Nt64Ard52SpJ9lYlmjRhNE0luZB5rv0/XBFF5CawV7NM7koS8bsmxBW7C5vy2/bFJylshRRX0zeepdoJGcJ/Xdw3l3sbDcD1wONaXR3D+x1DRxSFSSkrFCLBSFHqOxxdybIcEu2ST5f4TFj40kZ1WGo6V27Dobn8OmC060v45KyjHAjrp46NInQRIQLgkWI7fhgqqSBcI/YofOY3LlpIPKQrqu19vU4rG5kv4lJU8gQzGmVkqGSPy7gMPK3oQPX9MOUL+pjso6CwLKqqUCaOBCsiW3K/Lc326Y27a8k3tidW2ixMamSfRGUC6Tp8trAn/7zw9Kvy7BRtILpE60gZDMQqlbC1ybX2JN+fP6YMmn2ZdzOSeEcNC6SgLrZQ2kBrhjbla3PvfFqs0tktSax6PmlvpDGMXsS5vqttcfh+mG7essCCpLvBlNIS0gVCJHO21iP/E/S2KzhyeieCCo82+7PpmVr6LeQX39eWMi8pRezXtHgwNJT14USpqCgEG235974zoNpGrJ5eQ6GGWiDLHCjXI8jHve/Ln/bBfig3lkJ46JqWtqJGY7pI4sNrWO5t6WtgcqMOiebIKuSqRIo6pohE2oB7WC7cx6bfjgToRXR3OXsouYZelzLTyz76gL2Ibf8jvherQbC05ZSK8czShPhyK4A20k2tvz7c++E3Zub/wCgT5Mdi2sqIqx2Php4S7m9ufe+LQ8W89kSrpAoyqMi5p4r/wDuMN/65fYP8h+ztCtRWToo8yzBrF2S4/z1x6GjQw9mS7yMuggQVFTUeYkqptptt/fDNRLGi8aujJsqWWZHSNFnDXYGzAg29cVhbuX7FXXQbADTLKTE8Nk2OkA3v0PK+E61jl6Lxu44G2X1RaQ2QSqTbYacZcrKS7H4109lxpDSXjAdBOGVt2ub8v33wB0JphGotZHNS9IiSShaVBrI2fe1rWwakp5w0BbXoWJxDFEmhZAgKC3QX7d740KdFtC1SeNjWDi4RSIXBjJsDfe/+euCSssrKOhcNFkpOOqIRhJpELjUCdX+DGZUsc7wORucoP8A+asllUKrxqpFhpINj7nCcrJrpBY10BiuyWpkkUsEW27aha9twe2Mutzg8pDEHCT2QzZDk01GtTrJJsy6X+U9+l/bFLW6ny7Jq0qZrDMXyyneVYZXjIJC6WBD7e+wx6ONRvsRcVnsWvmcKmZUksVI3G19rfXETl9FJRSF1TmMbufEmjlFlIFxsOl/XAHSi/ReMcbYmqmy+pU+FGpUndV5g/vh+3tOQpVqpeik19HCQ5haXWCQQQAqi3fr1wepauPZWFwvo15UmeKfRC8rgbgrcW+h5b4HTppvJadXGx3lWbyxgwVD6CQdTmzaeX+EHHVqa7Zek+WzcXCGeZP4kC1Uceo3uLne/wBLf/cZNZNP9R2LSNiZpW8MS090ehYj5tABIPTCUpTQzKMWawzWbJ4yY4nJfcncEX26fv32wWjXljDE6sIplTq5UjYlI20r5VBS7NbnhqMmysIQb6BZZ5EVxJTDUbKdLAgnnzP+WvjQh2BqwS6CKPNv+2WiR0LWtuSPpzwOpSRYtlLn1KXCSRrItwALfKvc2wqqazkvGeFgdfe8tm3aJCykKNSWvte1u2/54L8mNZLZ5aRj/CqAsVgjaG5PmubqT1x1OrxkUcGcHLaUA+GqzJptqKFtgd9uovgspp9hjhcvRz4LFZEVtFxe1uwPX/BiFGGAM+wvTRQxBWSK6kX0re/TfAedODyQk2YilozJ4gRypUC+q23bBo1oM7hP6K9Uu1LOZIkmDXAIAH8u3Trt64iUoPpkEk1S89gySxxhSQl9Vidzz+uOVOJXlJaEdVnMUOgElJAotra1rncEDlyxeNrGbwc6skIpc3lqnRaZ5SL22kA0jlvfmMdW8fxC/k6GcWZS5fGrRTTEoQGJGq199/fngMbTJH5LHGWcUl2WFf50A8wOnf13545ePecl3XbRaoc3MhkYOmggWvudzgkrbC2D39klRmEcsZVGvISFGpuXPbCcqCT/AKCfM8YE1S0Uz65IopZzbynfSNhuOn4YXqQRanNkTUVBGjSQq0Ja5PIWNuX+euF+KzgvzZnBXQQzn5NRVbBXvqP6Y5pei3FvscHOAVlSFCjXOmzeV/wxR4Ww6gVqvq6eZmMqi5OrlsNuQ79MRzR3BlbMUDFiixqx85AG17euDU8Z2VawTLBS6tYujtfTbkT7Y0Ywp40J1pZYxg/hRszp4rAabbL9OW374tB4egRxqoPFAWJAl7aAR+HvvhuFR9nDLRl8SeSZo/MSlxu1ud7++JjUmuwNWjCTyZy5fl0sbCMukbg+YkhU32Kjn/thO8uqmRinTjxK5NkcMYJjaNWOkMGU2Bsfw7Yfsa1Sehecacd4CMtpadEXeEuSFZXtdb9RjchGRm80nrAxmp8tgRBLTrIAS4tsXOKypZR0JrJxStQR6ogujULqrMN/bAKdsp9B1ccUF1NNTMviP4Re2wBIF/8ALYmr49rpFqd7F9idKSOObXGviSONQVtgSNv/AIcCjaS9oL+XELr8tjro5TIjqmmwsdkF74q/H7ydK7XERQ8LU7SkmRihZHKFrC312F+WwwSdmsaE6V0s4QFmnAGX1URRQgUsWZW39Buem18Lfi4ex+dR40VuX4Z6qhJQEeIgXCrcseVgOvfBFCKeBfMs5LDDwEQgUxspU2srW/Ed8F/FiF+V/RsyKiSnZUWMaQwUnVcE9saFTONiVJx/4kdfUNBO8sUkaobgFRcnffbtjLuKslrI/CKaywOHNmIBZo0Bckkt8wBHK2KKtUccZO4U0Mo8wy8GxlZblnVXAsD+PP1wvVuZrTCfDD6DY6uExOIZFJtsB3/+n8sLTr/ZdWy9C9sx0LG2oNfckggkgc/TEUa+Xo6VGXSAqrN5mpXZWViBcC9yzd7npjZp8ZLCFHJxltiygr52ld5fEVAdQJYiwvyB52xHxzydVqRwTVWaSAsEZ5ZB/X1Pt6Y0FBpaA/JH7ENRn0jaUMryKDYsl7A2PMj6i2BShnTKOssaZz/HJwhkaonDjzaVOnt+Y9cQrbGTqVws7C/41PaQpWkgHlqKg787nnhOXj4yfQ1VulFZTPqjjLNo4J4aXMNLgiylvLb98R/qacXtf/AFX7fTKS2eZgksjVE7lmOx1XBA/K9sdK0iujvmqN5CYuJZg60iuNd7m5uXXla3Q+uEq9JRG6Um+xiudSOFZ5b7aW35bnY4Uw084D8m9Jiw500ZjWOVQGFmYN8p9uvbDNO++MDKkn/IxaorKpoYkCLYEgEW09jy8wvi/wCe56yVVBC6ooM4mB8ajYhz4ha2zfTnYc/TBqc0uy/wrGwSGhzAkI9MISx8zaL6rkWBtz/TCl3WytF1HGkW6PKJVjKNGzoVBsw5WN/zxnqTRIQcsr5pJI0nniJuDZhbvf6fhgnxRn0WU5fYcnDFVIwY1Do/Igb3U9/w5d8TG246Obb2x5T5RHTIPEqKiR7WJJACHnY/3wRR3tFdezmTK1ICpDIbA6QLbm99u31xoUIJvYrXlh6ENRksz1LJDDETzuhtpb3OOdKK/kdCpIdRZZ4H8wmMpaxA2sbem+F6kYNYSDwb9jinRaVWY0pLDygFrKov1G9+fPGXO1aeUM05pLPsHr83BASMsiaiHKyGwP64j4JBvkBqDNWnYgi7WNnL6bG21vpfDat/sBzQXX5rAwVY2cKfMNzY8xcd+WB1KbUsJkqaxkrprZNZYTSNZtWksbHYXP8AthetbNl43ERxS8S01NTLC4nd7aiTYArYd+uBSt5LTL/IhSOIY6iV7oBKd2DC9zfYbb4JSoOJT5F9EzZxTiF5GiABF7X3HqLjlh2NKUtlJVNldn8GoEjAEAtyuR/viKkXE7Uu0HQ5XTQK00Cl4yRcE3JPa3bESuZYAuks6RX80o8zWqVwJvCJuNPJlvzO3PcYcpV3xB8HnOB9TUv3SFHIGpYzvp+U35+n1wu60svLCE1FUzKgVUWE6tV7XKj273wVcm1s4YySOLXRFmKi5I336dtu+K1aDb0RlC566ULdqmVCLr8p3H772wJ2TfZEayXszpzWSm5nZpFJIJHlt2/+45eKb6C/lv7JahJ0AqFdWOm5KnqfTtilXxc0d+UTwpI7sqVJFr2s1zz7EfphF2zzhjCuVjKG8eRyVjKfH1RG1gEOokCxsenLtgUrd/QSNwvZhJw9PDKNDzyAt8rEW/8Ag5D8cXjby9nVKyAKnLzAY3MNSVXyXsLgm/LDEbfAtGSYIKWMiRUJJAtcNfUP874ZoW+ys5LBLHTU6NGfEk8rBgLC1u3rvjUp2+NYEp3GDkxQI/iPIultRGoch0N++NCNOCWwMajXsdGKmfS/3kOmgqVO1+X5YBFU2+LLcpYI5aFZJbo1wPmCnlY7Hb98alC3hj9RG4uG9Imgy0U5XXUMAeRsDp364aVIzpyeSKehEyFW0yyKN7bLrN+nPlbBfxtHfltPsFjytY2aZJ5Fa42NgBfpf88WpW8Y7QGtcOTYW1O4jWItIWt15sP2w5GaemD4yW8kUOXurgiV3RbNa+1ifX3HXEuMScyC28CERoz65b6ALg79vbC/xxXoPltYDooaVmWV5NRAtZhYLv1/LFPgg9srTpNSz0Fz/cqcHS0TsGuLg87bbHpvjIuKOOjct54W3khZ4ndSkZMZ3sNtJPMb8sZqpTzsOqiemNEoomUCOaaFR5baj064s5zWshfiKxLVTVSfyY2Q6jfzgG2xBHK5541atdMx7ag12JpxUSTNJod01bEb7dvXrtjOlR5zyjRlVUUcREsuiOMJKuo3Z7XPMn3HL64Nww8YAOacclMzD7+akvSeMsRUEsCSG39uuATpIJb1m9SM8vra+mZfHibfpq9eem3phCta5NSNRLTLeMxMqxCRGQsNSsN99tr/AEwh+NKL0xunWiyUfc6lGZZIihOrSWuWXqTfrcYdoVJQ2ZteEJSwyvV8dPStqpgCSbfN5muTvv0/fGrbXjk8GRd2jW0wJat5D4ch0yEjSQ/y9QD/AHxtUJw/5GVLmgCrjhlV2YmGMbsvJbjqexw450/RClNrIFNR1ccTmASEhgNjy9fUYuuMlhIrOU0sgDCuikEeqVlHRgBf+wwpVhCntlIOpPWCSGolnSJZItSMNPmFwel8HpRpzWQbnODxg5npXm0p4WhSbXNtPb2FunXA52MWxuN8+mAQ5BW1cjBtfhIWYE6fK1+V/wA8Lz8XHt7Dx8k4rQ+HClWYQV+8yOd3tY/W2BT8ZHjotHyspB0HCFUmtpYvDBOnyN9Rc/tjLr+LT9DtLyH2WnLcqqKeRnaKnKi4JsQCRbY/nhGfj+I2r1Pos0lTTpeJ8tbyjco9gAew6i++FpUZJ4Y1TuUASHLxL4n3WYHnfa/tfEuk8ZLu4i9GVVNE6MIaeYqT8rMCQOWOhbN+gcq6QqjlVZWLwW2LEtYW6BffDCscLKYP5mSJnEwlihgkRGFnsjL5r9j0PrhaSywiuoqOGRNmVR0V9yQLtq1dztzGGKNNSe+gaqxltHNZmc7WjXxLpY2t0Ivt39sOOmoLQDnyfRHBXTqyh4XQsNK2Y2Y9LfiOeA1YZ6LqaihhLm87KrSU0YO2rSLjY2/XCyoP2X+dSljAplzt/MdMkThiosPKvtfmMc6D9EueGL0qWqSkJSMAXJbUwAHPrgLg12hiFX+xiskVLF4jCGMsV9VPqw5jFlSb9FflRhVZrTykCMMLMdekaL8tvwv+OCRs5t5wVlcpaBqqSJBNIiqWC/KH2F+t+vvh2nYv2AlVz0LqCsdqtEqIUjVSHJ06jfp+3PHV/HOS0ilK83gvUJypZP54p4SN7jY8+/1xnS8fVXod/Jj9guZplmlEKaU5eIo9f054ZtrWfWBS5ucCx5qKMlljstztfe9vW+OuPGzC215FrZPDnNNSaUtrt/WRa+19v0xlVLOos6G43EH7LSlbQzUiyJCkhte3O9j17YpUhUjHoLCpF9MwMlEVLOUcDlfqPQ9e+Mz5JqWGF4wayLteX38ZY1IJ20ld/rj19lbpxUpGPXrqOgimemnD0zsgRRdi5NtxtuMa346ljAjOs1tEAyqKdk/nKql92j8wt0Htf8cF/wBewf5b+jCppRAwGl3B3UM1wRt5QDy74pKlFdBI3cfYB4dSXBVw+ljYCzED0HK36YDOGQsa0X0RitFPaI6ibixG4H9z2tjJr277QyqqYwhzGRLanut/KSbE+mKUoQX8kMxzjORrFM2kTTSMQoW4Jub3/LFqdDL2tAJ1X0ZVL0UxeLxZEY3CkdO235HsMEqwUJJRQKDlLYkcU8Wh0dUY2vp2UntfFnNtYwEjJJ9iyUSSIs0V9Omxu1wN97r2OGYJ/QvWwxI0tVG7AOI7AaRINS36mwtucWml0yIx9hcNdWvFKDpdQ1lF+fLff2xX4Ip5RM5y6QygqaiKSIMVjbVtpOLRqqHsQnTqNmUucLA9qiXVY7q5Nwf9sX+ZveRj4YxX7A757SuwUteNn0aitj62P6Ybo3T9mTc2aUv1DnzeFFcRzulzzKAbdbEX9OfLB/ycvRDt5IHfNA7yaHSOR0IF2G4H/l3PTEus0s5LxjkjlzGqkkARm18ymu3uLYhXEvslwFrTVTyBY45EnPm1FhZMUqXISmmZHM66KaNH0wFl2Kkle+r/AHxWNfXZWspOWEM4s2cxmOS8yqL3D30i3T64Ipp6ZSU5RQ0TMIX8JWlkV1K7s+sAb7e2+LK2jLplI3bTxkZGvENkvLyv/wBvV+eKz8e89GjDyMkjZuYcKuI7w05LDa1iS3LoOnPHl5VJ/Zrw4N7FX/LsiwAzrIhNwxKbCx5D1wa18hw/Vgri3TWUiq1WWSUkz+DSBww07rY378rY0FfqUtCvwuKMf4NUyXZqWAHTdgo8vf8AHFK9VY12HtaX2Apktdd0FO6tpJJKWtc8vX2574VV0uP7LY1N5/joAq8qlhlSXzAlgDYkbeluRwv86ezoRa/sVz5dVSRuEinRLA8hyB7nliZVvsj41nOAeDI5hOyTPA03QsDZlPUeuFXX4vKCqClqQYKehM41Ihj1A3uegtt63vhZ+YqZKVPGw9JDeHKaOZ410iNgoYjTcG+3+HGjb+Uk/YB+Oikc1GSQxqXpTIF2OgqCF9/74015BL2LT8em8CqnyKZys86GFOaLsdXuwHLGXf3nJj9vaRhtILqMiVSj+GwXYgOPmPbtblhqz8nx02CuLSM9pCz7gtJODUa7XPLex6fT16Y3KflVjszp+Na2ywUclJo3plaQ3ALICOVrWwwvJU/vYnOg+sDWNqUwsUhkKEi4vz9SP2wCtetpr0Fo2X/YbUFMKtgdCIp23AG9jv6csedu/IOJr29ksZY0mymMQmVo4I2IFwTcq1ue3MbXxjf7Oecsd/Dh3kTLkZqWvKzIAQARtz9/xwaF7krO1jnWzmHhiKWMalZVJNrm31wZX0kiitk9IPj4My96mMzFIlBN9clum/8Al8Eh5Nr2CjZNvY4q+Dcj8AgPSRkIoGh7lz1OoDbpiv58usjbtI/QmPCNFrDXjCg28p1MTc3wvK4wyJWyMxk2VU5KloiTcgk7Abb+o57YNSrtsqqKiLajLMv8RVjUEeZhpNwGt1Ptg8pt9shUoraQNPlFMI1HiMfVADcnBFPiCnQT6A2yVXDKqxqwIXSF5+thi7uG9kRt8bFUmRhZdAhvYny3vf64mncbJdDPYZT5NTeVpDGmwJCryPK9/wAsX+RPsFKjL0WinyTKpadFaWIuRpO9r787deWBK7C/AB1fC+VBdURgUfOpUbkm+36b4l3TeyPx0JxwzRquhXhve3msAT3G29sdSupJvJztsGS8OQJJ4dla41XFr33vseXLBPy39i0rd+kE0vDtJLMBrUEseZ2viXdN9lo27fY8qOCKRwrXUsw383Inn+WLU/JuDwi87DkssWTcG0ipKfEeWbcfMR/Tz354dh5Vy/kxWVjjorE/BsQaRI3ZJNNiuq+rl2PPnisryD7aLRtZdBseR1SL4EMepVHzE9O1/rhK4nz0i6UobJF4bqqhWWRpWB5gPyNhte2M9WEM8mhiFxJrbHEXw/ntrstv/LkRt1/tjWt6qSwLVo7yEpwHVRaUQLFa4/7hAIG1rd8Mq7Secg1Sy8GMnClZTiMxuoTZiisNRF+464Mq/PoSnDjLa0Qx5JUtKBN4irsNTrc29TffYjEur6GVxaBanLRT6FidQRa4I0i17afa1/fHQkmwUopS/UTrlDyHw3N47C6hfl25jtvgFeOcpBqbOBlDhhpjIkU7EdPfbrjLrUWux+nV1hsIGTVKs12ZXMfmtzsfz+mHLd62Bqa3kyj4VrLQzxu2s3LbXO49rkW9cXdOLeWgcLjCwtC6q4czFnfVJIqGxDdv2/LF3OKWECalnkgwZVMLOx8VQebEeUdduowSFRfRy62RyZEJryEFVKHQdOprex6nviK0Y50Ei36MaLIvBlDa7wAnnblbpY7YVdRtdhVyT2THKxKzFVIRgnngO6Hp05H9MYl6pZ/U06TXeMiKt4dra5HmScopIK6ju3Q6rgY0LNJLb2JXVFTeyKl4VekmWQt4ou2s77A9d+mHoXEWtsV/Hy84G9VkHj08iI0kl9gNNhYWwBXW99B3b5iJzwZUxspd3lvsAQBsP0w9C9pLtiErCabYXDw7UUsgLrICdROwu3+/pgn59FrsVha1c96OJ8rq0cj7vVJJ4g8jqQW7k8+mE53FP00OwptbyQf8s5zNGpNE0Ov0F7dLbde2FJeRjHSHoWqlHOw6LhioEIimpdKCx86ab79MLrybzotGwjH/ALjai+H+aVja4LRoEsNCEXN+YHXDMfNqL/sVqeJUyzp8NK6BEjkndWA5BiPyxM/8meS8PCRxs3ZHTSWIKx6bje5IwjWnrI9TorOC55lwJJDlKZgtR4UhXxFQ7CQW74xXdYqYwMqjrTNfRZNS1+kSRjvYi5U8tvXGuquI5SFfhy+IzTIMspzeZYkuL3e4Ivtfb/Div5DDRoJBo4f4d1owkpfF3Oxva/p7XwrWuJP0FhCLMM04S4aekYQmn1BDYXA37j8b4BRrSRdU4+jXI4UiqJ44oFcxAm1n2b6G+HueFllJU2vRHXfDeuOp4YiXtdRfVb0thT8lNlPiZQp+E6mirpzWRGQXCb2Ck99uuLxlCTzgpJSQDmEFLB4KCGO+mzMrE6T0Pv6Ybjwzo7llIaZfTNNDEXs+4Ivfn0G+D41opx3ks65dAqiJUCsSurSN2I6YFOllYCxfolXJlZ2MijxSSdx/VzAUdANsLTjjon4zOo4VQoNNP4kO12ABW/pgXORVwfRJDwnQaSzUZZib7gXv6/jzxaMnlNvBRUYv/iN4eGaWGN4/uyk3sQ19/c4a/ITa4vIGpb+0iObI1Rv5NGjqD0uu1jy/HAq7T7CwT44QvkyWeKNJHiYr1Njt6YpFQLxk1rIvnkqIF8MUdQTcG1+VuW3b1wR0E+i8Z/YlqMzkp/E10bC1huCSx32722xaNEEqmxBU5zGCyFUuSNwCASef9sEjat+jpXUUMabOhoCJNdmGkWbYqP7EYt+LxI/Ib6Jo8yn0OYn0hmu1xbUf7Y5001lloTaWzMJVTJIWSR0JLXPT/bFFHiwjqZWBZUwVEfiuj+GCpYc7N0PP0xMpZBg8D1ADISA6MdJ1MLjtgsXk4b0EsoljjdlC2/rFh3vfr74tJYOLA8UTB40Snlc+YEk3vty398LcsbLRjkGmoVQnUI1NgNIsL/h1GLqplA3LWQCqEUaEGSMMLW3uQN+frihX5AErPIsrwyKlhawN7rfr64IpaBtyctA8ktVEXV2t1JJAG/IDEqpgOs42Rx5jWI0kZjQsLFQdyfb2xZrJR1FnArnzaWOqRpto73JXYD3xJbmhnT8RyNKEcspcWNr7KAenfA5x1nB0J/sOJKt5IkASGOUrYW20j0OM6rWn6Q64RY0yuCndCJGhANvkW4JHO59PwxRVZ+yPjiti6vqPu1khjtGfMduXph6lVb2xGrTF6ZxUQHxHGtQbC7cvf3xo/ImkKSpPovWVcTrND4PgReOVAPn3Xv5fwwFv6YzT2sNBU2fRuADGrsSBcNy7Gw9O+OcnjATCWwyhzPL5tDGzJp59yDhyimo5TAzjGXaDHpMqqZdCN4bA3YBLFh/n6YvKq0B+KJBU8N0SeIwnidLFgrEXtzFvXC07qXoJ+PH7AP8AllZYyadxpBI0hrm1t7evrgS8g4PLL/iJrQBUZamXoiyhtdiPMSSR03OG4+ShUWwNa1cFnIPAtNfUPDEZuoJIsR/l8XjUS2BVCXsk/iECMaaN0IUAgD099jtiZ1k9I7Di8YCmalmRFc363PInlf1whOMmPxqJxwxU0NCSxQwSgC9yw8pJtyH6YNSov2xKo19EQoIDIJDUlHH9O9/f/bDsZYeGwU5pLRHLSl3k0yq7Frkiy27nDsKEZLCASrtIhamWmhPyyWJYAfrYfTCFXx0uW2M0rv8AXRiC5Dxh2K6raAflwjVtpx6GKN3GT2guHKnki87s5JexIBsS3IEc+dsKcZDOYjCDLFikLFQHJAMe2+3c4hxn2EjOOA/+HRPEEcQ9dSk9OmBtzJi4y0hHmVK0JeJ0WVRuAGvttfrikJzb6BqKi+iGkKNPGJIgCvnZSp3+t8NfE8ZO5L/6i2UOaUEcYTwoQSNtbWvb8+uEp0pOTYWNRYIpaigmDvFEq73vq5exPPnywOVOS9HOSkH0Gbvl0aoiImkEqWW9id/f9sR+LJ7CRklgaf8AM1VzNXDTk72sBf1thf8AGYRVUMYqKoceaplZl3Y6rXH4c/7Y13LWxQfVFZnMlH/D3zKdqMkERarj8/wwpO0i5ckW+V/ZVHoJ1kjVGkjfvq2/2w1FLGFsqn7BZ6WsYu61clrEDzbgW6DkR747h/RbmxV91zGT+UXeRr6LhNJ/y2Own2jkn6FdVS5oxZg7tp+TbcHV745UU0Dc5KRBTZhmsEwKlWlB8uq24PTngVSjGKGYVWxyOO87po9E9LShQRoJDC3vbC9KzT7C839iLMc0r67XcEgDZTcWJ5AHBVapFHP+ypulSjEPEsjDnZbdLdvbBfheMgnKOdhyZmKKniVopWYEKAFuQOWLJNPso2n0M6PMmlQTGMql9tthb/L4JUedImKeSyUrPJp8JtLXstwPL/tgLpthZyX2F/fqiFSyU8FhvckgW5f3xSVu+8g/mj0gccSNTFTJCLg77HzjoRtzwtXpzekg9Gcf+SBJOLqtvFEUEjKBe6kd+W/tjrak+msHV5Ra/U5fiWqco6hCL6diQf8Afnhp2ufYorhRMqri+sZBFJT2TmCuxtpHIdDcY6Ng09MqrmD+iuT8SMNQ8AqwAYbXJ9zhqlSktMrOsvQjlzcSu3iU8xkN9gN235Ab++HY0XFchdyb0K6kK8rWLEBgbE/L6cu/6YZpvDATRAKWZWVEjZSxO7qRpPO+F5wlLpl6D2FOlSsl088VtvKDc+/0/PCyi0/2HpSbZaMt4iy0ALWSpEhBOzC3b/O+BVKkM9o6MXkmkqsrqDIRPExtYqJAeZ5HnvgPa0XCAuWB7MysBuVUEMDy+uGSsZJ9BD5fRFQ8c+lgQ1tYBBt1B5n0xX5I/ZYrEkNXFU+MrOwAIIIvvf0xSTi+iYyx0ZVVXLJGVkeQFeZCknV29sUF5SlnS0LzIRYF5ZLkWLEDkdz+eD4QXQVSZgY3JmEzRar+YDStunL2wGTWcHKS6GL1UFUwMkl9wCdNwR+F8FpKOf2JqZkiGeOjjI81pDexIsCL/j2w1UdLH6iE6TzgSVeX0crlRGoXl5TsR6f3xWnOHtF/gmJqujki89KZo2BAHUkcvy29Tg2YS0gDjOMtGCVVXDBZy4S+g3sLXI3tzxSdvB+g3y1Uk86DjnNfAPDjEisx0MVXc9N/TCkrSLekFjdS6YVTZjVVUaPIt5NPzG4DDkfwtilWhj+izr5G8A0EgrCwJII0A6drjf8AzbF6dtLBX8hPWA6my6Eh2SBFkHlvc3G/64LKnxC0w05EKkDw9andiQbmPY7AHr+mKFp9HCZNOl1eWVL2Yk7dN7WG2B1Lzh7OVFvob0mXz6kcyEqx6mxAG9/zxEb1e2T+LJehoIXYG8mqVRuQ+rT23P6YLKqnHRyhLJItRNl5PmdiL7Fthc9rcjzxnVqTk9Bqetg9TH/ElvUTK5tZnJ5dOX0/LDFD9ewU23oDjpaSJDGagXKi29gAD123GDuSFuaFLNQq4kecBwm1hbw9tzvz/DApzaeV0EjHltITSZhTMDHCzXIJX1HQ++DU71LTZyt36QKVjUMxcDy8gLXUHffBHdZ6ZV232ATV9XHMwjqpIwNgbgg9v1wpO5a3kn8eL9ElPXmOSN5pi2ogMb2uP0Bv3we28tUXsDUsIt70W2mr8tnRFqKiNRYi5kuT3B64fXl5ye2Uj4+mug6oiygRa1qIS1gGUvcaeh9P1wKd+2FjZxXQFT1kNM7ozu6qbje2sX3G9sJ80W+AibieijkJDqNOlBp679T264bo1444tFJLj0yKq4nprOfEjjVStr9b9bdf7Ye4U8ZaWxadSYv/AOZ8ukaSNvDm/quw5Dv/AOtxywrUjDOETCLbOYc+pLWp/CTy6iGve1/X9MHzSjHDIqQqZ0SCV6gnwQNJOk77jr2wCMqT9F4up0YytVReIY5ElAIH4kbAEbe2DfjUWgcriSeMhIqp4BISdO9tuYPoT+mB/HTzx+y/zVDhsycEeGjabf6L4KvFxlst+TP6Nt/xGmGkJM2xFgxtb1B+uMCTb6NecYoJGaUCRmIzx3AJN2udPe+BqM89ApuPaENdm1HGyKjqSVv5mBOw9dxh6EW/QGVVIWtnJLkgra2nUGPPkNul7YYjQbAu6S9H0OfU4vrqIpG5AC/O+4OKxspPov8A7GmQvnsNQP5LA3F79FNsEVpJaYvUvU3lABzMgqVAaMglVBCi/Q+98ROyb7LU73D2YQVMcjXqBGA25VzqHLv1HX3wrOznEaV3FocJmeXRIWCI5Fgbb727Yp8cvor80Qinly6dVeXySXuBy6bix/XEuEsF8phEeXZbLYyxCSJlNyuxI+uFpQmwtJrYJU0lHCnh00SqigFLC9u+KR5KSRZzf0LUR4WVIbyRC7HYjfuO5w78gKWzGoirZxN5JVJswDD8va/XF/lilsXlCXoQxUGazTSipiEgBBAN7c+QPIe2K/kUzoU6mex2+UVtTB4IifyqVva9h6Wxzr0saJnRn9g2XcLZmtQFks8oN9K3022It67bnEK6gvRWND/1Bua8LzQxEavEBBJ032He9+YwxG6hJlZW30UmqyiaIGUBgwsE3sf98NOtFLSyAalF4YPT0NSRLNLGNSGxAPL69SeWAfM2+IWCxtjJZHiMIlhAkS2zC5tzsBgkZYKOOVrZd+DuCuKviBm8HD3COQV+fZxUW0pSAMyi+7PfZEHIsdsAuPKwpRy2HtrGcuj1R+C3/DvyvKfC4g+L60/F2a6xJDlcMrJRQkf/ALYixmI7bL74+e+V/wAqTyoM9NZeEqS3JHcGq+z1wWsMcR4L4XMSAIkf3CLTGo3svl7489D/ACGXbeTan4ZPSRpXin7JvwuzQzyVnw84YmWVzJJ4dIsckjesgsR9MaVp/kaemxefgnk6PfG/7IOTZJCMy+HdBXZJJG5YwNWvUQMptYL4m6W35G2PUeP8upakzEuPHOCydHM34azXIKg02Z01RQSeVtMoKllPUX6H88bS4y3FmY1jsQuZ1YrC0jWJB0q2phyviMOOyN+gZqd1kLPAEkUWYaSQB2Nuf1waKyyamIrLCvu8QGprqhYm1up339Nr4MVdSL9BEdFRmOS6q0n9TEkC30PqcJ1oPLaLxSk8hceWxQK9SrU/lACDUdd/7YVg5pjMYpIrle8szgKkJUghWU7Ajv6YcjGb7AT4mVNQZm8uqMRyoNNvJtyvfnywSMsERjkNbLc1k0RzQjTq3JS/c7nFHVaZSpBPQwi4aqJEaRopGhBO5B8o6j12vbF5XWCHT5LCRJFllNCsxlhSwPk3N+W3PFVefYKVv/RjNFTI5ZKWOEEebVY8wBcdLXweNVS7O+FA6ypTsyyCxPlPbbfnyw+qkeKSAulthSZxFBGZYac7KFjBBINu57YDJZ7DRWESJxGD5AkijcEht+XQHn/tgMqfsC0+SwBVPERhjZEEvjtZhtZjfmd+QFsI17Zz94NCnW49iaHjGdIlAFPKCdSsXIup5W7X7YQn455zkZddMarnY0IZG8V92Ya7FDa1vXBadOSWGLuaGFHWxzqjGQNtZT0K9zz64lVWnnsvUa45ycNm0USRhpFYuflFhqIHX0wzCrnvQucRNT1KCUVmgsCVu29+Ww5WwSMvaOAqiOhBIaZAFAtZrb+344vUj+paMsIMaloYCHiup5ghri1uVu2FqdHL5EyqaEtTLNNoVEaN/RrC3PYY16dnrORKrcYF0dKYw8k0tyDcNqvf8BbFKlCOcAoV30ASQUkzNqkOsKSAG1agT26G+Fo0oZ2HdWT2K2jpxH4scqs78ib2a5v0vvtbljQhbRx2VlUaXQGzmNPEh8fYgtcfM3XboBisqUF7LQnJmE8lQIx/NXUDdbHUUuN+fXpgUfjL4kJ5a6oSJWBKKVY3KW1MN+Y5bHBI04vaKSpNvItlzfMXWMxrNMLgk67ldudjgk4Z0wFem44YfHmZSFppqaQ8yzXsCeo26b4XnaprTJt5J7ZjT5nM8si+YMPl7W/8b8/fAadlJvYeVaCLdl2ezUkcbGVUU7g6bhue498NQsSn5MF6CRnk9lmlkABANrEAgi/7DDEbJ+xOVaEpZCZ89lMfjMp0aQVNxZz098Bn4+faGvkgxY+dxSMWkinkblqTzBvUHDMJVIrDI+OL2bmnnyhUab7wX/pIDAm45cvbGW6Tj6LfOpazgVw5lk9ayqkjFnNjYDke+KymsjHwNRyEPlsMhEglZFINwq2t/gw3FPtGfVcfTI4spE1nDvGSdtwGAA6897Yd5froFKP2DNljLHZZW3F7WB6/kcRTrcBR2W9dALweF4oMrE6bm+/1t+WLzvE3ljH43HQmatnLeEra5jckFbAL37DbEqsmTGlH2F09WzaFhcgCwAvsw6AnbYc8DnVj02c9dGYq3VkHlDNew+XV+n44rCUH00SpZOTUVUCo0UyyHmd+ZN7D8sQ1l6CKUl7Mpc5qUjDtUFQVB/8ARfa/e++KSt1Ls5VmvZx/zQ6t4bOGZbXub7YXdjvKGldPHYwTjCmisHLcl06gCeXcflgVS2f0Wp3GexrTcaUM8LRapSQLm5tvfbCNa2bDRrvsnjz6SuYQ0kMcpuGKXKrz7Hl74yrig4jdKSkEDimanKQyU8EUwFrI31sR3tibajy0FnhIyg4vmCOyRLGdWqMAat78jhv8N/YJyXs5HE01Q6CfTGuhtNxvblpb8ThulZpAYzW02QHM6GZhrEQjUENY3B2xpQoYWGKVZpMgWvofEGiVY1Asq6Adu2CRoLOhepX/AFeENciytM6rqHLqJGq66qljgp4U3M8jsFRR66mHtgPkpqnS5LoLYScpYZ+hj7Lv2bOHfg3wnBBPSJW8ZTxrLm1WosZZRyiU/wD7NL2FuZx8R8/56dR8Yt4Po3ivGxgsyO5a0UWmJRFGCBtYddv7Y8m02azqYYRJlEMgUBBYHcj++CwljoH+Ss5aKvmnD0LpZYAAQbgjEQryjIKkp7OvvHvAUNXTyIYA0bbm3XfG943yuJYYvdWqqRPOD46/A7Lc7lnqPu8cNVFTWje5uHU9D2PK2PoHjfKNtJnjLrx7i8s85M4ySLJambLK6CWKqQfKWNwN+Xpj1jkpR5GLKo4ywKJDFZZCyhTcAHn+nTFIzSewtWKmtFerB4yG0RQgC66bBr7dP83xo0uL2hP4f7Faaj5WV0jDFzckkDbYX64rUUHolSlHSOJKqWAsjSLI2oEC+xIPI9xbA6dqk8tlnUqMyerkMhmSOS2o2IPIdBblsLdMFqunHSSB5l9BQzPM6YssSsygeXmt26enXC/GEveBpVcINp+Lq5VK+GyLbVzB1ev1x340X7AfP9hUXHEojeN0RHW+qxG5A/TELx0JfRMbtIgbigTTkmZChfUG6W9B68sJVLNJ6DKblsO+8LVqXFNHNY87bs3M8um3LltijlwDwj9kMyTy38KgJc2AAQkn1semKu8S2yztvZz/AAyeGGJHo3W6XNxsd98Ep+TT7IlbP2QxZHMHRymleY3H4+hxd3ywV/HxtdgdTQr4chlBKEk7m5+h64vTrp9FJ0/tFFzWJYmj/llkj2IUX2/wYpO8w9kRo+yuieolltCrDcadZJJHS47+uJpVIz2RWSj0WCm+8LEpjckgkEf0sOpHXDv4a45wAhca/YDamqHVNAdY7b2uLHmN+nU4WnZ5LfMhnT02a2iIZ9bX1Fdy463H9OL/ABY0E5otcOQVDQwmSVDpBPljOpO4HfA55wWMTl1RGskZdtS2bTz2O22/1x1AGlIUihuWdpJlcG/W3YnbD9S8cV+rE/xZN70ZrQSSyQJJMbA6RuTcWNj/AO2FFXbGYUIgb5O4ljIqBdQwLXsQPw3Priqy94CzxHSOZMpEiorEgD5bqBtttf8APfDG3rsDCab2cSZBG6PYiXYtsbWF+mFZweA6khbLwtmH3yKSNpkUtyGkXHc9sZkKtRTw8jVNRcf7CJ+F5aiJGtpc7WVrj6Hrz5+uNyi5YWBabw8MAHB0kCF3VSpUCO7AADfoe/7YcpbeGwEqqa1sgbh0sWIcmQLvexVt9+u/bFJ1+LBKhnfRJHkTpIdawIATuxFtR2tY4t+aVqWYamWIrprALr5FJOwHpf2wWnfxT2Lys8rBDU/dImkSV3DHyAhSbbbDb2ONFeQgxWVh/eDiL+E1CpG8xUsQCgQ2B3/DphyF5BrDIlbyw0iNcroioJlnVjuwBPP8MD50gSt6n2zMZtGaZoajxLWUuVexv6X73x5Cj5Vy0zelY4emOcnosliUyIPCmJvtJZfwN+p7YeVwns5weOy50c1EUZY6pQEJB81wfTEzu36F1bpy2yOpr0ihkaB+lxa9xfkCPU7YDK8n6Y3O3SiU982qWlvdTpsCS7L68sOwp845EXpGbZhVSXlaVwQAd2uVW+/ucTTjFdnSqZeQKpqHbw40Yxx32uxOo9dueCOpFIC459kcNdNFBIodlNtiE3+pOBTqRYzTgt5HfD8iV+Z0cdbKI6QugYg3uDsSf9sJXFZRWUXo003g7AcZfDXIqbJ4szo6t7je6fKV6Enodj+OMul5qSng052iccI6m18VX4oUvdVspBBsbbgD03x6q2rKpHLPPXFFp/8AQkgpJGEiFlZgLi4vYX99sHUY5Aw5tNBcdFfVG0kNgpA0MbG9979+WBVeKOpynniRCCdGaOA60Cgl2J3v/Tfqb9MYlarmTwa1LpBdBX5zlNRrQB7tbzqWH1IOw6euEK9BVOxuhUlHoYNm9bVT+PJZXYlyb8z/AH3/ACxNGzjDYxOvKemQtm+YEoqQCRW3IIsbehwUjjH7J3zmst5qctci5Y72At0+uCRlvQlLTZH9/mAdlIUmwU6iQB2NueDc2V4ZPopJnLEyyo5BvZiLE/jbExrNbZaFFN9HpV/w6fgvXcdfEh/iTmNBOeG+GQWpZJFJjqMydToUEizGJDIxt/Uy48V/lnmI06LpqXZ6Dwvi25Za0foOy2AUdOviEIObEncnHxOpc8nls9z8fFYi8hkmf5XQjxaqpghiRdbPKwREXuznYfXFleRTwwVSxrSWUhvTZpQ1sMdRS1NLVU7qGR4pA6uOhUrcEYaU09roRlbzWpJokqIPETWpDe/XFXJP2EoVcPDKRnmUpUKUKKduVueK06rTyjVpS5ROs3xF4KgqKGdRTanIJ2HX3x6Swv5KWDOubVSTPJX7RHw7Wmpp80pKW9XTyM7+U3eO17XHXH03w97z/WTPCXttiWEdHBWkuwMQHmsqn8Tyx6eVJpJsw5VJZwciWKVGIKEc2GncH3w244WEHI/uiM0jpqZbg9enQH1wr8ePZx81In8sFmFzuEA/E7c8XjLJxh4aQrqNOhBFvOvW+++K1KecgXVxgEnnKq2qkjfSbhrbWB6c8Cp28y8ppEkMqMVT7rIbjykPq9QMOxoNRB/OnrBC0FKySF0IYtuqLbf2xMYS9HSlHsQVVBAz+IHZACNO1ri/K2F6sH9BYSXplg4draehVIqpyWB56ydAudsZ1a3ch+nVXsvmXcVZPSSNLLEjxg7WbzWvve/PCMvGuXQ388UhvmvHWV1gMVFRzWK7XKm+/p0wOHhqmegTu0Vp+JHLySJFDErWAXqBy/Drh/8A1Lh/Iq7tMTVMomJkd4FYsRc7g/TFlaRXoFOpknBo/AWMwrrtax58++I/H2dzf0JJsqpSrNEI0IJ3Avbbe55/TB6cFErLMvRA2XxoVSPVKbBVVVA3PbBZ3OI4B/A2+hjTZJBOR50C6uaC4J9B3wr+SW/FIanLoo3ljhEpcbm3/wCMX625YYlcJg/jBvFqN0PieLtqUkncj98V4ZRdRwfLJMFkJUJZrWHI39OuLJcUSKawOFLtJIBrsdiOm59ttsDe1hnESxSS6mhMh5glSRf1wXMQMZyfocLQMCDrVk0kamY3v0+mL8s7IqZ7wOaXKRIgYsyEaSCTsP8AP2xWUsFrel9mNXRywLeFAb23533tffpgMt+w0oJApnqiJIWjiU2sRYrbbp64tCMUgT5BaUstQCVFwE5E2KgHoOQGGKNw46RRxeNgFTR1chggLTEjyFl3A35AcyMFlXb2CgmmL48kzAvqZHKhSfN/SN7/AJfphGqs52N0/QLU5RWxqFUFmBAJC8x3F8LRbXsNKGXnIqjWspmdWBclrk2JG4I/bfB6c23sq4qKE9VFTVj+NMJEuQVANvxH1xq07VNZAzrY9A0eQK7I8Ezs4BIFzuPpgTtZp5RR1crBPHlsqooEU9vQlvzwzCbSxkphDiqyOVWfZLuxAFrWuL2/LHioI15LKFUdBPC6q9OwdtrgbAdLHpjUtqvFYYvOnnsawZY7pI7WReRFjs3Pp1wV3Ec5AKhvIzpeHJa2ZYVqJQvzMb3PqO1hiPz0ukG+BsJm4TqqVQjgWuymz39rDER8i10wdS0/oU1PDdTGRGlUzKhK2D7ub87n9MHpXu9sTlaPsFTKq5HLO6lQLixv+nI4bjcpsGqH2YxxwpN4Z1CMgi7PsTz/ANremOlcLoNGhnpllyo01KoqGp28dWFihFrenY4VnFTWA0aPBlgzHiSqqoJVijmSC5FjMPN7r2/vgdKypp5OqXkv4o1fmOXVEzNKboxYHbmRyvsdsbFGpBLCM+UZPbFcNBWoZElLMQABduftifn/AGQGUdYMJ3q44j4cnhkkruQfp6DYb+vvhmqucdFVW47AaPOauLx0Ypqsq7Nfr1xnKyl7LRvot9/+TN+JY5ZIYWXznb57kje1x/bHfgyGJXSSyMRXrI4dE0Ski1v6OnPF3aawTSvE3pjuGqDeHGkMRBH8xydz7HAP9emMq+XQYlD96lREYKXYDSCbuwF9hbthOvOFLUngNSi5bSLnFwXNBFCayCtgTTrBencagewI3v0OEH5KOdMPOk1rB3O+zp9ifNvjTW0+Z1klbwrwRFKgqMxlS0k4B8yQL/qttrPlHvjznm/8rjbRbzs1fHeO5tJnv/8ADngThX4d8L5PwXwbklPkXDeXQiKmgQfOCLl3bm7sd2Y8zj4/5PzErubbej2tvbRpR0W+to5JLuj2Ub21cz3xl1H9D1GujxB/4s32TvtgfaVyv4V5t9m3jLhvN8s4br5amv4HzdUipM6kYWWafxP5VUqqdPgy+W+4sd8aNpQpVP5o17XyMaW0tl2/4PH2Hvj99jf4TcS0Hx4+Ik+Z55ntclYnDFPWNVUOQBVsDHISbSOSdSp5bBe2NOv8EY8KcRfyPkpVV+yR7bQTRqvmuThaPH2eTqUW30A1axP0UDpgY3btpbNUcaUMctPP5bqL79vphilUw85HG8rB52fGrIIJ6CuSNY5HYEMDcC1/zx9B8HePKweT8rbxjtninxZlqcO8SZplsqvFGsjNGbmzITzx9Wt6nyU0eIrS4yKtUVxp0BWockJsltiR+hxSdxkIlnomjzeBUAEj6iRJ5idJH97746nNNbInPGjBs1ppip8VBIxN9JOy+v8AfDFNQXoUlUb6I5K0KuqnkaRrEg3LagfTr2wbEe0ijiwZpJNKzM6l1PlANivcf/cCVZl4UsmPi1hUyI0aqbsQr2KG9h798R+Q/YT8ePaYQJqyRJAzuZSWFghIAC7E2wpc3rgsoLSoJ9lVqs2roqgQRxv4ZNzbsT68z6YUtb+VR4GHbKOxxSvVVayJK0kcd7brsN7kd9u+NRUeQCcsdh0mTiYyOvioL22Yi59TiVb47AzucrCMqSlFI0YmLNKANW1yQTYgb+mD/HhaARex4rk6SfEAuD5RyB5Kb/mcVqwbTyMQnFBcKm6x+LI6m5C9Ldvb1xmVW4jUJJoPhoXbWYZAAw8nl/cYj5FjLG0lgiqcsq4VLEENp3tyt1F+YOAVZxZJiMrzMhQiORYHcdRy3wjWmsF4di98g4vldXpYWMYF7InmcnlbfntgBaWfRJDkvEFO0EtbR1Kk3v4ibhT0NtueDRuMdlZUMrQTU0bx+E8iSKbC6jaww/CvoAqZNEkcmmOoDQgAWW3Yd8WnNtdHJRyFxU+XaZo5ZkLEXIO5A/zfFP2L5gHZfS5ekgVmiJuWe4tqFua4FJvGgMabfoKqMpoPJLBbRoAK6TYKN7WH64vTm12dNPpioOkDBNNiSb2Oy+w74M6ix2Wh2SGrEBRJGhfTbmNz7dsKTvOPQZRyYvXUvhM1ygFl3H/jz7jAHdcpYRSdFCeXiuOKwjDNyJsBbGlSpcugDeNMTz8QlgJNMrSNtqK8h3OGnSa/6lZTSWRzR52zAayA9r7mygW5WxP4uVkXpXCJoc2gqKjVVNCiAlR4e4vhOdrrKGI1k+mXCjPDEsTtVNCzEN59ZuTew+nTCsaFRSzF6GHOONi2tpeEIaUmJYGmOxIFzz79MaFOpU0gVV02tmu6yGgiuyEqtyFBIFj0tvvfGlxb66MucoKWsmcdXEqJ/Lifa99Wm/0wCcYZ7NGn/FFwq3pmfxdUJIuAOi723PXHkFUSNMrUtPHJIJEY6TuLdDvt+IwT5k2cDzwVspMsUoYEebSNj059SbHEyeivFA9PV5nlziWkEMhUWYNufYA+mE6mc4LHFZnec1LySyLotsp0AC1hcEXwSjCT0dOa7KvPmFRG2qWpJBXYDn+GNWjQeBOpOOCH+Nyxwyu0zuWsLtvtcjY40adLtsTnNehQc7cSl1dAL+Ydx2sP1xEKHN4wWhV1kxfiCpcsI5SSxYAA8j2H+2NinYf2KVrvBO+a50oiYMzgKdYIsqAgCw6nvhiPjHKTWRX89oNh4iqYkJqGikUkAWY3AA6jri3+paemTO+U9ZIpeJKfSwdChJ0qO/1O9vbBo2UV2xeUpPo4Sd6woqRRyBkG67g7f/MS4wj7BSpyZHVUCU5Hixim62Iufr9cMULqL/V+gDtpraFYipxEBtrBbUQALb9D2wzK4iuiFCp0FQUKSGNiTFIQTpDFgTb0PS/LCFWupLASi3BmwuAeCsy454wyLhHKZaVKipm8LxJH0JTIFu8rnoFUMxx5nzd86Nu6iXR6DxND5pYeEeyHw0+D3wk+G+Qxnh0ZdnmZqVFRmcvhOZ5AN7EsWIPIWtj87eQ895CvUzJPH9fR9YoeBo/GuujUPFPAnw7h4lzPiLjnjPjDN556nxoaGrzRo6Ci6gRwAKSOgVibY3bK+uZwwos85Xt6VKTRYeH/AI3cKfDqtp6/g7iTiWephQRQ0OVzvNoUtfwxEZNFienfEXX+P1rhcqkchbXyjpywno73fBT4lfHvj+N88zZ8j4CypqoxxZbxJktUcwqUH9epGWJA1jaxY9euPD+VsPx3iGj11tcxrJJr/wBjudBmWZWKVtOgP+qMkoR3IO49jjNt6k/Y3K2hjI8p6GKoQSFIma972H7416KTeTOnWUdIZw0KR+ZFVR2sMNKkm+QrUufRnIXiDjYgDt1wOUsLJEVnYHqaQs17264FFSGlFIQ53SrNQzk6Wax54vTm0y0dvB0l+JmTuUzGQICzA3DDYgd8e18RUxgw/J001k8S/tI5AMsz2PNY6UxKD4bstxzbY4+p+LueUcHgr+33lHUmurItYjJnKvz1f041lHIoqrXaIDPDDEPMhUEk8yB7evTFmlFYQwsSWTmKopj/ADTKjo1rBhbSb9uuA5beik4KOx68rTo8KwjWAd1JNhyvfl9MMwU+gblHBnBJNDGTJDG0QG4ta219/XBVSf8AyI/JWMJDRpI51MYVDfmtz8tud+WDxprAvy3ojhM8caICwk5tobe4FuuIqW8ZJoKqnHZDGYTI0zJAzk7kjYG97Yz7eyUeiatdyRjBPErSMFK7hdIPzEnr7WO/qMOOTjjAvGLfQ3KowBSOMEggEG979z++GKdZP/qdVjxOKyeKBl8LwZzZbAG9/S/TfBFvsFKaXZnDWferOUNluByBvy3v74o2ugiTY7y2gml0SxvNKATZWW9yOYueQ9cKVqaYeEZx6LWIswpU8nheHqN9huOhv+AwjOhkcV08bRAZsxmfzwaB0BS5AtfnglKybRP5X2hwktXAyySRxsxs1r39RYYFLx+dHSvUtoeZfxiaFoxVUZljAt5WC8vXGVX8dPOmNwuFKOTKv46p6uGRIctSMWOlmHPnz/DnhGpbST7GYXCaxgon8SDl2nVIrAaVBN18u9z16HGnb03jDA1NbRg8dKxbSQr6RYqLc/fGtTopmc6zzgSVVDXKzqGdorgC1wCPp1OBpLOJF5PRElFmd9SQyKh2JPmuL8xvtinxIP8AIWGCHMnhCBTpYHe5J+o5DbC9SOGUcssGqaCqXaMOUXayre5vvvz54DKWAqjgDmoMwnhaOSOQxjy3Km5v1BvhaVOL9hVJrQsbLKgho45KlAGuVJPLrcdMUhHEtkSlkHfIpjFESVksANtrj1xrxqJdC9TGSt1GVVkUszhW13sbOdun1FsTyy85B8EBSRuhKKx16OosSb4DUlU9FYUkjJXq6a8jOhQHUQb73/y/fDFKpUcdllFLoXzZ3V06+eQDV0F9x3PT8MUhyzs6cRimY1E4JDrYFQLfjf8ALGrSi8aE4y/b/qD63kddaNexIW5ve+DSlLB04pehmKVFVADUgWHU4SmsvJ3NldfjNFZBqdEVrG52BHUDrfbnjzX+vl9Gur2m+iSD4hxeIYRGygf6/X0/fpjl4ybfRM7qIU3G0giESoxvZg2oHa/cW39Prh6j4ip7QjW8lCLxkTniWpljcwxSSAbkkcx1OGI+CbewUvLQS7B5swzCWE6IXTUbg3vq/t/8xp0/8fa9CMvKqfsihpZahnSQBHZlOl7i/ckj9MP0fD4QCV+ksZDIMknk0wtJGrGwte9zfkMMw8TsAvILIdHw3HGyuxdH1fMBpNr73vzw3Dxai8kVvIN9GacPUyVKMdnUa0VWIueW4GKO3/YBUrPGWWNMqy2mhYOyyOQQW1E737czy54aeIoU5Z2V7MEymrssC6GG2yg29PfbETqYQWEHkrv8DXx0mhmCuuyrrB57k36EHbGbOnz6HKVTC2S0U2YUc+qMSBwxYWUEc+X74Uubd8cDkKyGFTUT5nMwlAKny6LWX/8A1wrbUpReWMva0Cy5WGhAAKsBuNJv9euHf2fYintnMFDJAUSZmYF9drbk25+nbExg867AVIvbGcZmpHEtKXEhDLqSMA6WU+W/Xa+FbmhGX6z2PWc5RWUiupDXhv8AppKil0AMrRSMlgOXykYRqeDtWv4/+B3/AHVZaUv/ACQVdPmuYBhW11dmDI3k8eVpfDuN7aibHCS8TSi/1QxC9qOOZi2KGviOoTOYAw1FVKMBbltbtzGCSoQiuONg43TlLB6B/ZT+258TPgTneXcPcb5rnPHvwkldVrMvq5nqKjKlIt41HI5LeXmYibML25Y8L/k3+KQrx5Uuz1nhPMSg+Muj9KHDHFnD/FOTZTnnDudUGb5PW0y1VHVQuGSpibcMv7jmDfHxetYyoyame8pVVUWYo2HRSaYzrtqvbY2waD1oVuKabyhkZ2IAHM8ycMKaElTSZHpZzyNsSmmGyjCSHQ191JxJdVU9MS5qloJQlw1t8DnDf9hoptZOsPxKy1KmGpHK4ION7xlxh4YG6pJxwzyS+0fwkK6hqICgC6gxcjYAG9ifXH1DxNd8dHgb62xN5Oj1RwZlFrSrHvZmHQi/InsLY26d612Z9S2z0VrMeGsnkjKRgBitwwU2Av29MWV7llIUMISx8JK6uIJ5Qi2C7c7nr1thunc42TKiczZc9BKqqVELN1GxN/ri0b9L2Uds2ujiSmlgDBlRr31WFgx7m/PtitTyxR+O+mBTx1N51RmRCLgAWHMHDFvfc1lAZ2XF9g9TSVcIvZwSWXne5HQfTffDqu1gF8TbwxOKusWKVYlk8MhboVB1b9/UYzLjyTi8DlOz9k1LBU1DyNIoj0ruN1sT1A67dsBhec3gM7dJZG/h+G+nyhydiRYgj2wZyaw0LTopjaO8RaEEArtcDf3vh+ndNrDE6ltjbGqNFF4EpjSyFWBHp1Prgiw9oC6rWjGbiSTLllMETgg30A3Lmw2H64FUzsPTrkbcdZvIfD8JdKgm7EC+1z++AVJSS2ORqR6FM/xFziKZhDSlkI527+vf8sJyuH0i3FMKo+K+KKqyPSuj6CCwblci3154vCpJsrKnH2O6OfP6ksstM8TEAjcAt636e2NCla8uyjrRj0SVcealnbXOCQD8x5W/XEuwAO7aOZY55kUSTOsmgNuwFj3uOfa2KS8e85CQvVjfYH92qQCyGa/NmRTa3a+DU6UloH80c5wMo67NIlVfvCTLoIAI+UDfCM/1l+w3TaaD6OrzNY18SnVt76jYEC19h/fCFxc8dLsc+DPQyfMK5iAg8MnqRfTfmSMJfmP2V+HYoqs8zmmItEgi+UX2bn1t+WJ/IhLTYSNKS2DU3F1QA8ciLsBcFed9uXpjSo0YSWgFR4ZlHnkXjkzoCtyOZGnfsemOVmmVVcMqOJKaoZUQSRi3PQLD2/DBo2DWykq4F/F8tmjbxYkaYjUCB0PX0xaNtgWdcUz1uTyvpjjCzkgbvt6Wv+mGYUECdwxdJHRTxXRZtbEMoUXI37YvK3wTC4a7FVZSIgdRGQ5BJPbba/oRgLotbQV1+WgGOZhGRNGrTBgoIv5gOpHU4mNWSeykVFMPgdC+qWnVbea7A2A9rjDzqclhEzmsBk1TD4jbSW/9Gb88V+FCfzGn6fKK2oOqTTDHtfy2tzNttuWNL4mZanJey2RZLlEaoXMc5AvyJsb3/wAGHbanGKzMFUrVHPTLRQUWWVUZEZUlV06SALj6++Kz8zRjLgDqeNq1Npti6WLL4wQlPToialULchQdiB+vvjWpVYTXJCdazqrTQvYzuS0aQqjLexTTc3tfbnyGBSqQj2Xp2s/sYQQyMlwgQpyOmwPXEwrp/wAeitejNPBEZKxnRY2dFF9VluR9f0wSUuslKdOUXlieobOpC8sMUzAg6iYtytxyJ/XAbmtxjoepxyweCXO9IeaJ03F2KDlfnfp+mMT5XnJpzpLGA5qTMqpmLPIhcWHS4tfawxWpWcniQt8UYvBDScOSNIh+8Bdr31fNfDEKusHSlgtlDkop1tJUBCQDZlOon9z64mnU4bwBkspjhaGlpLyTVFMrE28wsR7jtiK9zF+yKfISxpTzTTNS1BjtcXW4vt6Yy+eZMcVWSQ8oZMsg8CF08RRe5tbYjr/vjQowytCdSo89jOT+GSgTRInhLv8AKPXmeuCOk8aWwTqNbyD5jVZW1J4kOp4lUKpBA0m3Lvjzd3OpGXR6KzxKO2U2bN4PubxQREgEhSvQ29t8M0VKa2I14KDyVLL6qrnmP3uLw1uWGpWv/vg1Kh+wSpexaUQypnkhOqBY3uASpTsMNVrde0ChUkug6nOnTNNczW+dQQouvvfe+Kq2g1hl4XE4vKZ3C+zh9rPjb4DVbZfSo3EnATO7zZQ72NO5teSmv5YzYX08m3648L/kf+IK5g5QW/8Aset8R/klSm1GT0e53wg+2N8IvilUw5TkXGFJ/F2hjcUdReKbzAeUI25Pzcr9+WPh/kf8curaTzHR9FsvIU6609ncTK8zNVFG0StMjC4IPTGNHOcD9e1UVlst0UR0BpPIOuHKcZdGDUqNywjGaHyEg6uRv2wWSwy9Ko84K1XASRSFr7Ant174Gt7NanrRonjeBJI6tG0DmNzsD/l8OWssS0VuI5ieVf2n4JEyjNHpvJOEPhMvJrf027nH1LwcW4o8N5RJSPJR+NayoVhOZ9ZF7KSoDH/y/HHsYeMkzCldxS0DycQSsWEaS6bm6k9Pe+CysIR1JbARum3paDaLOMxaYFvkJYabHyj9LYDKglnAzTk5G8cvzrgOny2I5rT04rQuq/gFixPc3xi3FN5wmMw6NbcSZhllfN4mSNqhFwX0Wt6AHnzGLQi2UdR5wUqOSqpUlinI1X2Yi5B5kE/uMaVvSmtoDXms4BmzRyAhSEm9wNxck9z3vzw7GjJvIn80U2MIJ4FidEsNW1tVi2/bFali59kK7ecIGiy8yI0wmhjJB0Hewtb++F6drwlscdZuOAOoglVnIn1Kp1Ei9mN7XFu2Nb40khSNXtE9JRy1skcf3uZDrurDY/W5N8BenoM3gPzLL3oI4plqknjOpRfn2Nh2xdVWloXlbJlQXODBKRJFKUDEqCOVuu2A1ajZMaGPQ5qM0SaKXwVpwByBUqRflb06YiH7aZXhvJFlmc0tNOPHTULAEadtWH6VtDjsifLOjYVLmq1AMsSJGNyRpAL2Ft/9sRGlBS7BVOWAql4gfxXjkXzAnfT5Tth6FaK6FpQbHMWYQ1Gi7+YAF00Wt06bYmN5FgalCYLIIZmZ5Jiy3BBNh6WAXDUakGhZUpowFLGmsfzGDDUw/wAOBc4Z7C5mRvDDAWMkiRtfc3ADD2wjcUYy6Y3SqzRJFmDwGQPIJE06QGXnsNgfbHmqtk+WzZpXP6nEeZ07ENeUMb3IXWX+t9sH/DptYAU7n9is5/HVPXxyRStUU9wGK9+5JI5dvXGLXsXGWjWhdRxgZ1MNDGEd0tIRc2tuQOhvz9Malo2tMUqzTehfVRwwr4gjeRXF7nfnv/lsPRyllgYvImnnRHHhCSYWvpBvfbawGKR8m4rs6pQT0uyFaapnI0ROimNl5HbD9K/5LIvUtWtmBge6u6bBwt7C4BNtvwOD0b/YnOiywZWoJg8RiGvp5W0g+v8AnPDc7xPsj8aoWQUeunIAA2swbctvy22vhSpdxyEVrPHYmqE+7SWZFYEkG/UHe3rbCiuov0Gp2kt5AarNKcpobLkjRkAjuPlI5nf098cpNvRMqTQs/iasWP8ADjLvzsVt6Wwfmynwo1lW8bUCTrSPTaNQst9tew3t35405eThHtGLDxk/scRZxkzM9PqA1ADd7FRbEryFN/yDuwmlpjXLXyil8Z1qlQO19JOoi4tsTjOrKjOWVoZpOolhhIq8njLDxYZJLF2BI3J6X6DDML+NPpgZ0HLsyfOsthJjiDFyzbC3lA9evPbAZeS5dky8fJy0CniYmwghklUkFj4YCgdL+vLbFqdzrOdE1LJez6XigrCCkazFUPyjY+49MNQ8il7Ep2Iml4rR1jDU8KSfLoDtc+ovzPPbDKqc1llFapPJm3EitD4cUEJa3zbm/wC3LCVTXRoKMULYc4qpjanWWJreUk737W/C2M+dxJNh6dtGbyguCTNCdLmoOqwCm9ufW3LA/wA2foYdtDp7GDCraQRySTINGq1yLj0tyxoW10pYQrWoQjvBHJRTPTKJqtlVtz5ibcr3/L88GrUlPsBGSb0Msry1JWNp1F1IsDqIB57/ALYJa2qiKXdTHRjVU+YxVb08MrppIYMTe23P8sWm2soFD9llkkVVVxKYp5UY+W4XkSeV+gwS2uE9MDUoZWjlpFqvFjaRIJDuSDvYd8EmoP2RBTj0wZKKOy6pSrXNlG1ieVh16Y5RiS5SfZyuXyGTec6U3JAtY9iOWCQS9A5y9MnFNDt4sihE3uzaAxvv+35d8dUethuWVhE2mJtRiJCC5PlHfk18VVN4ydOaSwTw18NLGrXOsn5gL7dr3wCo0i1BPJ2R+yLl9NxF9pL4GUQCzH/mGGY3Uf8AbjVpGsO21r48h/lVWH47yj2PgK0o1Ekfq0yYpHSRhYkUHeyoFAvvsMfnWcV8jwj6hJ5imx6VkNmuQPQ4n9gKlEm1HQLG1/TBMLtIXf8AIqeZyBLqL77j1GFLh5/o2KP8TRnGzItNUOUL6jyPMA/XD1ogc9LZ5t/aCo58yyPM44Yw4juVUqNRN+ePo/8Aj80ns8b5xZ6PFvOMqo6OvrqeriSORZmRtuXm5W3tzGPr9jXp8MNHzi7pVOXZU8/eOBNGXa1na+klgCNhyPthK+kuORjx7kpYZPl9ZWRwLNJOKie/JyL27X9sWtOEoYYepUlz0E5jn9c0JiiD6LWFunUD/OuE69pFyGoXbSwxDHxHm1M0qrDKjai2mx6879sWjbwXYJV2zleKszkdWqIJmTYEEE2NuX4YPBwXSB1fk7XQauYLLG801PLE1wfkP4WPfDtGcWmKRU32GLNTyTJ4njaQASwB69OeA1dhorr7LiJ8oky8QK84t5dRWwA9CDzwg6P74GnPCFE0dDIz/wDVBF+UI3Ybc8NztklkmM1gOy7KsuM9oql0ZDqGkixX9RjOqy49DVKHJFmfhbLplRpsyaaQi/mJIG+x37enbCfzSzpBOEeXYnm4OoYEJFWtRHckgE736/XF+cn2gqpZFZ4cWTRHFrA1AB16+t+/S2BzqOJRUlnI8g4Oy2Ml5ojOSVIuCd+l7evP6YFK8k+w8aawWWh4Tpp3Zi+mQkA6js199x0wrK8mtlnST0Xai4FyoQRFpWYlRpvfvuR+FsWh5KXsqrRH1Vw3ko8RY6qMAE2G5+mLUr2TBq1jgTUWQ0EdQB96O1wqi42se9xjQV1JRFVa8dIeSZXlsNEiie0rWAu4LDbffAPyG5YOnRS7IoeGqOYsEmkdmu1xa4t3vgte8lBdBqVGLHlPwHlE7AVEhY6ypDHkSNh77YzXezbwxt20EO4PhnwsAs0k8CyhO1iTfvvti7ryigXxwzhCXNuGeHIlWOnnhcDYnWDc9/TBKdw5P9ifhixJFw5lnkIaOTzc1N2b0F8HU/ZzpwXYPPwTDUOoSSJ5wCLlQNjvjqtyBUUwGp4My3LY1aV1Z7/IZLH0tjOq1HLSQzBYRFNlFIguiQsNLNbWDp+mGKVq8FZST0hRLHSQNLajRyBbYBrew+uGoKUVgpr2Q08tE1QB4dzpvpVrWIOGaaygXNR6HlbOKelhlgheZlbzXNzc9eftglRY0Lyr7F1IrVUAkmpNLhiRqX16b4inBttohybJ5IaJQfDp0k31NzP0540IySi2AnBtsF1QvvHRvYbHzdcA/KKfAdUJKWUozGnMkq6hrZSvQb35nnhi4tIdhfmkByLV+G5F2fbUdIGwPQ9cBp26k8g6lWX2TpDK0TkK+uwIYgkjpfc97Y1qVpHHRnzuJZwOKOGUjW8jxjVZgxsHuOw3t64rGwjJ4aLTrySD5okQeLE0UqkEh7bt18p6jF5WFJdERvn6ZItVKUh0R+a5sAvK24P7b4NS8dCUc6Eqt8+bK1nNDnUkIkpDOratSMQAAb23Av3/AHwSHioLZf8AO/oq9FwxxO1VB41XIFU7ghdxvzPPv+OAzpcemFTcvRtWlyOGliSKQiUaSrjeyDtbseh7YSqTew3BhRhpgUlooVapFrLY7DT+m+E3xl2HoQlnKHFCM6qGNJFQGbT8ovaw/D8+mMu7u4Uk2zRt7ZzYHVNHHma0bA0VS1vIx3fbe/Qb9sA8f5ynKX6jFz4yX/IaVGX1rosZkaGMG4AN/E6Wv1xsS8hy6Mx2biMcsyRKGofxKptJsLsOXoRg9reJPsUuLVvbG1VllNHKPCzFCukAAPtcnqOgt1xa58glFh7ewXsr+Y5ZDBIG++U7RbO2o+W/YDrv1xiW/lMs0alilHC2L5oPFaWKKeC+wuBsNx3Hryxox8hn2K/65CybJ5UAk+9rEBf/ALYtvyFr72v1wx/sYiMrPbM4MszCVTK9cjopUOZDzPW1uZxz8okij8c5MJTLqqaRY3kcqCAUFiCt+R9v3GOo+Wi+xheMaWTKamiy6MyySP4pZrm429ffbDS80sYKPxee2gqlyuXOljljmIivdiFG5ty/TpjNreUiFtvH70ehH/Dj4Eeo+0tlOflhLBkuSV1cw0jSskmiFAT/AEm7nHiP8o8gnS4o9Z4azcZo/Spk1MBDErkO1hf1x8ehDLcj29xNqOCyNF5VIHLpg7h9CEZvLMHXyi5se2A05vomKy8lazRBpYaRcj8MDrU8rJsW8m47NHcZ0sssLppZUItYjngtCpgJPo6Y/EXh2OsgqzHT2ZEN7g2Y/vj2nh6/HGDzvlbXls8W/i9wNVZdxRVVOkwtU3l1bjWdR5eu2/tj6bZV8w2eGuLfMujR7cOGNwq6tRZhy2HqT07YJC9WMMFKza2jKTh6s8O4p2VS5UNq5gWxeneJPKZVUpZ2jCKglinRamCNlvY7evK31wKrfr0Gja5L1kceReJGK/L/ABFADboT177b8sI17+Uug9O1Xosmex8NVcMa5XlTxOBrKrAFAud+XPFLWvJvbCzo4WClHLSqmODLXV/6WUAgm3Pb/BjTd1H7xgSlb4ejE8PTFr+A6m9zpF7H36YJG8j9g/xt5OI8gqjKYDBdtgrNzG/a3rjvnjnPIs6LfZvj4cfBCj4mnQ5rV08EIB3ay327nphO98vKOkw9tacngD+LXwzyPgeZJMuqfEJXSAtiW23tbphK28i5y3sNWtnHo1BFPGi6xSyaVVVspIBPUfvjajNdISlSeQmOrhlULKjlSwUW3I379MGwi0W0XPKjl6RrA+iKQi5sAbevpjPuYy+gsHH2WyJclY+GrLoNgbAb352OMecHnoZTXQ6SDIiQ0TiMA76jvfpgapv6GIqOM+wWsqMqWF4/FmsAFBvzI+u3PF/hZWUmijVVNS+KsizEsLEA2NvcdcNRi8Awf7iZdUgqWS4IJJsb35jnb2wWEG9gakkmRNloYgJUOqEAsCb6fW+HPj4rJR4kz5aeopmRhVa1U2sHtf1NuY9MTOeVsmMfokabM5FEkVVVKgvc6tvoO3YYFOjiQN1W9GMc1cgdJq6d1NwASRa46DFq9GUvR0ftmtKl8zo80I/ic/3fVoVdRPXuNu4wCnSlnDCfJFrii45VUrWpomzSoSfffUAD9emNWNPihWfRZ1pZ6h3pxnR8Pygqptfp74VnBYCZaIKzhfM6gslNnzSsBvqNyT0I9OYwOEox1gl8n0Vaqp+I6FGBmhdQWuFQEgdr7dsNqsgUoSW2VCWqzcMrSLr2Opb2/PB4yj7IxIPoMxjRVeYKga4DMu63PfrhuFOLjmIvOq84LVR19FIGQOV86XuhJN78t/TCNaDW2Ftv22xzNUQ0yI8UiyjnpuOnW2AU63J4Reot4DsuqaGsJFWFDFb3Fhb1A7YvzYSFJFifKstDFY5wqDYWS1/XFQvBHTBqiSSoDLSuVZdttzY7deVjzw3TrOr2ZdWi4/xPoqRVZJJfFk5+ZbWF/wDSvX0vjToWygsCcp4WWE1P3BYrvJqj23bYMTc3It9bDB5VWlg5fstC9qnKZWJWqCL5UYgE6R1A9+eFqlbGzlBMFTMckSV0ar3IZVVmIv2K9vXHfklfiYZJUZFRxGRKrUAo5i+s+o/C2KVLyUeuiytm3lgGR5zRZnNIKuWO8c2xJK9NuX64vSvm9MvUoJLZtLKsvyqtAaNkIB3Ou/Plz3xZ0+YFycehpVZRQJAoFYjsR/8AtN0xT8CX2U/P/sBpvukUTyrKllPW1jsdsTDxjk+zv9jFPZLlHHEOS1zyzQ08xMZVlLkA3G3K554xvJeAU1iTNew8pxfJFFzvMKPM+JKnPZYPDlLfyyoKhVAPMdfcYw7D/HKdHMka1z5mVVJMFrOKZmijAaPSNwQCCF/Hc40ZUlBZAqSfRX6TiuaWqeneWXxVs7MASAPX1wm7mXrot8Key30eaUkqp95qZIf9YHPc9B0HriJXc+jvx2WCCbK6l71lVKVQHQHuxsQN9vXr0whWk3sYp0VnBiy5VLpZq52TbYswJvsCd+/XC0rucekNKig3Mpcvo4E0TvKGUWKLvztff2tjqN7KbBStUtsqdNxHIJDTw06OBsbi5Ydu3S9sN/N9FFTijYlNmVFNGy2ED21amTSRtyGJ+YnigbM8ly6sJikeMuRe4a9+XUbflgbqSfRLijKmy6npGSNJzGNPmAa5A/fBt42CnTUmeyP/AAveDKeGi+KnGkimQzVdFlEMhvuqIZnUX23Lp+GPJf5NXShg9D4e3T/Y9wMvhCwCwJtv648HRpce+2bN5PDwOFAJ8yuMXn2KP+iCfkdXWwxWpGKWi1PvQkqogRYgnAFFs07d4Ne8QUKzRsFUhtzfA3PfFh9s67cV5AojmAjJuSWv0xuWl046QCtT+zzS+0l8L5c2yaoqMtjCZjBaWIBOdj8vpqFx9cfRPEXqlHi+zw1/bKLz6PMyqnqKKWamkpXjlVtMitcFG5Eb+uNPg1IShUXE5aeaoQpHSox1lUIte47DkfrizkorZWL2CT0+YU0iNPFGwJs1ySOf+HC7mpaQw4SW2h4+eUskcFqCcOtwNbfKP8GJVBPotzRacqzWgkhQy0kdrX06bm3+dMVa3hHOaGZrskiaHXHuNrabBT/nXFo02zuaGdFnnDksgaRVv8tid+W2J+GRVyWMHGbcQ8Pr542XxNhZtrnsLYZhQmsJoE5pdlWb4g/dA6ZfUyrc3tfzE9Pri34jk9g41d5FtVxhU5v4bV0bzFVuqO5bQfrvbDVv45L/ALkV7riheal52ikSmijjHmNxa55XtjQVrGIn+U3sWVCVSzPIAXZtyLbX/b2wTggc6smDQtXxSeJKAgBGwG4A25A9sMxt4tZyChUkH/fKpIotYLagAS7FdQ6cj+eF506Y5CUsEozWrjjVyHSxAHlJ/c4DG3hy0CqXTj2ghsydLoVZnGxAG426/TEzsYsqruT6A483JUxpCNRte4vt12xNKgkEksoxGZtIzqkDqSw1X2On0GH404ZFqzljBms8ojZhJ4QIAtewX2wzOjFrCARqtICFVVwaiZmMJe7H/X6XvywvK3giyqSDkrp4oXldhGbG+9+ZwuqKDqq28IGqa+ZwWikcyAgrpF72588dFKLOlVfQxj4VzRssOZSUDLTC7FipuRfc7fTBI3EVr2Vgpt7KwKePU7XUnUbhTYm2+9vXBObK1IvsnjRnaQCqqITqGg2I1eh/PC0+yaMXgs1HT5oUcwV0ixEh1vJYL/p9bjc39cY9z2acV+ourVzqKctJKjNzJZvx/wDuD2qyga/V7ENaaqUo99dlFkFiDtz/ACw1wZMproX3mkGtYQIxsbnpfkN8HjWcOhGVJErPVLoRA/icjZbnUPX64tUq8ln2TBYwjlMwryI0LOjFgNF7tuL3Njywq4vIfkhhRS1kSeNF4iMpJNz8ov64ap0ZPvopOokhpJnucq5UTJYbbt+npg/48ATvGMsx4boqdJXSBfF3Fxbn/l8YNO44DkacmVCDJo6p5JGowsQJCgLbcdj3w3T8jnWQVa0TZDmXCdFIrOaduiluqm+23Pth9VlJexX4uBVKng6ifzaJ0j1aiuq5P9x7YXqVM6YSnSinoKpPhfwvUhFkjVXHykjck9ffFP2JOKz4aZT4qrSmNIhv52LE7E7n3wOcJY2Xz+ouj+G0FCjgtC9he/UNYnY9ffGrZcMbFa830TxcMZlG+mCoLqSP+0D5drj98OVYNP8AQSSz2QLl2YaQZqiaY3uNuu/TpgnySXZDow+iL+ESMiBJPCbT5gQfMSe3fr9Md+ZKCzFFJWsX0jCDhxBVGXxVkmtdeRLn/SD15YRldyqPizShapRRcYOCaipCaVSnVwXUkbk8zvzsRtgM6aS0Rx3xRYqP4F5rmCPMWoSjkEDxL6bi4A9fTGbc3NLHH2OUreYBP8D6mF5QdRcm+kDTt2PfCUFDpsYlCaXYsPwmrkL/APRNOQR5mXzBdsEnQp/YOFSSbOIfh7NMGpxTykgNp8u5vtf98CdCnjsKq7W2TSfD+toggeKpjt1Kjn6YHKyUumE/LOH4NeelKCMMVu268h1GHrbxlOK2JzvJ56Eh4VzOhRRHQ+LcncKANv8AOWK1qFPfEvQrSb2JcyWqo4JIEVmrCL+GFuee3mvsNt8YdSC5aZpRqvGGD5WueiQFmbw7g6tDAG55EnptbpjctbVcc4Mmtd5lxyWaSirZGQymcldyoJ6MBYfiMUuqL45Qe3klI/R9/wAN/hxso+zRwHWTwmKtzKprMzlBA8+uYqpJ7BYxY9sfJf8AKcupxl9Hu/Exi4ZR6eUSkIoLX5A485RbYxcdhwDMQvLpgso5EnJoxMekkHY8/fFJwWC8JayLqiM6T8vPvisHjodoz2VbMqTUDYWN8KVWnuRpweUax4hyjxVlj0LcjtscWtqyZNSKl2dYviDwcmYJUMIVk1CxHK++4vj13ivIYejIvbSM45R5HfaC+C9fkuaTcQ5PRyT0ZLPLHbzab7MpGxt1v0x9Dsb75IqJ4u8tpQ2jq5S5hHAEdWYtfra3O21+fvhmtZzfQnTqe2NJMwWof+aSxsBpI2IwKPjZpjMrr7ZmIIZvEIYpbvbf0wx+M49g/mi+gWWllWMlbKPmAANhfFFCPJ4LxegeNKndZYtjpW+2/uMMRSiskSjkAqMsJ1MqANe+wW49d+QwTminFrZV62engaTxR4wPlYhOX1P7YJl9lG8gcUbVenwNKylhzaxA6bevbBaM8vYB0nnRbMvy2WMLIzDxWIcb2tc2/HBPnjn9fRSdFstDUNayKTK63Ci3zDFKtxlHQt8MwmyXMCp+7uxQgXXnb+4wt8wb8YXHhTO5JLrckAHUdvN7dtsRK8a0W+FjEcK5qqrJeUzKAG0k8xvy7b4VVZuRMk4rZLHw7mKo16ZXDA6S/MkE9++Lus4vISlBOOQCoyyv8eES0ywqLgswB1G36AYt+cyk6UQeOnjopFuupdgbEAAc+Xf0w5bTctsXMZaujjZZPu0hj1X5AbbXvYYYln0cC1VZSyDwVpywIsLqBb3wahVknkDOimJZM0hidEEUkSklQzcvY2w2toVlTcQ2kzGhqo1uDE2sqt0G9j/YdcBnSSYdRSHFEMri/mTzI6FrKhNgo7b4Vbk44ReHZsGX4iKco/hMFNGtM6lGKt8oIsE29vzxmKDU8jGuJpxhS/fJHDiNW1WVr2W3QW5gY9HbbiZ9abWhmpjlh0RiOJyCV07E36E9/wC+B1LaRFOsjCkFXGAq1fhtfQy7EDpdu2wP1xELFyWwtS8S1gefcqyeGRpnlaK+q2wI32G9vT03w5T8fgUld8tIXNkrSkKyl77E33H169sRK0aO+d9GD8M1NyzAea1xq5b9RgjtU45K/Ls4bLfAErl0Yhr37Hta/wD9wpO0foNGtorstL4UjAmBQpO4Q7C3TkTywOlbScsMpUucLZLHVMisA0SkmwHhgM4BtsD641HSwsAHWzv0LVrpUBQxOxBPJeW/I788V/EkU+aP2bZyziOPNKlYYKCR0YG91JAA7k8seJuE46Z6WksrCJaziLK6RZ1lp/AdPmBIIHrhXMm8roaawJkz7J6hirUpdCAY0Fxf3OCxlIFOUcbOWrMlLFPu8KRXsWYEm5INgRv0OJU5/ZRU4voi/i3C3kheMA6wBqUgA+nXfBoX0mQ6KQak+RNcRSvCWFiG5W52t+V8EcpyjoooR6GFPwrJnuWzV2WSQS0gu4LOQWYHew53HLFoeQdJpFpW6awVHTNdlSGYzpdrXG+/IWxqQ8pzwZzsknhiHOK6HKQkclI8szDbSLADvbEVL5t5L/gxBqU1WaRNPHl88URPmATTqboTv1thuleJxywFSzeTKPK54alJY6dlYC4fTzHb3GKKpHlr2WnRaSSCpK3N6cs8bzjkFvsQLcvY9sGlRhjYo6rTHlP8TeKKMJEamVqdGIGrSSDY8zbltjHrePUpZRq214sYmcQ/F/NS7eNEKpbWAK9O23LF34uOMnO6WdD6H4uTzRuv8IhUEWOs3KW52O2/phWXjcF4V0xCfiwMtdjJl8ALaV2XdWPLbl63xmXC+N7QxTabB6v4rffaUu1ARK4IFlvv3NuWC0nLGUdUllANHx3BSyhXgkJ5307X/Y9cGjXBujjaGNTxnFUtEnheGTzCrpIJN7jtyxM4OR1Oph/sVGro8q8dc1r5S0m76RcFdrkdz0O2MmtJwkOR2sFpyeryOoEMpjl+7kFiPCOoAi+/X6Yfo3UorLATprssEj0E0E02XRt4iI72Av5gpIB/03sMVneyw4eyys1zR+mf7LnDS8LfBz4XcOiMK9Fw/QxyXFh4jxiR9u93x8l89dSlVaR7uwt+MTtnSklSu18Y9F4ewtb79DYC+4YafTDHNCE+jAsoGrTpHri5ZfQDPZ1caRywGpDOxigxFKytcEkbYUVJyeJdGtDorGa0ocMxAO1tsVaUeieS6NTZ7lJqFayBr3G1tz640bSo49C0+jrBx9wZRTpNFW0zKyeZCFvpPcY9N46+alsxr+3Uk5Hjx8cPhJU8IV2YcRZJRQz5DJM3ixR7NSnnqVOQQnoORx9S8XeQqLjJnh7i3cZNxR1yg4ipolKESIRcEFdZFufl/fG/+LHGUZ0rnHY5j4ly6JiwESMSHNwbD64VnbPvAWlcZ7YzPFdBrKxeZmsCBsL8/wBsZ9S3wxtVGTx5vRVFzHPEptqe622wF0Yy0yOUsZBSKMhmWeV1bVcCx29MMULWKKyrPoX1FLlKAvOonY7/AOq23MX+mDOmkV5oC+50CL49GFjvy0L5re/pgioZ6RSV3jQfG0w03ldEB1A89Z9cTKwz2iPzE+h9T5oI0SJ2MoDXvuLbdBflikrDG8FoXe9jqPPNCIPDQi4N77DCdSzGlcp9D6kzCQlVKBW1aSOl+uFHRwEVTPRY0qJagogRC5be23T9MCn+vQYLrstzKKMyFiiMxZXIBuduQOFnJ5wca+zaOqmbRLOrEta+m9zvf2vywWCfRRrLExy+lMYL3YHmb7gD1Bxo05SQkZRUFDZdyW1gHoO2Lyk5PoLDolmyzLXJAgVwBYMO53uD3xbg1s51Y/ZhNklBM8QNLqYDkoP8wd+xbFlCTIVaJiOFYZZ9RiCjpt19/wAcGpTcXsA4trISeDaOdrafKAFIO5J/bGrqUdiUcJ5ZnLwzQwR+HG6omy7ixvf5vflhCrbtNNGjCS4gNTw3ROT4MoV9J7Xv2wSi3HtCVbYqm4fipV0mVkNrbGxY98GqV54JhSS7FjU7K6iMySPq2UXsRft3wWhcPH7A66ihklJW6FWOUuF03U7FbHcWPTD0LpJPOzO/HUnpC56upXxAhIIF99gtv0wlU8nl/qtDa8ekjGTPqmCMEShnW5UDcX/vgk6+sg40caKq3ENSXPiy6kAs21h6j689+2EfzN/0Nfhp7Ao8+WQB0SOT5kJBJ3uALA7Hl1+mDflxa0R+GTrXx1FXHI0TqQPKObMeVyOvtjndpbO/DHgyejlSJwISpUaSP6h3PrgsPIaK/iSNjU8tVklSJIaNwtjZ1UHY/lbGDXipbkOwg49E0mXxVLyPLTF5HbUSUXc35jEUowisEz5N5yBz5LpBEUZBBO1hYNz/ALYZcKeNERi87K+MrKBDJTrY2U2Uebf3xT44vQWOuiU5TQSPoMMOvfcAG/oD1Ix0aFNdA3Vb7BWoY4WP80qNgBbr7nlgjajHsmCJF4lzXL6efLKGrqoqVmvKivpWQdjYXt64xKypzlp7HIvHQsTMKmFUddCsPOGsbqb/AO+NG1pQS0wNTvZmcxq6gB6qKmZtIHyqbDlz7dcMyt0/YrK5qZwkOoc4SnRYpBApFtwAAQDyucXVGCj2E5tsBnz2zBIxCmuwHI35kXP44DKSTyEUsFdq6gSiSJ2WRyBbTYhetx/bF/yc9i84psCkpYt1ZzY77ry9bdcWlcFJUcjPLsqy/wAIeM0bAqAXKBTt1Jwyq+sFJWxPW5NRIoZJEuF97n/DgNWosFadNp4AY8lpaqU6jrYcweQNrc8Z+VUe1secHDYZHw8iESRiFgAbKLC3Lp+OG6lOMY7F6dRylhgUWRwTSF5oLyDcXvv9fbGXavlJ5NCbaSwXbJeBP4y6x08KGXVseZPthudZQAUYOTbL9L8EMw+5hauOkW7X3/Lf9MYlWpCUtmjBOK2JF+HMFOhplZUS50m24HYnDdLjLTF6s3hh+W8DoK6DLaZYvvFTNFTIP9Wt1S+3P5tr4pWoRU3gPSqN1Fk/UdwXRRZXQrToFjEQECqAfKqAKAPbTj4p5eo3WkfQrWDcFg2jTzAsN2XbrhSk87K16TwHipRAS0igDvywYTdJldq+K8uiJjEpdxsdPfAvyh2Hi5/8hU/FtDNdfFUDr3/HHKq30MKwcRVNxDSCQyGQN0sO2K5YXDxoS1nFtFZtfQXAxVxyV4NsotfxDQyxvLFK6Mb/ADgD6+2C21Nl6sZLs1BxLURVYdiryyBTbR1HfG5axxsSqb0dc+N+H8gzylenqIIKRTcOrBSs/IC3X0OPR2FzOL0zDvbVNaPO/wCJ32d4/wCIZnX5BTR0M+vxTGQSkgPT/wATve4274+h2Hmf1xI8bdeOWW0da89+H2bcPTNHnGUtTI7nQ4X+S59HO2NCN8qn8WKRt+HZWKrKaHVEGDJKQTcAAHsfXtgjg2slvlimYLlckUqouuRfQ/jgHxPsipcegv8AgtTH5RpVvm35n274Pb0XIWq11hgByyr80axyFbfMdgLb/tjVp2bE3coGiyzPAySyOQlrgL/SeZ1HqcNxopCtWs94GhGaqsYMbuQBra/rz9Rvi0qWegUK7T2BzS5sskbNAF1XBNwSo9uowtKDQf50lyD4KmvVTNNI6iwuqKF27k+uLSt045DU7nP8R/DndVDdzI5ZuYZr7WsB6D1xj1rZt4Ro073GmE/x6tlq1khrp0IsAB8p25X9MIf6uUp7Du9RNLxNmtUpX7wY2D6LavXmPwww/EY0Lz8hhEcWYiaUzzy6EJ3UWJNuZtzBueWLLxcl0Wp3ue2T1GYUkMUapJFci17bEEXsRzvYHBpW2EU/JYdRV9FUgsJGBsNuQt3N+mLW1vl7A1rpjBqynDG0UJYc9tuXT++NZ2kV2Zf5kuWEDmrq3lQLLEIrnmLaBt2xNSnGKTigsbibG1RmMtPRK1LOz1RcDSgBt3vfHk7idVz/AFWj0tCKlD9jiPO3IBkuzf1XFzz5bc8a1GaUNmVKjLOV0Y1WYU7gIod5N2F+l+u/X9L4pK5wy86DawuzBHqWGtFVgPlsm9u3O1vTBoXcX6IjQkiOopaioVZZ4NaadmPIfTv6YTrVUkNxWTB8rrzAaemhUh7i5Nrn07jt9cZtS6ln9UGjbKXYtly3P3kFMfIQNNx37jsNueA0rmo3scVFJAC8G1UkRdppAzAvdWFxcjn32HP6YeovDyJ15ZYuruEZD4umSYMLkHncX52w5VuEoFI0W3kXScJRzIAJlRlF9JAa/rt+mMSdfLyMfHjsSDhtIqkx62kUbkqvLHK5ceiyo56CV4OrKh9ayBEG27C/fY+mH6VRSAThJIlfhzMYiEEstrdDhoDs3FXQ5rDGRoWe1+vMfry6YrWlGUgwokqcxjUyfdjpvYMo3C87YNG1g9oBOs4ywJps/wAxZiHpDCAzLZBYn8cTKza66C/kNo4iqxJYsHBvckgW9dxvfEqymhaV0kKayrmYFaeQKyj5mJ8x7eh9cdKykgKvYoRTNnU6eK7NE+xuWuQfX/VjMvrKpJaNC0rRlsAel4hatjWGKKqpthZBe1uZJvt32xkW9jUUsMfqXVNLBeKbhzOappJW8CNrKSvhrYA873735+mNiFvKHYL54tMxnyOtQuGkswawYdB7dDi1SrIXxAHHCOYVZLyNIbAAaiPmAPLvtbCFa4aCU1jaAJuC6unlidNbSA2AKixFidx9cBjmWw3LWDFuGa59CCC4IsW8Jtz6dsO0o72Dkm8GByB4dnjtJq1EMNjf+m3MHnhyMYvoDUgTQ5bNTaEKzONkC3sBi3xg4xwzN6VpvnDsXULzIBbcfTFZU3JkykkgGKllgK/d2kkXTy2tt0Hvh+jSg/5MRr12kyX/AKtlLCaynlHfb29MHq0YccIUpTkpZRGy19OwKzMSw2IXfbrf6nA7eyitoNVupyeGPss4qzzJDHJStNHNswYJe3rfCF7aJ7NCzufQ5rvi1xtWRlJc0kMS/MxW2/K1u2+MP8LeUaTuMaK9/wA2Z1q8SSeZ2CnU0h2BJ9ffGhQt8dis67N0fZ4jr+M/jp8JsgnLyUtTxDTawN9UUWqZzsP/AO1+eEPNYhQY143/APJUyj9PHDdhTiRiPOS+w5gm98fCa+XUbPpFJfqkWSStijZQsinbp3xejP0XBKqeWpiZlBQny++FK1JsNCWsFTq6RopvCcFbi6m1r4Kp8XjBLqcllCGqo5NR0E2ta46YLKOf2BxmL3oZzZgy/UcsCksPARSyfNlkEqFWjJe2zKLA4gkqFXw3IXl8SKcqSLKBbV7frh+NRIDKeV0a24gy2opmeEvKq9EK/vhyhXF6qbRonivKc3SM/cGemc3FrXVh2ION+zuF7MW+ovGTQGYcU1fCtasPFlBJNlTKUMsZP8m/U9bDbbfHoqMeSbizEq60y9U3BXDvFNM01OuT5vl9RGDrYCUKTsAVa4+o3xEbupSeAbtozOsHxT+ytlUkT5pwpJVZfNYF1W/hoevlPT15gY1rTzbb4yErnxyWcHUer4ZzvhqaqoMwhmjqYpP5qHyWPcdLH02x6WlcQktIx6tnxeRBX1+ZUUsccUUkiOtmJtYC+NCNRRxkDOEXtehnT5s6LHLLC2xAAXmeXfrg8a6Yh+PvPoFrc5mASSjoDI4uVGkk3H+2F5XDjJjcKKkcZRnGZVAdq/LpaWPUSjEDce344PSu1J4ZS5sFHDiNmraGUFhSSa1YDeO9h6Hv/fDmUticrd9ImiSjkaV/BZTyA9PTAZzYWhFp8TGSkp1AIUgj5Qq4HF49jLizGKDI0cKxlaRWtYra3v8A3xaVb6KtZBp4MvEiooiVvm5i+3O36XwGVz6wGVBY5voOpcnpqm7NoSP+nSQD7nvywGV5KPQN2cZA1VwNQVkiyytZlN7A21j0sd8DlcSfY5RteK2PIOHKeBIkp6qGI8hqAut+Yv2ty9sAVTjs6VqmwqPhO6tqqm1GxUDY+3Tlgq8jJaRafj+SAsw4cYRsIKuJSbhS27e/rgNzfVJLCJp2EV6AqbKKygjJao+9MTvbrYdb4WpuQaWPYLOM4j0+FeZGU+Yn8OWL1FNrCKOSbyRVFdnMc1PGKePwgQWLD5hz5/vgVOjLqQeShjQ4TPjDTqGSZJFBYApte+9jikKU4vRf8mK2yu1vEWbPNSfdIpBCdKvqTcAm2wGGKdtUl2gMr2C9lpoeLpYk0NH/ADdQDeXVc+/TEz8VJvo6N/DGmZVHGDO4DQOQxsfT174j/WNbwRO9T0iCXi8aWdUZhqNltudufr7YtC3/AKJjcNgicQQVcoWelkia1iduV+YP7Yr8KJ+chnkpZQxfT4nzb7fTY/mcCnRRKazkmpKSnmIk/km1uZvq5bEYVVmpMNCql2WuOmVG1maEkEbMB3PQ8+eDQo41gtKusPANNSReI12Rh0Orp+GNCFtlZwKOq37AJOKNchhlh1lWN7sO/bCMbSXHlNhFjlgPfijLo08OMRByLaddtud98J0KsnPDYWrSjjJyc7y+dQHh1Wsbm1x+ONh1HjGRBxblogasy4H/ALdnNmUkCw/DF4VpY7KO2z2A5tXZBSRGoqw2gXNlU7np+uBV/ISRNv45fRU6DiDh7OJJaeBJEKbXKEBfQfpibO+dR4OurVwfKI0bL6aCb/pKiWNGG19rA9LdsaqpRzliPJvskiGayatM2jqyh9iBzv6H0xaUIy0wLqS6QdEJ5jIJZWXfxFJIII9PxwL8GH2Hp1Zx7Dpq6ool0RmMhRbc9uvPna+M+v46LejQjePAIM4Yi0miQAmxAPIcjt7YBGyXT6Lq5l6WR/FWgqXexZza29z6AXx1W2UcJdBlWeNogmmpVCXp3QkG7Fd9zb9ziqil0DlVyCTTUsa3EALfTbt64IpMjmhes9IJCaqC24GgC529cd+76JUkzCsmyt1jRXkQghbBflIO4v36YUbrZwkFjSh2wWCnpZmDRylYyPLcWP8A998HpzqrtAqtGn9nBgoFl1rUFWUX587c79zv+GHYV5JYQnOh9BFLPlEAZ5ih0mxNh/e2A1XKQS1wtsiq4MjnZXhkpwl+4N+vLEUaTzgvcV3nRFUUeXnw1HhyKQSSx57bbYK5xiVUU3s7d/Yly6kHx7yLMmAqWoMszCtUbWVgixAg9/5px5P/ACC6TpNI2PE0ZQme9eR5j4tLGjbBRa9uwx8Wr/zZ9IpyxFYLJEhZ08Q6jflf1wIIpN9F6hy9GigLWAtexGDwykLTuMMrXE1AQtHPFqIQsoHbrjpQT2EtnmOGV6KlE3S7gb//ADBf+JYL/h1wwuOe22FZySlsvTWyZMsYBfEAZb7IOeOxnoKTz5VT10ulk0RAX7G/b8sBUv2x6ONe8Q8HU5Dv8wsSCTv7Ya5cQc36NY1/DIrRJHJGoZdiOW2GqN9vAKUE1h6NFcbfDTK8whnjraczR6SbhRqB2t78segtfKSWMGZceJU87OpB4W4z+DuazVnB1THmPD7sJTlzACFxuSF6xtfqNr49JGvGtHDMH4ZUZHZHgrj3gr4oUclGTPlfFQi8OXLKlBHONNt1DbSjfmu5HTGVcW8qMsw//o7GtCouL7Osnx5+DUWZ08tTl7/w+vRysbqlxTmxttzC3tceox6bxHksfyMS8s8JuLPNrOMkzzJs2qMpzaM0uZQuLgC6kX+YX6bY9irmM1yj6PO/iSzhi9o6+BVlaVahxZj5t267dByxaN4l0d+EwQcU1NM0S/dQoFla3JCfzvjnXjL/AKlvxpRB5uKmrGKiRIXvYACx63/TExg+0X5sjo+J4PHcFrOoF9RspPO435nEupPllvo5UoyLAOIoiCIYYzdhzO9z+2LOtJ9sHC3xLRGM5rauPw4UDkAcuRwMmUFkGjknmeIzxMiWDWIF1J9eeKutxZ0aHLaGkWWyVOt4JFla4uvK69j3wxC6X/IFK3kPUyqvjgULNKG2FzyAtyv6DA6l1EJTtzBKetjPnnk8FCLAPYHC/wAyGVF4yGiJzf8AmSbXN721DoR+OCxq0mv2YpJ1GwQivRGENU0ak6gdW1+18Q40+8hZRqY3oANZmXiMWPjADd1Fjt0Hvg1J0/bB8Kn2SyZpmEsDQJHJHIrWIY2A5c7fri3BAakpYIkzaoTSXjlWMrbfy33tiKq/XKIpzeBfW5rXSyPG4dYwDvqBHK1icBTyNyedEdPU1IaGSZClzuQL39BbB4dCs6TGgr6aALriKSAHzqNwPQYjnKHspGly7C3myuQ/ywQD5gQtrfT64r+TOX7ZGY2ywcNFks10SZS+nYg2ZfoN8C+aT7ZP4/0L6nKcokW8cg8a5Atvb/VyPvtgkOyVhLAgrcue8BoZI7q6q1trjptzwJt5CUopxyxnHkjyqgeVHk1aiB5SO3L3xctDoYUXDi0UQUV05JFrlrgH2I5YvSmo5yVqBMVPLTlSKqS1ze5urDoMdKom8ApPRDNFOXu+YFGtvcDf1G/LB4OKWEwXNmNVBVVDyKaOpSOy+ZTyFt7d8CqQljEkXVWLeRRBkde5aYGpic3AAAIC22v+WMunZJS5MelX5RwiJsk4gaW8000ajzEE7W7WwetBvopCcYoseXUDwpFFI4aRTzBIv6e2CU5tdkcMrsFzykSoLK0IqCB5Qx2Fj174YlTg+wEnNdAVLl7wsZqeBYW2YlALnoR+mGLe3h2hOvVnj9iCd8yFRCyTKsfKTncgdhgc6T5aJo1tdBVXmbsdERlh2udI3sevpytbDtKLSAqeGS01TPNGkjtMWNjt5Tftbp+mKfJLOAr30RtXFQ6SrMum/Nbkn2tsfXHQt5uWQM62EcivpDN4hgcix1HpvzHLrhWpbTb6HqNzlbLDS8V0FOTH4DyygGwboPQYXlZVPov+VHOGEScT01TZBDH4hNyT2G1vffAfw6n0X/Io/Yrnz+IlvEpmYAmwA1MbcrD9sP0bWcXkVr3EWsIRz5zDNMsbJAqWJO2xU+owzCg95QJ10loAzCqjlQ/dWjDLdza/1/Tn64iVp7RaF0srIKuYTJESGPiX20ne1uVu+FmnnGDQU01kBhzGSUSB4WmFzqZBqN77j6jfAHXlB9HSjFoleoStVfCacHYNsQb+xwZ189oXlR2KVjzGmqfFeOZqdRttuRfbfphWpFtYQRNLsbJnjCEU7WS22oMQPe5xnVLeffIZhWhjo9A/sAVkR+J/FDFGkmXh5grnfeSoQf8A/K9MeT84tHpfFcW9HuLwWHnipvvEmtQASO5Jx8vuMt5PYqKSWDctFl0ckkbBbqTtte31wpJrOGVnU4psu6QiJQh823K2HnxwjGc25ZQtzalFTTBCrEi/S4xVxwMWtVxkVaHL1ElkBGBzk0zacvbGLUsbABkYtzxCgn6AuvgnFGwABQ29RiVTRT8pGU1MkbKVUA2598R8SIhXysinNctSemZipLDlbEVIJLSCfMUWsyLwVadEYC1jawwmpTyWg2+zWFfw80kr3QksxuD1w/Rucdk1HnRrDjX4divy9ljicVIuR5bgjnbGzY3jzlidxQjKODpLxr8Jq2WUVkSVdJmtPJ4kNRGdMkbj+pT36Y9da3kHtvs83c2DhuKEsXxH4qyxGy7jHKpM+pI5BGZW8k4AHMHcNy5nD0aEJZcXsR+SS7FPHPC3BnxpyDTQ1FHBxTSAtQVU1kLryMFQvblZr/XDVvOpTeM6FKkM7Og/EfB89PWz5LW0kmVZrTP4U9OzavCYdQf9BtcHrfGsqzayhXG8GvJeH2p9qq7qu4DbEXNunPGhaVeS0Cr/AK9gNRl8ThNERU6tKEf5sMNzT7FG1nXsEhyhYdQjheRi3mtYk/T2wq674tpBFHDWSwcJ8H51xRXS00CpCkYF5Sh0rc2G39r4RqX7XaG4UlIEzfhHNclrZIJa2ORQf6ed97bjYDmLHF6HlM9omVrg4pqOshSNZKgyG1trXt6nGvTSq9ClStweENaWrqqOQCNuTf1EG1uv1viJWeGVhd7LGOJnhjYyRo7ahqIUaSORtbrgDtuXoN8yBP8AmSBQ7GFUWygXQEX77YtK0yi/5KJJc8pma5iSRrW8qWIHT25csVh45vYCrdKIIudRzgbbEgEA6bbG4/LDKsseikbxNbIDm4aMpEhQMSpNtRW+1z+uCfgNlXexXoEpszjhUIreJY6mXnc2tzO98TG1wBlV5LY6Srgdi2tFXRY3UAkHYfW/XFakMPRf4kkMUoIHDyyyU/hk20XsSevp1wplrpBqNKPY0ipYZfJHJEsY+azDY9d/wxPOX0H4RHlNwjQSIjNMCCCWKkED64lSbBQgkSNwbk8QETy+YiwXa42Bv7bYHOs1oNwztCl+DMmgZpaeaVntYrrHm25nqfa+A/LJlXBoYUPCWUONYKszC5B57dvptgcriS9ExpthT5BlkTMLkyDly29OWOle49BVRUegqHJoJCZIY3EhIIItt+ODU7rl0Bnly6MX4eZwNIYeW5uQOvK+LO5wTwXsSz8NS0y2FvFJIuTf8focUjd5ey87dJAkfCdbKiP47G47j+2LfkgPx0Wamo8weRY1QSMbkLfewN+XTtj0F1dxxhmVTot9E1VDWRO0NTSJCWNzpS+3Qe2+Md1ovaHY0WlsURZHX1E+liqRhz5gtgd/f1xWdVJbLK2b6JK3g2QF44aqNAd+QFh6DEW8XMtWah0AU/B9bEJBLOJlv8oW1/rvvg5d1ckqcKTqLCR9IJUW6XOxN8NWzwtCNeWQeq4bnhOuG7O1rXsSByJw6nrLFuW8CqbIJ95KiA6iSF1Daw5cv/u4weHQFt5SZi+W1sKzERhiBYgGwK9cLypL0g5hkuXJUzyiunSGJRqFxblfr1/LEUo7yC4Jtp9COsyZmlljp6pPADEoApF9+frhlL2DdTGhfHk7K7qGilJLAG1+eAVK8Ugqpt7AXpKgWhBJTnt3vyAPXEfLHjkq4MIip3mMxleFB11Jf/O2KKq+8hkgvVRssQNJE7E6tQQhTb+nftiJTljQThH2ZtJlz6g1G7yAEsBsSPc4Vq3FRIPGjTfezBhRRqD/AAgorMGBYbN3AtvhWMm3llp00s4BZcxhA0CiRAW0/MPl2tv0wX4pS7BqfpAUWckuwWkVTba66iR6H98HjbtvZ0ay6YXBm0Tyx08lMNLCzMN9+5wvXpuLHKTjIbyZbw88Cu8sGsnkT5l9bfj+GFpJvsK3FPWDtx9iGooqf4q5tBljqKqbh2pt5trJNAx/InHl/wDIqTjDKRteJlvs92+FqeRKQPECGC+XTbf2x8gvZvOT3tCOcZOweRmGoy+nrhKGJFiARsR37YWpwUlliF9UfNwSJZaqd9RjFhflbBytGjHtnyVJBIeQ7k3v2xbmyJUkllEEqpG5eNozFzNzyxDeRiDbjvsJjqqazLIVJvzFtsQAlTlnKM/vEBGpJiy/XHFXSn9HzxpOtlKNjiVKUf5A8wkjiEJuw79sS3kJCSk+XsTy0iSB7AgEcjuDikqesof5sqtTldz2AO1hgLot7bLJJrYiq6QOmmRSwA5gcsX5Sj2VVLHRrHijgujzKmmMYiepXfe1pB298GoXrizpRwdZeOfhYstIa7+HOrbCS4B0bnr2x6Oz8084MW68YpbbwaFzT4LNnxLZMzZfnoU+GofQ0/pG3c/6Tzx6SHllhGNW8dNZ4rR0u+M+R8XU0UVXm9DU1OdUQaP74kP86SIA/wAqdP69HQ8wO4OPS+NrUqqxkw7qFSG0jrPUVGY5my1E5GxPlQbMP233xvUbWFKWVsRqVOaSkLUpquOTzwyyD5WdFvqv0th2Uk1/QkoOOw9o5/FjmNPITYafL8w5Wv8AQbYXwl0Ntuayh3T1OfZe8smVmopdYIcpdSbjYA++FatOnLcglJTTFNQM1lF6szSAix7jl+Vz74sqFCKyitWVVnMNMU06jI0gsCGAuB6YPTvYR/iKwtJt/uc6QUmCBY2A06lNyOouMOUr2DeWTVtZR/iCmGEyML3uAbgbM3t/hwz8sH0xb4p/RJEILAPH/KIJILWLW22H1+uO+WH/ANwUjCXsxloaVyLs6TN5io2N7f6v1xb8mKLzpSaJVy6njG9QGNwAo/pNt+Xqcd+RFi6hJaR9/BqZhdy8obY9th25dDhiFSJEqcvbBv4MkSq4mYxRkC4JG3r354TlWor2MU4VfaFX8LUEt4tSznzAIdhiqr02uxicKjW0TRNmkEUogrKt49ZuCpNrdunbEL45dbBRdWOnpBcdXUh201EsdzYEEk3+nXFaNu299FIXks/sER5tm0DqTUyaWJ1atz6E++2OqxpLTexqNaT6CjmuZzkePUtKDqXUNgvt023GFp2usrYWlVmnxkxhlGZ1UFYizVaBLlgHc7W7jpgEqTQfk28ZLeaypk0hKuKJSAQdYGnfbfFPgTZ3ypLBlSSZhS1EsktWJbm/fT64mr4zn0B/P4yw+hx/Fq+O6iSOwI3uN8Bp+KUXhvBatfJ7iQ1XFNTRmAeCj3YamBvceg/DB5eLivZ0a8cBEfFbTIVaOQICS1xt+HfFP9Tnou/Ix6YQnF1LCioUcG1/lxH+rZX8yBlk3EddklZBmL0a1IRrFenPmca9zYRqdGZb1nF7BuIfiBUZzmklVLlRpnvso3UC/wDqwlT8JhYyM1/IyxpC+LjGrhMiGGnU6VJs97b/ANsSvE/aLUvIPjs5n4yzKcmLw1WJeRO5sN+R36406FuoIzqly5y0ErxBWuqkSRhmFzYWIvjp04/QbmxZXcQVKMqCqUvvuethsbc/ritOC+gU5vImk4irXfTDPrdRbVe4HthuCj7QFp52xJUcQVpZlM0ZbnYE+Y9rYhySei1R56I/4hUz2tUEOyg89iO3fF1KINKQCMxrIFvqchW1XJAN+wvvbETnGIWnGTWyJ8xnLMHF5Aeeq1hf9z+uOklJaKyeGkziGrnMRWVV1Em+9rDV1ve/0xn1qDekO29XDG1BDTyVQNawaPUAQG32vjNrUKq6NLKay0mWXNEyNwooVKqbAEE6va/XBrSjN/yFK9aP/FCmnjppGXxY/Ck/qsTfTvuRjahBIypVJZD4aHL45vIqOAfMxsbkdD3HTA6tJNNBYV2mcS5UJXXVK0UY8q+bYjt6c8AhRii0q8mL6ijpok0iNQb2APc+uGYqKARqNdimKnhUSK9HI9zpvp/ywxaU49AZKTeUEJl2X1EDa4JklFkI8T8AO+DwjTfZEa9bOEJa7IaRWeaJmA3PlJuN+XL3/E4WrTgui1NV85Zun7K+Y1XDXxy4PmeXw1qzVZbdd/EEkLEC/wD7Im3XHk/OqM6TaPW+KqNTWT9EPw0zVGyMSSzlkEQZVY7KL72P7Y+CeXjhyj9n02jNTikdhOCKmKpoK3wmDhZSRvjJsKq/iX8rBqUR/M+kho7hidwcaItSi2iFibMSbg2GLeg8VjQFNHMykIGKnfFQjeQRopA24Gq9xjinHeSDxZojpuQetjjgsY5JEq5omvG/LkMcVaj1IawZ2r/y6qJx/wCQF/xxbQCrZrOYhUvhOiPA3Pr0xU6nyTxIXtDrB5BuW5xwYW1NOiGxVbcibYWcsBoyyV6symMy+JpFrcuhxSo8fsWKjmVHGWdHgRkOzKwBUj1xMKvWCsop9mjM94Kp6eperytDo1BrDmh7jtjWo3zSwBlbp9mv/iLwhl/F2WUtZXZTFLmZXRLUg2L7WGte/W+Nqw8jKDymY3kfHxl0jz6+KH2fKvLPHzHhuhgLEmTwAoGs3NwOmr0OPb2nmHJLLPMVfHcH0dTaiqWjqGoK6lkpamM6HSRdDIedrdDtjW/LkJSt4tkv37LFGsiFh78vXfEyrzaLQhBD3LuIskkiBnWIEWIXcWF9zhSrKYZRixsa3g6oS2uFGC6TcDf19x3x0XMn9RDU1nCtMriJUsLWYA+c/TEuM2Uaima1zTijLKLNoKWHK2ny9765VUWQ+vrbrgL+XOEy/OHWDZ2Sv8O65IzXGKGUi66tNweV/bB4uqvYOagyPMcq4BbStLmFOWtcEMNvT2wzG6q9AvhiU+touHI5XWGo8WRgSCCDpPf2xZ3FT2SqUMCefJ6TUpp5T4X9JvsT39uuDwu5ZAyoQYvOWpHAZGck2INz+n44ZjeyRT4YkFUUk8NtaJY+cm9rdOXoMKzqSbyTGn/Yxo0oax00y3G39Wxv1vg6qN7LxWFga1mV08EJhaWKVhsSpA1eu2DUZtPIOssxK9DlKK6TGm8Rbm51H6CxFsaELnHbEZW+WS1dLEqyPJaOQ72O4PsO52GLUuMuyZxx0LvuqK+guI0Dabdtun5b4c4JRwgDk28s5qKaEWCza5OTEdCO/TCsks7Dqpn0fLSV1QxP3hjBe4Fwux5/vywV0EhepP8Aodxyz0qFWk8ygE6vmN+gH4YXqVGujqVJS7C46msnS4iGm4DMDYHC3ztyY3G3SX9BgqJLl3pDPbfUCpDb7c99sXh+2iZTUd4Inrp0UrHRSrquLKRsb41rajwxliFaqpvKQiqcxrJZPEWKRARyVdI/DDPOJQs0eaC+gVckhHUte99gf1xnTr4LQhvowqs2aYsZHREGx37YrTuc9l50soiiq8vma0r6r7ljYaSeQscNK6whX4M6Qe1Tlb6kjKg3IuW6npe3LAKl9jbD0rf/ANKADFlniMWqCvMaFG432N/ywnPy0eWBuNk2sjWMZHEJBdJWUbG/yjt3OHqd4pRTRnVbV8nsArFyqZWfpz8rWN+98X+R9nU7fGW2BPBRRwNJDLK1yuoqN7db78vXHZb7LQp/YsIXTIYXZEvuwAH0wNckWKvmklaviaZNN99V+focCkuTfILySQsjrKhBJGoZnHpubDYXwxSlhYiLzfJ6LblcuWywlczcCpsBYA7m17k974Xufkb/AFQxbxi08iWfNp46qVaK4gVtnA/c8+uIo0pf8hivUio4RxT5rOzAS+eT5gpFh23P0w2pOPRnwf2ZjPKoyF4oonYCxt09DfFZV2HjTUloNpc6zDULIDfoCLjuMQ6zeizt0thhzvMtTadYLAFd7b4q5tdlOET6CtzCeRtbP4uq6nVe3c36jCta4x0yY2mX/QzZsySVXEeu4YXYEjVYWP688Z07yXeR2laroMWWqefwpleOOwtYWt69sJVfLSxgaj4+C/ZglU8CSLTaZKjUP6enfl64EpufbwFVvFewnLc2qMmr6LNMtZ4cwpaiOpp2AuRIjBgPrax98L3NRSptBIUuM9H6CPgfxdlfFPDmS5pl86y0dfRR1UIuDpDD5SO4N1+mPknm6KjUfI9342cZJHaj4b5ukecV2VCTSjL4qBuTi9iB6g9MeUt241fo2vIw50eT7Rt2thRnDjl1xrSeFoxraq08ZBPBNjfVb2wTgx1zRGdVlUC56WBxUnXZKYklAJAU9bjHAHLW9gNRSoDY20+2OJin6eAY0xQgBrjpjgsaWXmRxJRKy6Y/Ix3ueeOLKTy16IITPTylomkMYNiCdvpisn9BuPJbGDVzBVaojAj77XGK85AXb46MJSlREfDtKpF7XwJrISLx2LSI5I/Dc6ZBz6X/AN8K1pPLXoKKKmhSRH0EE9jzxSDT79HFLzTJ46gOjlopb+U2t+OC8sbRxR6jIYjDJNWhoiWtqU+UdiR++GqNw10VcEys5r8OqDNstKRSStNrB1EizehXqPXGpa+QcXsVr2cJrB0g+OP2aqDiGnqXny+PL84iQvDMqfOB6jofXlvj2HjvOp6keZvPF4eYHlRxrwzmPBGaplmcZbJDNq/kyoCEmUb6gevqMe7sLmFWOInmLm3cJbKm+bQMundBe1uuHJW8X/ICqjXsX1WY0/h2MiutwNWxFvTBVbr2iPyEL4uJGRyzvpQNsHJsenO+xx34/wBIh1cvTC582oiwklRElubFTqINuXscDnbJb9hoT1tmFFT5fVuTKbg6na5IXfvb1xVUiKksdMeiLKILyRzT+LYD02529MUUf6C/r9hUdZRvJqiklKnYAjYem2AVoyyWjLWiVc4yqAky1Mik7BlG39hi8aetsE5Ye+jJM2oq9X8KVTpbcadr9h298E+D+ykqm9MWy1FIJWVgJGF9iev+Xwb8SJDrJdgM9apkfwJAZLXFxve25/bBoU0lgh1CeIuVh8epBlsCxUkbn15HE8cdHfK/st1JlNdPEaiDNXiuoKo2k8vX++MyrKS7GY4yYtl+Zh1eWWOV+RCgDbny5/XlhqFw09AZr2ZRZZOZyssaiPTuw/pP9sWd+89lo0YuJnmDwQKS8YJFhpUG1/X3xaNxnbAzpYEMdTE0lpwIEB/E89ul8X/Lf2CdJPsYRx5fPKIVZ13F2DG46j636YYjcOQFUmpfr0FrFDAp8HMZglzfQ2m4HoeZxWVDbYxOtKKwYLLIimU1QVtR1Fib8va3bFWsewU8yisGb5lEwkjNWiMFAsOZv198NwvFjAu7Z40Chiw8+YIjjZgo1AH3xb8kr8EitmVtREkJUgGzFrBNxttgtW2b6ZEayQK61T6gYmRjsDqA1A8zcDAIWko9kzqp9EAhrNRCLJCdZBBNgP8AyBxaSxHBalHDDTJXxpoMQ8Pc6g1/254DVhz0M0XwIqPORQylpKGSUAabkHynqTYb98ILwyk8jLvmlhoxGYRiN40jMczMG1CUC+/bub42rW1hTiosybmpKUmzmjqCrEySEg/MxNgb87DrbGlyppdCijNsNXMYYpGLRIyCyix3K87k4VqVY5CSpTXZzFm+VVDiIgqzeW3Y97jnhd3CQWFFj2mgyRnIkleGQAC7AnUL9bXtgM71roPGh6bJ2osgiQKryvc3OoaRf02wv+XUzovO1jgDky6kVCaZypJG1xsLY16Fxr9jKVJxlpiSWi0kKFepJAKm5Knawt/t1wX5YF6kZCaSkqo5bLSytBfyta9j1XvzxbnBoooTx2Bskkb6JUZXLAAtYDrf/D2wvUUcZDU4SAg1bHJeOaJkJsgU6tvUf5vitJxbCyclFpDBI88cxkzkJudBW1rjY+h9MEkosXcpe0T0aZ0s800s4fSx0qNtvfGdWop5Hqd3NLotMOc5pSkq8LSLfobBgB1t+mFFZZQx+S3uRYUzqUxfeZ4BcXY3XYbcwPX9cCn4iLQWF7h7QJmPF1JHC5ho/GdRyB0m/wDvhOvZOKwh2nW5Fc4dqcy4szOWL+GVUBQLZtgjm+9vbGDKlJfyG3Jekeof2PePq/hir/5Nz5Y4splZ6nLzquY2JPixgnkL2YD1bHmfP2Sqx6NrxlZrTPVWgrZkly/PMuYvIh1sNVtYJ3Pvj5n5GlKM1hdHuLWakuD6Z2ayvNaXNKOCeENIhXn29D2w1b1oyWPZhXFu4Tyg0IFGxthg5zIZI2O+rcdccXjLJgoYWFge2OLnxA0nyhiMccCech10eYbgW/y+I+WP0FUl2YP4pUFogD3xV1f6LRxnGQORZCLRgg9wMCTYxlAYWR5D42zKR9cVdRrRJm9KH0sjMrdDiOaOIZ0JT+aSwtu18BnJN9F4xFkni+JqR1dOViRtgTprtE/GLXEswYPGysDc9bi3XAFUzpEcGLZ6ON7h4kCkEcuYwWMpL2dwZWqmi/hJM9JUpHCd2Um4G/XB4SfZaKXtGFRBlXEFO9NUyKs4BKNsR7Dtg8asvvAtOjvKR1U+M32QMn+LGUGmpKmhyjNzLrp5AdUYO+xXmOePW+G/yd2+IyejCvvFfLtI8cfjx9nHjv4DZzS0XHeSMlBUrehzOn1PR1hA3HiW8rjmVblj6j4nzdK49o8Vf+PqU3hrB1ozOekiUQGN4twALAhRb9setVPktGFJtPGBDHQU1WxlppgoYXJBDBTbkO2Axi+WMBY694CYMkM7NGkzXK3Jciy+2K1aTcky3LG8jOHh1Yw7LVEDc3LbL+mJjbZF51/eQGPI2WWNjX3Z/MBrva35YYjaxjtgKdxIZqGhVo1kuwHO/PnvttfAKlKDljoehdtLYSkbVLkSxKsTkbjlp7jC17RUI5W2HpXCk8MnZY6SptTRCeEDoLXseu2Mqzq1pTxjQ1PhFZbJn8at8ZjGqsp+VRYfhj0krQzatwpPKMqTL0eoj8WmnhOssxAsL9sJyoNdBqUoy9lsgy2jAMRjcKDcHXa+B8ZZwiJzSeBvRQUwskCLHJ8q3Y7jrc++FK1Ft7QxSqR7CBPIpmDPCtyRe539cKuUk8YD80NMvyWKpV5pqnSjndS9wwxzoPOSyY3XJspCHU3iqoO2ra/qcXVOforLHsjbKcmkuqwA77HuB03xWUZojEXoLo+F8pkjbRTqhIBBJtc29sGhVlHsrKlJEFRwpTh9CBETYEHmLYJO61lkwp59C6fhSFkc1dQkSGxuST1tYjGdWvkuwkqDJ6H4cZRUs0hEFSb33YWPvgcL3eiXbtPYXLwPlULlfEZ773Xcfr6YL+dIt8MTrlmeX5n92SSeVvC+VxsGJ/Dl643qHllnDMyfjvoXUOfJBLIs8NaugadOksCR2IxoO/TQvK0lEMpeL6FJFlmljVDfYi34/jbC3JSeyibTLFT8W0ssLPFFHMdjqDAg27DFuCJ+WRjPmNDUqZHHhzX8ouRf6W98AVKUPZerVX0YN/DJVUsGfSCSAfXnyGDQw1mRWEk+8lcly6nddcFWY1a7ANLb3+npgNxPEdMcp8CRMsdQglrlm1jbQ3O5/wB8YavJJ72MOipLsMXLWCxtDUwggX8yjoe+GVcqXRCpL0PV8YCMBxIGW5CgWH054LTqRXYKVGWdDbxkeAIHC3IJDAA2vtc2x0rqKZ3wNrewlqP7zC7Q1Xm03Avud7YPC8RV269IEeOrpWDvebeyi4Gkdu398W/NRV2uQxKp5H/7USstrE7E9TcYrK9S7YL8KWcBFRTBZxC9IjU9hYHfpfc9OZxErhsMqDj0M2yXJWHi/dgCQNlsNI54FGu8YTCuGto+egypmaNIdI1WJY3vti3zT+yioxfog+4ZdGCy6weVg1rHp9Mc7l9NllRX0KKjLaca18WUP1UyXv8AXphetcPOgsYLG9B1JkiznxWrVYabaNhe46m+wwnO5qegjt09ZMKngIzyK6V0ioQSDcXA5WIwFXFR+wlOkolhyfIJuHzoocwkgdgxcq1zf3IvgEqjfYbP0GxV/E+VVVNVZfxnmlPUU8v3mE6wwSQEEG1uW1iOxOFa1vGUGkg1Ku4vJ7Y/Zv8AjDlHxJ4Po68ypT5nH/IzCl1X+7VOkFgvdDYsp6g4+aeYspQk5ej2lhcqUU87O3/DuanJ6+MVE0jZdKLKqC1m9ceOTdKeUbNRfLHCN4LMJYxKqyIhFxf++NswnDi8ZOfmFiL7CxttjgkZHJbSVBYM2OLJZMWS5vZycccpoiB03Y3PtiIqJMs+jlZFk2SwcHfHJ60V44/6AkpjSQgjQL+18RUlhfYeLk1oEqYFLtJGQ+3LAXSz+wxCfpgsYcklbYAlkKTNGCpVlAv+uLyg8bRbmxNNSa3IWRx282wOE5wlnR3Nk6UesEspWbT5WH9XocWhQwiHJiqppwCySxkqdrjniHFrbK/t9lKzbhd5UeSllmlh+YoTYp/t1xenPIWNWZTFyx6GW4aV1vzub/8AzBKiWFksqsn2x/l1XIGDM5Xe1wbH62wuox5ZKVMNE/E3D+Rcb5FWcPcV5dR57klQCs1PUprR9rHY9d+YscMWl9Ut5coyE7i2jUjhnkN9oD/hx1eUpUZ78HKps6yfWX/gtXLpnhAudFPObLJ20tYj/Vj6Z4T/ADtahU/+TyF1/jvNNxPMev8Ahxn+UVtRlk9DV5dXxuVmgqIjHJEw2IKEC24/3PPH0Wz8wpfsjzN345rXTQoqeH8/hjkLxabHSoFxqPbGjU8pHInS8fP2yqNTZhC0qyRzJGGN9TE6eoG/TfD9vdqXQpXteLOY5Z41CKsiKVFzewUd78zfth2byhOmv2wui401dlEGTPSyUrtmJYHxNgu29/fl+ePO14TVTKyjWpyp8d4yZRZrDG0cUdMJEtzLAgHoP98Oyg3DbBxmuWkfS14ndQiRluZF9h639O2C2CjB5khW55S9hQrhSRAVFO6Ri+q/MnodtuuHZ3MX0xP4Jiqp4mo6OYJLPEisxVATckWwGVeC/kg9KjL12MIuJTLGPuzRSIoAOlvT09cTSqU5P9UEmpx22HQZ1VSFIzSVLI+2pQeQ66h+nXBXTg+yvOTJo82ZBYQSXUk2I0hR15nfAfwE94LK5qjOLilQkmq8JHRRe6+m/LfE/iRDKtLGX2QNniVoMVJVhIzdrAE6rdfpiHbwjtg/yJZ0Sx53VUMsIjmlmkexVu/9r4FKlTbDwrSHMPEOZTt4bSPEOW5sBvyOKzo0ohec39jVavMpG1pPIp73JG439Rb8MJVKkOvRaDqJ5B66jzXM4PDkqqpoibjS3PbmD9BjIr0Kc2sGjQrS9mMUfEWV0kcVC0rKba9dy1v745KnFY9h5Vm+w5qTiSsSKeWvqIZCvmUKdjc4QnDeinNlCkrqcmWGeYujAE7C1+2HHa7yifkFlalK8TSxwRKwFlsunUD+O5OG6akAqtN7RVajI6WuRnMcMcjA3Z7XF8aVKP2xNxT9H1FwtFYrHNGHB1MOWkdji0ppdkqmnsHrstzOiqIVWA1I2BcDy6Qe4xWVRstKkmHR5eYZIVlheM6bkb7m53v9fwwSnFtZyLTptPCOVyZJpNRqZYuY0D+n2PUYJKkmi8MoPjy1Lxp9+WSEGzDYE9gDzttbCMreK2MRqGMtBSq0kIr1QXuNJNySN+WAzopdF4TSDKCjaEhJs1AQC1mHy/U/jgMqbxoYVWODn7gqq4GYAQH5tPYDc4Erab70VdeK6Lbl1Hkn3CNmzFpZiB/LAIt6/wCbYlQlH0D5ptB89FlPgx664J5tQjWSxNun43xSNRt4wFEzJTrMkkMlwoBAv5efMfTvh+NFNbQvKrJNj6ozGsqKW0csDKB8xI8qk9fphGUJKWC0av8ARVHzXOoFjZfDXYgW58uQ73wRU5L9kS6sX+v2ZxcSVaBhmVF53BOkG1vTBI832VWF7BpeKKV1W1JJFoNgpPz7YCqNRsu6sV2By51FNBvEdRIADCx1c7G/TDELOb7QtXuI9pn0GaUsxVkvDIBbnbnz/TFnZNbYSncqS0Q1XFNfT1CQRVEmhbnUh1XUDkcR+LEL8rI6fjHNKx9LmoZNiBv19D0xkVaXF7GoyyKariTOklB8KYx6rntbfYAYiKXYRQyjbvwJ+0DxF8IeM6TiBaOvqckkdIc2poWYNUQC/mVDsXS9x1PLGX5Lxsa0GkP2l06b2fo7+FnxA4d+IHC2WZ/kOaUucZNV04nhmiOzL2I5gjcEcwQQcfJfKWEqc3lHrbK55r9Wb+4W4jnpNOWZhL48P/4ZSLgr2JxjUK8ovDHbm2jP9omyfEWwZBdSLi3LGr8i9CCg2fawSNQvvjvkRLgiMtck28pOJ5/0XSMtXl1YCcYr5CWW1/bBOeiso5WCGSPxuo1fri2eQSM+JgtlFiSRax7YmKwsHSlkgkit5lBA/bCUrdcsx0HpS+yFnYaUYMxG9+2GOWsBMLs48IyAsth7HApQy8kSqJaOQo68x0JxHx/TJ5o4dYpAqzAhr/NfFnHKwyN+hdPlFryUwEy9wfl+nTCrtJx2nomNxn9ZLBVMxyZ5WkI8klvlJ5+2KcsvBcrj0WiytGYiNmbEyjg4ziSWE+UFoj+B9cClHLOCpDE1DU08yRy0rL5kbff/AC2A53gL8Dxo62/FT7O/BvxRy6eqrqaSHNVS0OYQWFRSdtV95I77aTy6Y9D4nzdWi8NvBmXvi4yWXHZ5A/FP4J8VfDTPXHEuUVTUEbGKGvhBNLOh3B1H5GPLS1iPbH1Pxvl6dVLezxtzZShnC0aLzXJaKq1xLSyOthyG/pcdf0x6WjevH6mVUoJ9lIr8lqaRS1JTqq8gNOy9PpjSXkH7Eo2qWkirU+XZyjmSso45ow1wbX1G30wen5FJbQpUs58sIxmpCyRpoqIQCQwAtpN+g6jGtb3EKglcUasVhGDU1REQKWu0uCWUMBz3sDcWw3CgmLU5Tk8MVVOWZzWxMZq9DTg2sxGq22/pbt64TrTpwegsYzZVKvLBdI5Ak7hb/wDc3vzt72wGThNDFKEk8heXtWRx6MvjkjiF9XUben+cscnGK0wk1KfZZ4M6zujQFWSLSQADb+Zty7/XA4XOdDFO2WNsMps/MpkTMITKqm+5+a4ub4bVbWMitxSa6BpcwoasBNM0IJ2KGygHmPfBaSyJx542ZwNRQtGY3KKo07Mb88dVqRSxIvThLOy75bW0JWPU8MiBtWrncDbc9MZNev8A+k0aVLWRpWZnl1M7TyV1LSUim7OSLDuSOvMb4yLm7lHs0acF2QcO8a5Vn2Y1eWZRmdLUvEVWTQT5/bof98IxuXN6GEomyKau+5aaeoeMTsToHl39L9dsVbkiP1L7lWVVNSgZljYmxN7WW9/7YXnKXeA8YIcNkMyED+RFcXsqix9cRykWxE8/osxy2V5GhqnWRbE3Ntup335Y9mqWfWDCneP0yWpzWeKRhrfTcEXYg8+vfa31xenbb2BdaUt5ITn+ZwyRMFaSC1wGBuF7bDf68sUnbb/VB4tFsouKIvLUSUd9JuQjfKLbX9OmBO3O+aK9j2HieicGOSEhxtueZ/z0xT4JLYX5I/Yxgz/L5ZSGibXfVa9yN+mLQlPGEDlOGdsHkzDLJ5ah2ZQt+Si40+thfBJOql0TTlBvCZzHJlDm5lKISAABa9rnThWpKpnaD/Eu0QPJkIAsviDe4UC427jEKEmC+WH2jCGHK6hV8NSi2Bte+mw/LEqElspKms5JJaGjOkeJKTubAjf62wX58aZXCiuyVEoVUoKu9hyXr6364FUqLiw1vBf8mFDJaSRRUtVGRCQBZuW3/wAxkVa2P6HEk9pkj8Pa4otEwWJrEXFiO9rdcdHykloh2ybEbZFWqrxivqoSbeUMBc23/f64heS3tEq1SXZTquLPqYyRiWa12OxNrgfla2GoX8WsNCsrRZyIpc0zhPLIrswuFNze9t+YxpW9xTaAzpST0RPV1DGN7yBwDrGk2A/c+uNSLgt4FJxlIOFVI0imRCWuATq59r3xarf0orSBR8fNrsym++RiWdJadVtdQ1wfphJX8JLASFrUh0mF0OY1kb66gLUOxtcDcbC9zhKtdL0aFKEv+SLNlU1IkqhHjDlgNDWAH19MZF5NTehqCljZsKl4ZOavZqmAHwyR5gABtaxOEXLjobhJLszzHhRMrp2ldoIoV84blv72xFOu1LCJm01g3F9n77SWYfA3PGCNV5nwVUSFswoo/mh5Xnp77BwNyvJ/fGZ5nwarw5YHPH+R+F9Hvb8O+P8Ah/4hcJZTxNw5mtPm2UVUXiwzxMLMTa4t/Sw5FTuDfHx+/spUpYaye2tLlTWY7NxZBxcyItNUuJEXyi/zDC3ySpvDG50Yy2uzZEdVDUwpJC6ODvjQo1IyWRKVNxf7dGaOx2W7HBf0IaQQN7DTY+2A8GUMgAXC+YnE8GdKeEfeC63sGt3t1x3FrooqiIGiddWolgenTE5l0yeaB2sqlSbr64NxX0Hg9AzIy6t2I53wvPsZjJMyVmZhpOnlipSUFjZI+hxeza+vbHFFnKx0Al443EctyDyNv1xwwm/RMjgENGwUdCNsCeU85KOCf8kRzGOY+FOqgHkw64pOpyaUtEqLXQJU5FrUuAJYjzI3IxNWg1uOwSrrOGIZcqlpgSil4hzFtvrhdxa7C80APTK6mN4R352wGUVgupNdGNNQPTyCWAl0bmCL7ev98C4Nh4VtYkVLjPg3JM2opqbPMspMwymoUo6SoGjF9iH/AL40bTyVS33F4SFK1rCrpnnX8X/sINWSzZz8F85oMok0ljkuaavAJsf/ANXqLExg/wChgw5bi2PfeI/y+GMVNHlbzw84vMVhf2eaXxH+HfxU+GVYYeP+CM54cgU6fvLr4tPLffyzJdfqbY93bX1Cr/F5/wChgVqM4ds1w+f01Oi/eREEPy+bkN/x5Y0FTUtRFebj/IXDiujaOVYqOKpl5Asm/cG+D06c4vsq5xnplWraLOsz1z0Tx043ftpN/Qct8O07mpHWxadtD+gBciq6eQpPmMTud9KE3duYF+nXc4idf5GDdsomY4fpxeVo5mnVQQpsd7b798OUKcX2DnUUekEU+XtlolZNE1OQwvewXuPz7YtWtn3FgIV5cicrlBjeCZJo5mXUSByt9eeFcOPodlVg16yVqakoirPTRtra+mw578ybbY0KVN42jPlUf2LkhnjfSsQk1bhSpJX3HpgkKjh2S3HGfYyShqJtSeEEUE+Y7L9bWOCPE1sDGTT0E08H3TSChZVGliNtutsWXxRWwqUuwevymDNU+7zUk2lrIFYHcX3Avt13whcW8K3TQb8yUTXpHCfw2rzVU8VVldYRpDQA6QNXQW229sIfh06Tx2xmFzKpHktGyuGuKE4ioqTOqOerlsCVMhKm3TZhvz54bo+LVTLQpV8hxwmbRoeKs2aHUub1VNayiNZLXFrfhvjp+BSfR0fMR6yHPxTIukTZvmPiWF9Eht+W2F5eF30MR8pHGzUVBk+XtoMMYVw17A73I574vG5x7JdrnY7fhrKmkjNQsqSkaQuq6np+mG6d7hA3Q46C34WpWpwiVCSnkFuwsvTbr64v+fjbRX4/optfkVbl9Sp+4S1Ubm58OTYg9x/pwJ36YJ2zYTQUNJUxoJIMwopCegP437dPphmjeZWGVlaNezCfh+sWYT01ZJcOCAwJNrnofTDSisAXBrWRtHl1eWESK3iBgLFrAA88dwQKVRxJP4XWxHU1UqEb3tYW57+t7/TFnGLWGiirzz2Cx0U66VkqWKIl7gWv1/DFI0or0Ec3nIbBl+//AOskIdw7b39sArUk30MRqZ9kz5LLoVhVxTORY6vLY98J/A/oKot7TBTk0smmRXa4WwtsCOotgUk4vOAkVJewo5NxDo0RJE3zADVfYHt+GFK8/wChmnJi2U8YZazxzM0bDYKXNyOh25drYR/FT2hiNZoAqs+4qpRJGae67gOzE6PS/O+/bA52Oei6rt+ipVHEHErRslSxMQv/AFG3va/X1wSlavlshy9szWavqp2d/ERW8+m/Sw5Y0I0kv6BTlnoYU8VUx03Dy6gDex2sL3Hfflgskn0KNYywuopcwdoWiaGWMK1wxsxI27flhepZOaDUq2thoZiFjeNCjL5jyC7dbDCcLCcXlBfmQ3y/No6GJUlo6KVbaSW81hy1b98XnaVGCleRQY2Y5VXRuHiWEFztGLBe4H98RKwmg0L6LCYqrhuPnFUswGoMrMLActx+mAuym1tF/wAuOcBTZ/w4q2mWd728ryG5PW1za+Fvw5KXQX5ohTZtwwgQ+EAG3uTseoxM4zWmT8qN8/Bn7QGc/CDNWzLhSpaLLZXH3zL5n/6epJPzleSSW21gb7X33xi+U8NGvHMlhmv4/wAi4vvR7O/BD7QPBnxWyU1eR5tHJmUQX77QysEqKY25lTuyX/qFxj5d5fw86TaweytPIQno7dcI5t4lPPG0jGMm8ZvcAYxbae+LY5PDLslYRYGx9Th0G4ZC46pQQNa7+uCfILqiFLMBbff0xeMlgrOm/QQlSouGtyxLx6YGVFmRnVjY8uWK80R8L7MLRNbUFIO2LHfsRSRFgAgso/TFZU9l4ya7Ivu+91IYYjggrqGDJa+kWbrfE8P7O+QwkjSRdLhdQ9cd8S+wkWyBYCN+W99uuAyishPkJfDW6BwGxTgnshyZMutF1IxS3Y4tGLekwM4JvDJmmjbUZ4Udu4Njis5KP8kD+Jr+DwASUdHUhhEygg3IIsfrgMnTl0GjUktSQB/DDEw0OBv3wDjgMqgNmOXGppZKR4knhe6lW5WIwOrHMcBIVUnkqVRw7mWWxeNCqVlOBtGpu6gDp3HpgK5x6COpCp+rENflGXZ3l1VSVdNT19HICs9NPGHRwRa0kbdfpbDVp5GrSeYtoXrePU1icUzoR8XfsHfCbjH7zV8JpL8Os8ck2pI/Go5L7ktTkgry5oQce38Z/mM4NKTMC78CluKweZXxS+yD8ZPhTHPnMHDsPHHDkd3krcjLSyQqB80lI38xfpe2Potl/ktGqsOWzyt142pB9HW2lzej1QyPeeFTYqDuO+3Tfod8bdK9hLcRKVBrsLzzMMtmqEq8rpmg1IdYewYgfXkMFtU8ZYOfYoFUi+RoUBIPI3JuO2HadxgRlDLyEGsgeJNXimUqQbdulh2w9CqpLAD4JADxGXxnkRwn9Ski59hhiMYFZQmj5pMqgAjk1d1W9rfhinyA8PIC+Z5Y86LTQ+XrseYNjv74SuajzoejRwtjqnzbKkmQOYl1EBjz9x3wSFJyj2UlKKey4UGcZE1OjmOFwLbr5rW5+w57DAJ2086ReNxFD2izXIFZJpaOB7ghSTtbvbC0qVWLwgqqxl2Y12Y8O1QRDlVM4syklFJYfUc8d8FST32EdaMVpCRIsqEaxx0qwqRciMbW6XONy0hKCMO7ab0LJ8qgke0bJcm426W5X7Y24Vk+zMlFNieegCstpG0lQVuDe3rtzxaVXZTgipJPxADDNHTQ08htfw2LL7XPftjxlPxnHbZ6dXzl6HYTPo4FrK2CeKBnsGZL/oOWLQp084TIqVmtyIHNRWltctTCFXkAeV//AIbdcOq1j7Kfk+xxT/fiitHVmoXy7MpIFuXrbAJW8W8JhPll2kGRVOdyMQ9LBLY2F7HV6Y78fh0yruJSCIqTOK2XxDSoxF7J3335+uDU67WmVcMrkx1LwxmUDrITAmq1xr3VfzJJPfDcKyYrOmY/8sSNDG7VY/pdV07gd7/tgimmBIf+VqWZVearTw0YNqUf2/DETydr0cyZBlqQELXvLvqstiG/9e/viqqemBlPEsJieeOhghImqJrk30lTf8MEcl6QVcvZytQsCtapjKg2UNe5JH7YBKUXpoKoyzlHDVuZorla14lckWDHl339bYXq29J9oZhVqRFGZzZq1PE6VMctQG1Mb6VI9/22wJ0KSWgyrTe2hL9+klXQ4kkexJ0dOVwCRgGaaLScpLoqGaV8pqJqKmpKp/IzqzLcEAcrjrbF48G9A4trb7AKZM1jQPLG6kbabElQRzNv2xd0U+y35E10N1mqUTVPTedCfIN7euKzt1FZTIhUcnhjmgzClq95iQxNwJDpHIYTqVGu2ORowS/YutHSQzzaYJqZm7EnYdtsUjfqDyysrRS0hweFKupRjD93YKSbX2Jt+WCf7aP0yr8ZkUT8HV92aNUDgEHzcz2AxV+XRLscAh4Nz/TGIYVMRXy2a+roCfXniafl6a1JFPwm9oAzPgnP6O//AEKTKOS9SRvcdbYXrX8JS1oZjauKKTVUebUEyrVQOIvm8NgCL+569MR8kWWVN/RMakOQwWZEZSeQB1X/AMH0wp+LOXY1KpFdIf8ADvGnEPB+aUvEfDWY5jl+dU1zDU0jtHNF2HKzL3U7HCVfxLqPEloPbeQ4LKZ7e/Yy+2rP8RmTgj4g00GW8dwQmSGZI/Dp85gA8zKP/wAc6i5K7gjcdcfM/wDIf8ZlS/8AyU/v0evsfLxmkvZ6p5ZntJm8CTRSpLGLEi+wGPHODb4t4NyLbWehrUU0qqZaGaMgi4BO1/fFZyljMHkvBL2mVQ8U19M7x1VC0TA2VlkDBv7YUd3Nfq+w6tuS5Logn45NOFZ4K1U5azFdPxGJd1J9nK1TF9R8RfukZeoEioRqWyG1vfEK4fotGzQiPxczBZxFT0Rq4ApbXyv9MG/MqhPx6QbJ8VOJqd0//lxDGwBAafSSD1vb15YF+fW5dEqwpPeRxT/FXPfCEs/BuYaT1jq49/obYK/JT+hep4ym+ngYp8TaieqFNPwtnUDlNYZpYggHvqxeN/J+iv8ArYpZUiyU+eZnWKJKXJ617nmrxsv1IY4mV1N/xBTpxj2OIf464Q/w29zzWVTpHrvgkatX/wBIL5KHt/8AkeR0VUQniPTRtbkWOCN1PeP+wq7qGdJmQpZInt4sDLe53JwLm12yruFLpbJbIrAl09drYn8qJHJ9ELxxK+tWW/I74DJxb0FjOWMELosjcr263xVJ+y0arj2DrTPrJ0ll58+eIx/YX8lJBkLNSoQULC+3XBINLtZFJpTZhWZPl2YOtSIxDUjYslgWHZu+L17WFRfrorb3dSk8PaNe8S5VR0CNJVLVRx8/JEZL9tl3whGhODwbMLlVI6Z104z40+HHDkclXnfE2c8PRoCfFlyes0IOt2EZAHryxtW0qqem0J3NOm1iSPO/4y/D37IfxyqcyzHI/ivwFwxx/ICFzGjkamWpex2qYWVVkHIEizDoce48bfXMF9o83eWlBv6PJ3MskqcvqMwyxqiKuanqJYPGpyTFIVcoWQ9VOkEc9jj6HZ3cpLZ5KpFds+pYKiKFZjC5dhpIba9tt7DBecuWnoDSlD2WSirGpgq1JRWkJuAl+QvcemCqphZkE5J9C7N5UzELBF4Mb6QbaLG/e/v0x1K4eSJxX0U9Mly01DR1VVOko8rLa2/vyt6DDsb9Re2LRt/6H8PCuXjS0dYWVlte5Asb3A/A4N+SpvOAc6csgzcNZedCvUyeOqsAq9R63/y+LRvHF6QGdDPZPScNxU9icxq1iAFgSfx5b3w7LyK7SKqxz0PEo6VTEUq3kTRe1yd/TC8/JJvOAlOxaJxl0tRP4qVroLAAgAEW9MCjePOglS1bXYTo0wokdVGyXNwOl+QvhtXssCFSzXsj8Y04PjVIMhYCwII5d/bFoXz5Io7Fd4CXhqZNI8d4lUAKNN7LzG/Xnzw5+XIH+PH6EVAa6JoCtNLUqJNSgKbbdLDGU62Vhs0YUOJuDMeN89zzJ6PKJcjhiROVkIa3rbrjNlbwVTm3sYnHlHjg16GzOnR45qfQDZVAvuLb2HMnGir2OMJibs6n0BNUz0pZqmIABQRqXcjt/thN3MYvOTQhReMNCmXN3VCVzOKNlJ1Kh3uLEC/Tb98RU8jH7KRtWvQAOJHp1WQ56jRkWYttv6m+AR8rBaZZ2kpBM/FlZIjN/GoZpABdW6j1senTBoeZprLiCfjJNgdRxJJHEjUldHUThtIOvTpt6d/1wpV8zLOmMU7CKW0K5fiEtLLA9QxpnKagVa68t9v1wrW/yCovYan41Z6KvN8XKalc1LUlYxcsAAOe3MXPK5GBU/8AJJe2Fl4hNZwI6v4z5LNFEiQVcdSotIrk+Xa1xa+9icNL/JJehWfiF7GUHxTyOrikFYtRHsGHkIKi/c8yBiz85JrOS0fGJdIBzT4xZTRCB6eA1UMkojuV2UEc7X5YE/NN+i3+vkLF+Js1dVRQZZRRr/MLSK25VevPnc4XqeVkMqz1jA4zT4gV9G1OtBQQkM95b3Nhbddhz69sI1fJzfQWnZrAdR8cxyrLLVzUkbP1aO/TkLC2DUfJSaznYGdmvoV/88iqnhgndVK77NYt9fwwb/Zy+wf4S+jM5vm2YoYqIUsoJJ817DbbcD22wwryo12V/FijCf7wUmlraOtmI3tCdlNuuKutJrZMaSQkRc4qkZaJ62hZn0gqSDa297dexwFzeQpcKHJuKGhEMvEGbU8dlOkM19x1I9sW+Q4MlyrjGDwnHEWaNCxvYOwIA5WHT3vgUngLlPQTRZhxbIkrxVebRIL21Of178vxxVVF0WjTSjktWQ8Q8QVMRhzbOqln6JY3UX9Rz5YNBJgquUtInzAZtUT04hdaiNQGdy9+R5YcpU4Crmv+QjmCireaSFBoYnSF2v15YdpU8rKYu3nY1p+JqWn1KtBDNpIuzAD8MW/ZMJCK4lp4d+J1fklXTZzl1Gcqr6OUVNLPEdRimXcEG2+9wR1BIOxOMy8sPki8jttX+No/RD9nr4ij4lfCngj4tcOE/cswpvDzCiTY0ddHdZ4rf0gOCQDyDDHxHz9m6NVt6Po/jryNWGGdqMs4jjq6VEu0RvyY7oeoOMOnLisD0pY2D5zTLWp4kLKr20kd8BqU87OVw49mvW4iruGJRFUJIKUkg3FwB3N+mF1TY5GUZxHzcQDOad5aNYZ9rFSLg/TqOWJ+JgFFRf8A1K2c5ynL/vML09NSMD/NCgalJ/b8sXjGT9F+H9iKbj7h2WeWlnrYS8QBQvurj/xPfHfDJvo7lhdmteJ/ilQUNN9/yTMKbMEV/DmjW50r1IY7D64NCzqPpAp3CistlCb475DGPvFTnrZfVlvllXVHb/x07g98aNHxNWWuIGPk44AP/wB7DhvJmiNVOuYBGI1QK4bn3G+G4/4vcT/igc/M0/bLflX26vhsskaPxVxLlMhF/wDrKCSWMe8ig/3x3/8AmLuD5Y6B/wCzt6mng7E8I/ag4F4mhh+68WcOZm7Af/q1Whb6xMVcG3phCta3ke09F407ae4PBtWl+KGS1SBkljnU25bH8CMJqtV/5xL/AOuyv1ZaaHirKcwVlgKSFeiEOfw54lXEfcQU7KSDBmuWyFR96RHvyYFTfEuVJ+iPin9BSyU0n/bq09bMLHEKMX/F4K4kvRMkc+ktHOregGKqnJMpKaziSJgtQd5Ap9b4uUbj6J4SPKSjc9yDg9OfsBPPohzOninjABMim3S+DSeHnJa1qST2a8zXIzPcwVU8BNxYE2t6jl3w1RvHF9jVVZeGdVfiX9mb4Tce+O/FPw94crK2YFTW0Uf3aoHqWjtduW5Bxv2Pl5x7eUIVfG05M8/Pi1/w6cy01mb/AAm4nr5pgTMMtzUkhrLySZVG/wD7A9MepsvO6wzDuPESxk6F8Q8E8RcA1xyDjbhjOMgziMeKn3lbpUpexeKQErIt9rg3HbHoaHkIVI/q8swJ2vHsqdLxxl0lVLl75AQEbeUG5fvb2IG/rgMqks4YSNOOBvT0mR1UjCRXSofzarny+x3/AEwaEn2W+JGcnCmVrNHUGV5VAt5jucWcsvJX4hhl2VUTsDLBGgYWG+5IHL3w3SuZxWgUqSzssicM5c6PPGUWTSSNwN/XritS4nJnKmvYlPCjm/iSiohB8thYj374vC5a0yvxL0NafhoCdVWF4kdRby3IHuOXLHSucFuCJZuBy9Qh1hUcA7cj3wCF2+WTviycU/w3jLMYi0hN1BGxuDzw0vLY6BVLJS7B3+GFWDv4gYWIVwAT64G/KPOSfw4paMk+GlaUXxa6VSBYC2qw6b4n/aFPxDa8PDkEREgpCsS879yORtjK/O/se/H/AKBlpKFbLPSsxsbX23HK/vjvycoJGgsGFRQ5JE4aSjjWMXUHte3c78zgDrvsn4RJnXDfDuZkTUrPDGL3UWAG29sK1LiQzC3T7NE8S/CHLc2aWpoKuUT6WA1sSCPUX2wjO8m/sao0Y9tGrZ/gXXxQoYo62uY2WRCx8o9DflhOtd1OkOqlD0hrF8I6OmopjKapJkFlJIIUEX9+nPERu5JbOdunqKNM8XZZX5dDK2X0c9RLH5XeQlVXf+nocW/PZVeMzs0zQZg9YiPKamMLI1lZb6t+l+W+Od+pdnOy49BGbU+bwUKVrUbvE5PhrvpJHrytiVWXeSsqelor0EsksgWoyrwpgpLSDZlb1P8AbB4V4t4yKwoPOx54eZ/w4tTU8UkgsmuQdOd9ueGHNpF/h9MU5LVVUFZ91rqNZmf5Tq31XNzbt/tisKvsDUo4Lt98h+9LTQwfdoX3YLYH22vf9sGdWPstGz1kjqq0UkgihSWri1DUkfmIHrbp0wOrNKLcQlBJpi+KrzaozA0UeR1CZbcyGQbAbev68vxwjb1nJ6JqwSi2bHWLJJqK1NSstWVAVn5A87tbkPTlj0CS47RkSjPln0FQ5RWJEJMvrHpmsA+5sx/b64YpNvGADzkZ0kOZ01O+jMJ3k2DeMxYG2+xPXDMW1rBSUGyWjzyoCx1SiGGVVYFVII08zY9T1waMYv3sq3NawNKDjzMgsc6UUcsDGy3JPlHM7D8BgkaP0TGrjsY0fxBrfHq4KqlT7kb20qdNgNyR3xeVosaYKNcNfiKmkkjFOY4gVUgsPl52J6AHucJzsd5Dq8XRPk3FFFVxzQGEs6jSJAl9T8zy5EdLc8Q6El6OdWMumP4c5o44pvEp/DVbqCTbUCOYB7YbpRa9Ap4Ys/iUAJCmJw7XYBbkfngtGU0UlKHoS1H3SuSpYjQdxeNrEc9reu2+NJPksgOeBJT5hVZUYqeCd2jJN7jVqF+X5czgFXkuiFLJ7Df8PD7WHww+Fvw3+JvC3xT4vyfhOjizJs4plrJgkckJhUP4ZPJyycut9sfIP87puLylk95/j1Rz/XB2m4X+3X9mb4kQ5nmnAfxS4bk+7yOoVpzGxZdymk/K4HT1FuuPIWfjq9ZZUT0d1VVH9ZMt2Q/bn+Amb5bLmFR8TeGsvEKlpo6jXHIB/wCpFyfUfTDlT/H7lbis/wDsJLyFLOOSLbXfHX4P8aZPHXZDxzwhxLEblfuucRI7pa5BLkFSOzDGf/q66eZxwv8AoNU7qHqR0b4U+3b9nfjDig8KcA/Hqhoc/MNRPT1FKq1SwLFJ4ckdbGP+wQ7C1xZtyCRh+x8LOu1hM6v5KFJZkykccfa3494pyTOeHc0yHJcv4xpmaGh4jyWq0QzBW5yU7gqVZeinf0x6u0/xOHLk2YFx/kTa/wDxnWWs+NXxfjj1VtZJXLey6JGQG55gDkPTG9D/ABuit/8A6MmfmK0ntlfh+KHxKzAVDZhn/gjlaNQGG2+o8iPxw5Dw9GPoBU8lNrcv/JjScW5+73qsyauY7hzsfoAMPw8fBLQnO8n9sNk4nzsPtGlSl7MzPbSu29j74t+Is4I+fP8AYRQZvU1FU80scqEEWCsQuDOikgMaqy9BOZZtRxSRy1C00k/NC5F1Pa53v64XlSj1JZGo15r+LCsn+JnE0DMuS8T5xlqqwGimr5Utbpa5AwjU8TbTWHFf+w5S8rXj1L/yXGg+0n8XuGXhkpviLnrBWJKzukw2PqoufrhKf+J2kuoL/wCQ8fN1l28m3sj+398esqljLQ8N8RLGRvPSsjkf+RRzq9bDGbd/4JbSX65THof5NVWmjsDw5/xLM5VYf+cfgxHVCw1zZVXBWB6+SW1+/MY85X/wSUf/APnU/wDfI9S/yWnL+WjsXwx/xFPgtWxR0+a0fxF4bkc6Sz5T46w+raGJI/8AIYxa/wDjV7T6WV/WP/6Ox8hQnuP/AO//AOG98g+1T8E+Jw38G+MHBEs5+WGqmejkVuzRzKpH54WreNuIra2OQqUnpBeffF/iCgjNfkz5XnuTEalq8rkhrgP/AGjDK9vUHGXJVoDapW8tP/ya/H2g/i9NK6ZNk3AGeUwUsHlirICR6hNdsGoVpP8AabWSlayor7NJ8c/8QHifgKnzObN/hz8LuIDRW+9Q0PFbxzRbj/8AFJHe+/bHp7Hw07l5jhf9jCubmnRe2/8A4/8A4adT/iycH1jLHmvwL4jpoTsZqLO6eXSTvydV/wAONlf4XddxkKLz1vnGy7Zb/wASv7O2YBDmuR/FTJJHsQWy6KcDl/Uj/tg8v8Wul/E7/d0pabOs32mftl/Ab4rcE5xwjw1wvxZmGbyTpLl9fmNNDTx5fMGF51sxa5XUCoG99+WNbw3iriEv3MvyF1QcdI83485paKsSuooaSpYEeR9yN+p6Xvj2srTG3s8wrpcsIt1Dx1lscqvmmWQrDquCkl2X3va4wnUpYHvyE1otn/6QOCM1oWlpqSvSRQGDsmmy2vcj6jEcGEUka/fiGN68hBVqtzoJFt/7YhRlkNPGNBp4lqJZQsDqCdiNNxbqTbrg8ExWawWemqM0ljjlkqJFc2JUN5gLchjnRftEFko+K5KVjHOI5dBIFrhj2H64sqC4lW17Gh4lqquRUgplEl9gx3/+YUnR9F6dRD6gzjNKMq9VQXhsCdLX1D1HrhKVDYzGccbZbafjGIbiiVV+UnqPXEfj60WUo9oYxZ3TTp4slBKzE98U+FhPn/o6Tn7ZUkv/AEtTwdk9NOSAy/xDyobDunTsMXpWrl7ASrpCqb7WsdQ8zR5Rk33YOqgrUElvU7enTGtbeLb1kUrXqS5YKnm32o+JpaqJMr4cy2phYBWcTeUHV2t+mD1vEuPsHC9T7BoPtG8cVlO8U3DmR0khDaSs5Onfc8uVrH64zK3j5Ibo3a+yCX40cTz3kgiy+Fj5WtKfP3A7YSVgvv8A8Db8jP0BUX2gONcpSWaTL6KrpXOlSjvzB3G3M74XqWCyXhfv32OoftDZlIsaVfDbGFntZpAvPn0O34YDV8c2tB1e4WRVn3xfoswgmpanhvw1Z7kMwZb2Prci9rfngD8XJ+gsPJtM1bldbleb1DUYyuPLqdR4ljbzeotywH/Tz+hiPl17ZznFLnWdmKlokemghXQDp2N77298Wj4SpkrV8xBrGA2n+HOe1cNDGaP+VEwZpbjWRcX3Iv1w9S8PJNGe/JQyW+p4KqMthqJq6mE7BNiDa2/4csN1vFzWin+xh2Ums4Fq6eSHMPBWaELdVQ+YDr73wJeNmiJeRg1gPp/h5lFXPDWyT1FHIguwCFrgnddPQjApeOqZGYeQhxSH9DwpT0eaFaeENSvZXcRlWAv0HID0xy8bV/6nO+j6Rtel4c4VoD4FHWq8g0xnWunVfnt+GCQsXH0K1bvIzq+GuGpmp6qCpoFdGCldrk9b+56YNNzSxxBwqJ9lqo+BclqisdLU0+onWdX9J5Xv25YHCVRejlxb9Fgl+E+VPBZM0jkYkM1mFhYdF2wZ3DYSUI+jWWb/AAuyKOcCjmXxuTEA9e45YmnXlnSKuCehHN8O8zi0U9NG03mC6hsAtutu98OQumuxCrbS9AdZ8N+I3nplZ4Y6JPM+ldRcW5A98Nq4ZZUEDN8Msxo5WaJ0NISFWNVJIFsWV5OP/QFO22WKn+HLoizK/gSAFr6bbg8v1x077ksMiNtj2C5hwlmNGrmCcvdSAFIJHX/bFFeJBPhKvBwhmn3oTvR1cMWnUztfSxvbpy54ejeRfaF/hBajhzOoJnWkiApjycn+q+5tbDlO5jgWr0HnIPVQZgkUYkheoLbBTyA5WuPrvhnlCWhVuUNnWT470goVy3iUQeDJHE0YaAM07qjbBNXk21c7E7Y8T/klpHPWTf8AB3ck9H32SKXNn+EKZxmGXiGfMM+r8wWQsGMyh1TxLch5kddrX0k2sRjR8FZRlDop5e8bn2dmJ4aqsS1PVFJA3mNtNhvt7Y3VZxisYEVXzsrOd00VDk2c53EYfEpaGrqNSRgXkWFzuSOW3XngN1bx+NtrS/oLSry5JZOpX2XfgVmHwwz3P88jz1Jc3qeGsuEpRCrL4krPpe5OoXjIucYfheM5uMTQ8g5xjmZ3ih4j4wy5Xmm4gC0YjLpFInzMPUdb9cegqWC+jGhct+xrH8TOKnpafxo420kMTJZgDa59bYpHx+jp3uHhMwn4+zZ4ImfWq+LoVh0bqOe43GDUvHvIN3cn/INg4zqYJkl/majsF26d/wBdsM1rRRRX5x9RcZV9SHDyxvfz2Nx5f8/TCSsd5GIXC6HsfElc0xCTREdN9Nutt/TFZ0vQZSXf2BZnLWVEomeFqnlsZPKLi/L8MB/Fj7CKf0LaXMsxyuapj+6IIpPl8M7k2ve+Ihbx5YOnPQRPm89airWao1uNkXdTbDcbeKAc2MoM3khgLQ1AjkC3Cncn6DqScAq0U0TG4eOiy5PxLVuEFSyAG3W9uwGE5Wy9DSlrLLnS8VNTsGN4ySSd+fsT02wnUt8dF4194yWaHitKoiGR6Z5GO8b2cW59b4RnQfYb8mfosWR8TJlNfFW5UzZTUj/81I7Qtq9WQi49DthSvYU5r9kN0bySeUzsBwv8c+OsmYVeT8XSU9eCNEzwozH0Y2s31BvjGq/41bTfJrZqf72qljs0J8VKQfEviPMuK+MZv4tntUU8aqMaJ4lhYAqosFA6Y2bC2jQWImXcXUqjzJmlZfhlkjRskTypqIXSTckBbAj02xvwu3jGTMcMSyIZvhs0KAU0qpEq28rbqMP0vIPGMgHQX0U/Nvh7PdWMzTSqb7LbUevL0weneRUgNSjP10Im4XzyjmtSwNNFrIZWJ59Pr74fU4S22IypTW0hjV8N1sBjkeJXkK6iRsFHax5i+FqsaYxThP2DoslFURwmCaeFGLEqbKQQBy9trYTjTb9B41Gi1rmfDNNCJaiR6WU3sCCSw9D746tSxHSGY1MorHD/ABTorq6KRDUq0v8ALVQAwXne9zvgdvbTzmXQC4ksLZfDxhTI8Ma0sSI99YGx37/2w1K3yUVxge0fEmUSuUaKIsGAPMAbcxtiFZsmVxkMfiOjWYy0UbLJpCk720kbknA52r6Kwr40vQXR8XZh4aRtLNpZvlbkvpheVm0NRqplry/OHqXVnqI45b207C30GFqlBpdBo1V0XTwqpgGVoCLf6sI8GW5s86+LvgDwlxJUPVTceZLlNU0hkbz9e/XlgHxSjtBkoS7NR5n8B+BeFy6RfEChzqOJvEkWM2IueYFxte++GaFaa/oHVoLOEV6PiLhTKkqVyvMYlEIW7ugOnf8A2Iv1xofn8VlicrYmpsykztz/AA+emeIadLGLYjmNvXAZV1JlPixotlfDlOT0lDU5pXU0dSF5EkAdbEdMUlxXYVxfZVK3jGlmiijoZaRadG2eMFgzXtsTzvhWo1nIWEHgq+a8f1WXUcr1lHLURj5Whj3jHbsd/wAsDVeMdDEqTZvT4NcF0fxSojmM1YvhAEFddgO1zfnbFlcZKKg8m6K74J5jkNNJNkGTzZ5WalSNXfQgXuXPM9r4SuLxr+KHKVmpGxsm+GlT/DY2q5jRZkUvKijYtb5T3xa3vnxTkVq2eHhMrWa8M5vlRqZaSolhZSFdjHbUR1uOmHYeRihKVhl7K3PUZvpSCvZn5EXXVqJv3PPceuNqhcRluTFKlthaGFNTzRUMQeMTX031Lz3Atb6c8P069JdiFSnJGEtTDDL91aJKcgksdN7+nrirrU86D04Twg2WgmkikeGd41HnJA2+tsCqSh6OTfsU/wACmQy5g9RUVbqpcApe55i+ATlFILCLyF0XD9XPTtL4NDUVDEu4kvc33G3Q+uBwnT+g3Bkso4lpHMLZdI8Wk6JEkJ8Ie3O3phpuk1tAGpZ7E1PS8TrN95gqKhFDfyh4rXVediTfqTvgDt6LJjUktDKLKuKZiamWvlE3IhG8un6/rhdW9Hlgu6lRLKGJoOMxTytBndShLEqLDl+46Ya/BpMp+RU+wOpqOOKekFNLmDTzXBL/ACkNte/0wKVnB/xZaNWWdgb59xfGsDysgkQAsrJffe+4+mKLxv8AYSVw/SK+/HfGcrOgFPHAOWiIqbAnfc/niY+LTeAP5u8EknHfEOXslSkUE6FT55VuL89iN732wT/SnfmjSH4mcQ10KPXpS1Pif9sIrBfQHnq98Xp+Kx9lfyWA1XHUr1EdJLlVSWv5202G3P6e2CS8el0yZXWFlkdPnk81XLTmFY4lBsgTSUGCRoyXQqqnLo0H9onNVyek+GRdfvMNRU5oJoohdnEcCWt6Ay3354w/MtGz45fRsj4T8H0/CXwd+FGTyVVq2PI4HdDsA8uqUk9B/wBy3/8Ajh/xdbCFL+kpS2bMy/hnLfu7SPUTViA/OXI1X5AfnzxsxrpmbKjh4TNf/GLKsvyn4Wce1VPLURSzZa+VU0bAWkqalhEiepIdvpvyxneVvUqeEO2NB8yH4TcO5HmR4v4ios1iloqn+EwxkIAYUShGqIdGUSNJY9cYHgqqpzcsGz5ahmKWTZcvC4qqcoqJKGFk1i5FjYewvj2cPJQ9o83O0kv4iXMOGqynaKNqWNmUaWF9h6WOCO7i+iitfvsAqMjqokp1MK0hQ7m99Td7WNhy/DEq5+i0bVeweHLKmpY+E0NS2o+YeZXPYfXClWvN9IJGzi3jJ8/D+fPOgZ4zGb3VSQbBf9OEpXU1oN+LFdAdXlWaZempI6wDy+W7AA+/IeuDKvjsNlLQxyrNc1ikVK6llpYdOoOCxGnlcnttbvyxanPl6BVGnvI2FbmVYqaXV4gxIBBFt+3788MfgtrKAuvjQ4pOIlpHUVdFGo/qOk2B9+uLTtcLDKfkIZRZ1lU9QyRTwpK12Ebixtbp6csefubqcJcUh+nTjJZRCMwy1JVqVRI3KaNj5AbbH354epRnJdFsxWskEmZtJK8j0s0406Roa5Te45ncbfjhn8PK2C5pPKHmVZvl0FTHPLBPZCeZPI8x+eFalgy35KNvZTxzwfLLDl81FLB5RdtV15e/PGbUsJLpB/kXaH0fEnBX3kTQzLC5NlYnY9MK/DJaaCwqRwPK/iLhKpiWmGaxCoZSAt7Mdu2BTpvGkGjJZKBU1mXQOpFQQVksWckDT1+pwanTafQCc4jSLO+G5YtMmYpBbmb6jbvYY6cXnRMeyOSDIKiWWV87g0MLi7bnC6nJPBdKL9gxhyiKRTHmNM0ZtdiQ1t+p/D8sOKpMC0lsruY5llEUrxwyw1Z5lVG56fTvg8Zyx0VdSJDV09E8ZNPHCXI1BV36czjVptiUpLIpOXZZXyNG9Cssli3kXzHt/wDOWHoqKWWAnNOOiVOGsupVW9LCpA1bb4FVuY9I6nSclghTh7LXeVXhbxGuWbc26YpRuVHsu7Yxbgaim0yrPNT2Fjp3H4dO2GJ3i9EfE/ono+EDAD4Mk8se58zWIPTbFVdwSy3sj8aT2NYOGK2FEjYPIvyrdvw2OKO/hLsvChNEgyPMzK3hwPG9tQIvcD1PbC9S5pv/AKF3Ca2h7/B8/suppOW38w8sLfNR+i0XVwdDuE6jhmCJajMuHJMxZSG1VL21H27YafhZtZF4eWiO6n4s8C0FR9xHwzyquZfKl0UB7nqQR177YyrjxNWO0OR8hFmD/ETIszg/g2S/B/IKCllv4gDBgvIkXI2uedjvhePjKr7GVdRMqN8rplMVPwhkOSeIxPlAL36257e+GFYTWyzrxNbZ/wAN8Q53Xu7xZbPGrqi6QW29drXthapaVAnNFgyj4fRxU0VO0OUqQQZN9NnB+Xn9cUVm+OGyvyfRvD4f/Zsqvi/W/wAASiDxppnlKKViKDddbdQcAlbJbkxhSbO83wg+yjV/DfN8voJ8j4eqeGFV5KilpGkL2K21kWBGghfpinOK0i3KXo7UU/wF4NzygqnyWu4koIwgWOKOcSBH/wDFWFzuOWM6c4p4CLmjRPFPwa+JeU1ISjo6LNVJskp/klrm66gdr9CeV8MRp02s6Lcn7Ot3GVRxvwz96yzizgnO8okXUGWSicg2BOzKCpBsNwbb4t8Ec/qRKsl2aNzXjmhmRFWgBF9iFJFuvS9x2w1SoyXbATqR7KpmPGcVS9LFSmSKbTqPlKkC5uTfrtywRxa2LycWcpntK7QKjyTVRbdnvyt2wSPLBDlHoY1fF1Tlsbu7M8aixVVPnHXYDp64PSjJvAGaiBf865nHMvgwwSwst7tuOXI9uuGZ2z6RPyL0F/8APE65pHG1NUiURLp8GPWT6Ko59MWVu12V5s3RF8OPjlnFNFWQfDniSkpnvIHqnjp3ItcAKxvb8yO2Ep1IptZLxlJ9Fpyb4D/G6WCrqI+G2kCEARSVSK7g8yAOQF8BqVoreRiEW9MB40+HHxZ4KjWfMOG6epjMTSWpJ/GkW1tigXY7nfHULiMuuylxQKTwlkHxV4+aODhjgjP8yhaRkEgpzFGCO8jgKOuHY3KXbE3RO1vAH2ReM84qJajjriHL8ppWjVhS0KtLN4vVXZrAWHUdcJ3Hk4x2h+FrKXSNh8V/ZGyOvpg3C+c5nk0sEREorU8aOQ8lYW817XvY4Ro+c/sZl42aWzSsf2T+JZsxpaRKnK6ikdSs0+ggwEG1j/qB589uWNaHnUllGbLxr5YaNhP9gr73HllRlfFuWz5fIh+8xyUzCWKTcWUg6SORG3LAqv8Alah7Cx8JJ9RKzm32CuJOH6AVGS8T5bPVG7BaqlKIep0SAnfbrii/ypSeJPJeHh6iWZHX3Pvgl8QckzqTIM04RzSGYvpSZYi0E1+qzDy/j16Y1aPlaczPq2Tzhg8H2fON1pabM4o8voamWR4tNZXAeJY2NrA78udr4ir5WEdIvTtdYR0o+0V8P/iFP8VPhnwtnfC1dw5k0dBm+ZUlbPIpjzMeJBDIyqp1LGLxgMdz0HXHmfLeSgzY8fZSKVlEH23Mw+GVJXcJ8B5rVyx0+mCoThaFoaenDHwRGzyDxj4SqxbkfE74StPKOKwMXXjIvZ09zr7V/wBuLhTiODgzifg/hHhvNopxaTMuFnpzVRb7sS2ix6ad8atPyT9MzKloovQ2oPi/8Vvi3nNHT8Q5ZkdZX0lJUwZbSZdSSRUqzuovUSBns8kZVSLjYDGL5G9qSaz1k2rHx0XmTeDtR9imLiPKfg9UZTWwz5jnacUZhDU6AzFVVUUaGubofMwI2BJ9cen8SoOG3syfLVnyxg77Dh3iygyOXOKvJc3paHTr8doWACE7G/Ppf0xq06tunxysma20s4KlV1+hvEE9bcsLFhe5/TGjC2yuS6Znu5edk656I9Yn8SsNr20kkX726Yct6DWdFJXCfQ54UoeIOK81y/hzhTh6CtrZJvDZ2bRBTkgm8khFlG2Fa95CGmhqlSnI28nwQ+J0E8UH8FytHMLvqLyMtl52a1gew7WxjS8hScthvxKn0akr8yrqCqnymvyWWkqo2KPBUWDCx52/fkca9tCNVfoKXKqUxeucZZZ4ZKaOOYjzISLkb7W9caVO3xnArKu32DVOcUWn/p8uG4sN9TDfmMS3JawC0DzNSzRmVqPxpOQGrvsThxUljIGopeiJsiyCqFJL9zDSKvlBuSO9z1wt+FTy3P2XjUqRWETf8oCSmtLEsURX+Wwfb2I/bB42msizrVMkR4Mq4om+61NQ1xYrYKR2segxbEUGhOp2ySLhDMYEhtVLK9rqHY3B7asBqyp+wnySOJOEKyOeKY1iRrqXUFLbkDexwFRgvQaFSbBM34eqpJ4mhllEkZOhFY6N+dx1GCfFCUegf5ck8MFGX5pRztMK1xMASDYkqdv74Qn4+EmOU71sfzUefNRGTMKlmYAaS+o6h7e+LxsEvol3CfZX8to80ZqtXh+7gOSrb+ce2IdjF/8A1AvyWXnK8hq6qC71uX0m1ryNfUPQXvherbQhriEp3j6LMOFZDTRTzZ7FKD5v5fNSTYEjrytY4znOMX0PQqLG2cxcMpCB4NQsxAJBJviyu0tYCKly2gv+AZwiJNHFIYGNwWFj2PuMFp14MXdFsISgzdmE6llmA0hmT5ugGCyqJvK6AqDi8YInjIlXx2cldQKyJtz33wD4E3sZdRJaIanM5B5Y4Aq6tio5jsMS7J+iFWQR/wAwy5eRJPklVOt2ZQNgv06+mFalBx9hYVci9eMa6aaGQZPPSQrZm1jVb8B/8xn1I5Y0paLdlvFyXIbUJTuNaHcYCrf/ANJzkvYTDxE8k8niS0wQveyixPt/bFlaP6Oi0WaDjChiTRLND4oPmsLi/p6YsrGX0TiP0dVW+zzmumGaPNKuEbkkgWJv1/LG7Pzs5dmL/qYroT//AKAnhaYyZg+YVDN8pgC6j/5bfhbbCVbyuVjGQkfHLOGX3IvgI9HFGFJglYeJum4v1v12wuvJtLGB+HjcLQdWfZ5yupqliM9fU17uoVYmv4vfluSduWD/AO04rZR2qO4nwx/4frZnLluaceR1uW5U7I33JSRJOttmkPQcthY4zrzz8FHEUPUPHyltI7z8P/Zm+EnBuU00U3DXDFLlkUlhJPSRamPYswJJ3748zLzc5aSNaj4pJcpAUXDeS09TW1PDWVRpTSSeGDFTiLy8gR1AAGGFdzcf2KO24vRY6LJKGlocwrvvMsGYCLw/KSbgkAjta344WlWeRiFssZZW8rWryysi+4iWrckAIZNJfe9sXq1MLYKFvvJtjLqmLiCCSVKHRJG9wmxJHUKe4PPGTO5aeDRVtF9oHzbhbKaqGOQxTOoTT4bIrpH6aCNO+L0b9p6KVvGQaOlPxL+xxwbxxPVcQ5NQxcP10stpDRL4SSsvPVFYoCf9S2J6jHorXymv2Mi58dLeDQGe/YZr1SSLh586fNHsY0nQSQSAjcF1syc/m6dsaP8AtaYi7CX0I8r/AOH78SKmupRmmdcH5CZQ+kUtQawnSd7qlrW7Y5eYpJPJMbOXSRv/ACT/AIcGWV2W1Eef8fZ9/wAwjU3ixU8MdIyrGWC6WDHUeQueZxn1fNRjL9RqHiqj9Faz3/h/8NZFSQ1H8QzPiymMaCeKKbw2DtzDqANgdiU5e2NCl53KFJ+OknnBfvhf8EuGfhRPmVTw5woEzadQWmlRqiUKv9CMw2H7YFW8hyLQtmb/AIRVVtIqxUc/jaSHNiNR779vTGbJrvI7GlrBhBNmlIlbVTZZWRknw2mVCwJtyuBz3G2AzmsjdKk09jRaaol0z1FFWw09wS5ic6R06Yop4emXnbxkySKnSKM1slNWxxqNhI3hqnUt6jHO6wR+Gi75Hk2dvTrVZXSQFSCynxCA/exIN8Y97VWexuhRSDnrq0ypR1eRSUyjd9Ljz+oNtxhVTZp8Y42IM1ykZlFNUVGXtRMXY2j+bSe+nniHNglRjnIJBxUvBnD+ZwV9blUXDS1CVE9RWskLURCFbNM5AWIi5N+oGAVHll/jR5P/AGvP+KL8Q+Gqz/l77M/CXCPEPDEWZnJqjOKiCWszStcDzS0NGE8NYFYFVkbWWIuFtY4pb0qk3+ryXlJU1iojqV8Nf+NNn3CMs3CP2iPgnxPxEYqwxJmWXwx5bmMUYO4qMunCxySKNw0ZXV1Avjd+OtFaMmpK3n+yib6rv+Kd9hrih6zxuIPibwHWxRQy0lPmXBk8gr3aSzreB2Cui+e/I2PbGfcXtzT6WTVtfF0KkM8kjrtB8dan7Q/E3xC+KtJwq0fwzyOJuGuFjUQyeKtCrtVyVs6WvG8rog0nYKijCt1GUlyl2TaUIRk09m7/ALK32qajiJOEPs3/ABO+H3EvAnGVNlgHDGcT0kn3HiehuzQjUQohqDGDp3KyaDbSRY6dpRljkzMvoRzhHohkPw54f4gi+6V9BSVYsXVjCGNzzIv0t1xe6un1EFStE9kWY/Yx+GWf1H3ybJKSriVVJRYFUEm+xsNx3xny8hxQ4rWKRsbLPs2cAcNZEKHIuGspyWSEAQrDEI42sNxYDme/PfDlDzUksIBU8ZCRsnh3hLh9IoMrfKaCtmKKJY5UEgK821BtretrfXBY+TqqWcky8bBxwdIvip9ijiXMviFWVPw9/hlHwZULHVv96lKGglYnxIYoxfWgNmG4PmtbbHq/F/5LGCxLswbzwXLaHWR/YPzijanzvMeLMjzjLnB/6FqV0Y2NiHIbpz5b4mv/AJft8QdP/G84yd0ODvhjlOR0dFQT5Zk9DlsA1qtPSBUay2u1tz7m5x5u887Oo28mxb+JjHTNmRZDw791kpEjjLOCrKT/AE9tuuMyHkKnLOTQnY0nHGDoP9qj4NjMqvIs4y3JK2vEUZpZfuOlJYd7hmv86EbAdDj2HhvLzTyzzHlPHQejo78R/gZxX8Pq2KsbLGz/ACSaNZoa6nhIMKOTZZ03MbDkeY9se5tfPxPM1vFvKwadqaA0emomoJMuV2BaRgyqRyAuduuD1PJqbWDlY4WWZ0tPBqXUs+i5eSz3uOzctsHp3jF6lHj0HtlkLJ4lPUBSFC7G23bba/L/AA4DVvePaCU7Ry7IFoq6OS61DKqlbWHyn2vb0xT/AGksZwHfjor2M6V86jSWRZY5ZAvlOm17nkfwwKV1yCfBhEC5rxelQjvS07QhtiisQBfoOhtbFIt5yV4L6HxzOqniQ1EMiaTqK2vqGNChSXbEK089EJrEmKeNCzA3a+gjSt72/wDvfD7UUhONNuWfQJWZtAfEWCmjEZ8tj81udxhWc94GZ9kC5hJOI1YPqUnSSeW231xanJNFT6krKerrn8Wvlp6ckqo1ErccyRbc4z693PH6oapUIPpmzMh4Y4az3NYMvj44y2GQRfNUAJck3+Y9fTGbV8rWgto0I2S9GzuIvgXleRUT1X/6R+GqiMoHDtVAsxO4sB6nCP8At5y04hI2fHZoqqSoy6aKmps7pKthceIst9IHPmTjSt5xmsyQGtKa6YqquO81p5oqCWtqJYUvGLkBAefIDGnQ8ZQkuWDNqXlT6IpOOq8oCtRUhVvv1BG3I4a/BgDjdSx+wNJxXmr/APalMwJ1nbr2vzvi0fHwbKO6b6BKLPKpg4rHlMpYEN4ZQIOgPc4ZjaRXQWN20tlnpON4Vj0tK7aNiJBdV9cY1/Ycxu3vUnh/+B1kfxTyZo/DnyqnrQhbdUNr8htff3xhPxFTOjTd1GPbH7/EThjMPPBw9JA3h2UagAD363Ppi8PE1VllXeU/YRTZ/wAKTKTVwLSz2CqqC5t3Pffti/4daPQCVzSYoqX4PEpK17Rgi5CRGwOLfj3Byr0//rO5+c8ESUlJlxhz3MEM4cSgJHIrNa66lAuFHK/fHl/nNv4kWLJvgfDXZNS5g1I7VksRYTk2MbDkwHW5wtUrbC06Weiz5F9nLNM4rSxzJY8uXQ0kdWhYudtWkrsQbbA4E7ynFZbGY2E5Hbf4XfBfg7hasTN58sy+TOihiE/hgGIHmqC3lOMy78mpdMdp2CX8i3/EvimLhI5dlVAqPmE9M1TLMVDfd4idKgJY+Y6WIv0xm0nUqLl6NKMeOoljyHgLL89o8vraiatdiqzAyHUy3Fwd+XPcW2x0pKIJQlJZLLN8PMtgpvAandiB/wBwczv1wOV/JaTwEhS+ykZt8LaeSRXonqaF7ksqfKb89jfB6d/L7OlbplDrvhrWUAfw0Wsl52LWVut9+uLyu1LspGg0ZZXlefZZLKk2RMpUEx3cAEnpcH062vgEnHGQ8YfZd6TJ88qUjesy5YoibhQ62X3PU+uA80WlHJd8q4T8NgXp441ALEWFjfv64FUr/TLRiuhvFw+iSRCERQm4JBtuR09sBlcSQR0kWbLeE8sptcqUFLDKzapGIHzdTe230xyrNo74xHndOs0k+XUlJGkWpSZud2H+n98WpsFKOO2Vh+EKbMQkctLHHEGuT69SPW22G1ecdJ7IlFPTMG+H+XxIv/TxFAdtS7W98T/sJ/YP4IhNLwFlMcZ8OFA67kgAkH2+uKfmy+yVarvA8i4Zy6KmE4oI9L8yI7au+BO6l6LKil2gePhekgQuKdWRybgnaxHIr+OI/Il7O+JejUvHPC+VVEEwkpPvQHmMdvmttpI5HbocEV20V/GYZkGZ0ssUVCkKxQxoF8PSAqWFvLgNeo5dh6cEG1uXirWINRtIgbyOByPY2wm67Q5wRf8AKuF6Fssp6tqVwXFmB+aMjf8ADESrtorKCwVXjz4HcCfEiipsr4x4Xy/iHKkrErRRVcWuF5VHlaWM7SAE3Ctdb72xTmgZ1IH2K/s1fDzOqWr4e+CfDVFxUKuSrirPB8QRSMTdoy7NosSTYCy2sMM297KHSwVq03U72Jfjv9jb4M/GrgOTKPiXwzLn8aypUx1uhDV00oNtSyEX025qbgjph9+UqN7kJOwUdHkb8TP+D/wLledU+ZcFJS1vDLvdvumXE19MQb6ZEMhjaM2FnAHPcHlhinezfs6dtrSOcw+xs/EsWXcEZV8R+KODOHakyUmZ0EdNFEaxWdW8JHTSYmuNIJDWF8Vm1J/s8nRi1/HR6c8GfBZ8loslyvOadazJqOOnjpY5HLgGnRVjJPIFStwQBcknri8vJcY4WCqtOTybjoMjylc0pnyohZVlsyINPv78ztjPnWysodhRUUbcy2iWnWYRTaJbC4OwXCMlsIUvP88zGg+8UMFFTVCswt5zYDnq/b8cFpRkjpJ4BKFkzCbLq5YJMuzURpFIYhsbd+6mww7zYuX6jSCrEpnl+51JOorewJI5r+GBSm1JtBOOUtjWiyTP4zM+XyUkyHYNJ1UdbAbE4FLDecF+OsBtRTZpFl2mvpIqSZtQYoOg79cVUUQ0sFEEmZ1+dU0GU0FUzQRh5tUfhx37An5j/fDVP0BAs/4PTi6tgzh6hMnq0jeklKy2Z0J6g7XvyPTD1G4dPoXrW8Zr+xFmXwu++gVstRVLmSwfdPHDBtUYPJl5ML9++G4+SnjAqrDDy1o6x/E74DcU8RcQ1dLl+R8CxZJNBHopUjaFY2UAMbeYlmI1k3tvtbGz43yCjtyM3yNpyf6HXOL7JWZUVYfvKy1MPi3WKmYMy3FzpDA+2/bHoKfnI+zBlZ4/kWZvs98FQZHmGT5hw7nGU522pqbNHnJdGFrFgnl09NJ39cDfkpSlnJKt+K0deM2+E/EfDk1RFUS5G0KxtMJmzBQkvUAC2xI3HqcMRvmyOOezWVRXQSav+mnicqAwFtjbaxHM4fpyk9oXn0CfxHTCqg1ML8jdxsfr0w5Tnj+QEFqM2ZJyQkssOgbqwDEdQMMKTXQoqaB462oJUAVKpuSGXUWJ9fS498RKq/bLa5YwHS01TMytHD4pBvZhuNr8hjpVsrDLxhhZwSmKr8IfeaUxkrYove3S3LnjqFdZwBlbuW4g8OXI0MlPFQSounZy1jvueXX++GlUigfxTCKSggjaJfubaQdyRq2HLbFKqpz00M0+UVtjQwM3i2jRBr0FtN7j/DheNpGLzjQX5pNYFsmW3kbwaWFSAeQIJ26DqcMxSWsA5pvshOTwt4hlopHYgkte1wAOvfnh6jHisIznDKI6fLYo6oSmnm8NGCCMnZz39PbvhtJfYGUWlpDJKOnEupIETXvvf8b9T0xWU0vYGEZZ6JBS0y1U1PJTyxrvdjuD1stvrv0wlUU2/wBWaFOSXZF/AsqlnaVpZPDOo3BJUE9DhedWqgkeDeSaj4WyKnkYLPMVEgbURYnbsMVV1P2gsqMZM2Fwx8PfhzPmFJU1ubVVM6jYpIdL7bkqTbGXceUrZxFYGaVvDo2UPhz8IpalRNndW6JfS+jzAXvyBOM2XkrjKGHZU8bD04B+BcYIGeVL3N77rf6XxP8AsKwH8Ogd+argGi4Rzeirj8ROFeJ46tAaUUdHMxvz0yPyU2ubG2PEQvpSjjGD2Ss4Q2jbWS53kEC0tBPTzuW2QxUzEXHUMbWGEq9OedseotYwbAjzGoUxJleSClTTYmoFpFb0A2I9zhONPL/ZjdSeFlCRsy41FTUrQNl1PUAKzQmDUGQHdgxIs5wT8aH2B+Zh+U8FT1Ob1Gc5xFLU5jIQxqJHYk+mm9tvyxzqqEeMeiyi5fyOytAIKSCOnWMlxbUe+MqfYWEFFYR9PmKNKKYMX25FuX49MUDQjkngUvqbSxA39sRLotiOSetyaKsjVzEQQAosP6ep364rJfrguVuTJqSip3jlaSoW+rWx1N9TisZYWDj6Mo6eEserSdIY22/y+LKoiso5Do6mGnURSyIqqSCeW/tis6ySZVQaY0oYos1q/BVAVQqWJHXne/4YXhU5dBB1xIs2V5HLUUaOziRI28PmA3vhuHRVyXRUKDLWjiZ3qA8hZfKxuxutywt05jFjuaHiUyKoRFJXmNgN8Q3jZzaekFvRRTr5kCEEWJF9+2BTaZTgzkZcsaghIwNrgdf8tjuDCkywRrFYIdK+vInEp40yHHIBVwRRJ4mljtyHX1tjnPOiFFI01xWsELGp0IFUkstjZz0JGJp70WNccH0AnziQ+OL+IXIPVb74an0LnZTLckh8ARBSdbhoxbt2wjV3tDFOOUN1lhpUkiSFCQTsBhKdTjLMS8YZK1mOaVsdfM0UQkgijBQE7OCNww74pJzlvAeMYorT1ArpkmzSFYwl7Am2x6exw5CLRSUcfxCEFMlDJEplqpAD4kZP+pjyPXa2CqOQLz/yNTcRcPwDMxIkEYjaLSjAXWQ33v6jYYtGLRADV8D0GY0lKtRRUocDULwqPN0a/MkYn55Lo4q2YcPcR0FP/wD0v7/SavDdIHJZN7auXa2+J4I4FyLhakhrIKg0tbDX9PGZvJbc3B64njrBw9rKTOD4lovJY6jfcHva/bHUaTkyspYKRW5dUymNqklvJfX0XfbGpTiksC0pYBcozA5ZmIy6pjTQwLeIoHy3sNXYHvgc+iylk2TVikmiJjkhES35HketjhOfYePQRkGdTUVUkYlZ4SQt2JI+u+B1IMlSTNwSD768cgeKQhNo1BItbfrzwF67JK5UZMixhFmilVlDr00bbBh7jBadZnGr6inFFWMsyu0esgm1/rb22w7BOWwM+y50aRyqpF3YDZrnze/rik3x7IUW+gfMKGGQNGUaOQhSrdARzBv9cRGpvRLh9mts9jy9ZKdgHeoUnyi4ubf6u2NKhUYjXppmhOO80qMig+7wJor6kgxJbXGqXPzqeY798ejsk28nnrqPHs6dcfcFZlxXQrDR5hWUMFCqsfCpi0MxJHkdulzexGwPpj0lrVpp5kZNWLl0aVH2dfiHX5LUZvw5StxFUxKzrCyNEJwPmROmr9bYen5GmtpC3408lLzL4YfE/hnLZc74v+GXG+UZbHYTVLU/iww32u5jvYep2xyv6cuyfhkIKHhqLODDWZVmsNXAfL8w6/Xb3w3TmmU4xLRD8M5oJNVfm1NE+wCtLsthYaQDy+uLymk9gp0Y50SL8OP56NFxFTQyndVViQe++Lckt4OhR3oi/wCS6qlkj/8A420iXJFri3Q475IfQbgzhsgzYLIKTM4WAsFZx8x7kDcg+uOxEoQJl+dQEwmtR7C4bfc2/wB8WUuK0UmjB80zajil1UlNMQNNzfl/vzx0bnYCVJthkHEVUuonJ1mjXzPZdTEdAuK1JvthoU4oaS5tRyTxyy5TUFAmpQbak7/XAPyJrph/hiD1lRw7UN4VLQ1iVunnsNLX3J53xRXVTlyZLprGBGrOGHiyGOIjXZgLKSen4Y0KV+umhatQ0CtnCUNWkJiSSY+ZLrct6+2GHdxawkD/ABcocw59THwmqst0SEHXZbixN+Q9PwwjOcgtOklHDGj5nkVZFOJFlhjA20m1zfYd8DVT0FjT0fUWYZMqaIfGksvhiwO57ewxE6mEFisDWLO8ljfS9Q0ZA21gmxGFJ1t9F2mgscQ8PyDUKw363a2/p6YrzYNcj2ZyYUmaRCeeXXCjjw1f5QLAdrjtjwdXENo9rSNlPkEE/g/eaFZplYJGFF/DHPynGVUuJPZoRpLsuxhp6WBHaKYQqALFb6bbWvzOFnUeQnFdANRVZetTTVPhpLpsmwBP4dcQRwQ8oc/yqliWOomcWvZTEbk9jb3G+FnTk+yyikFf8zVVRZaemjjNvmbc26WGI+Fl1j2KvvxlneRqnVbY73ufTHfCy3JLounCWex1Ebid1DA6WuDyGOdFpZK8t5NhnM6d1EV9BYbW6DvhX9iebKfn3j1JpqKlkhlq55lgiRSBqJPfFeDLp6yyr0slW1Q1NFL/AC4juQ4bWRcE7eoOIlGRYlzHIxPKkmomvkAXUSeQ5m2K5RxuXIaGKiooIvIHCgNbcMbb74k4B4uq0OSMrRqWaoi0jsQb3waHRXgirZbJY+K0sUuq5AP7j3GLFJxwFrU2fVrW4F72Nre+BSk88SIdmf8AGoLoiqJHFvpfFuCDBQr3naOPWrKRe1+mLnGdTVxRjWnhh9JFidunPA5Reco4rGY5x4TSKH1uNr/039MRGLzsrLo1HxNmUdZT1kM8/iLIui+w0H0/vg9KCWynNlR4PzulybNljknicA+WQW1RWPUeowevCWMoiMcs7CUfF+WrSU81TXJRU2oRqz7C55cu/fGRJSz0FUBdmnF9NRLIYzSMxJ/mqpaynsf9sUkpPSWCRLBxLl0yrLUVUciGwa6c/wAMFgml+zOI3r4K/wDlpSssYcqhc28ve3bBuDL82NaV4ZB4YcQkHSdtybdccpNaIlLIfJkUdXqEgXyjTuOXtjubKkD5RDS6Jm0CRNhc7bnb9MAm/RwszGmq62qgjDx08KsWcKo1P158/pjubJSyslqi4epBTieSFf8A2vc7n1wSFX0VTyimZ7w4sMxnp0LsPzB798M06i9HSjlGsszyXxgykrE4NgStvD374PB5E6i2VnLaVIq5aaaCEXQJrZOYvfBp9F4xwXat4eoaqmUokMDhjbwhyJ/zrhWT/bIRSeMC6PhJHVpVMkVRaw03830xzeVllqY1oMq8BNErTwPyDLJ89u/thea2ENmcPZToMFUY4qmw8wlGoMLEbj6nEyppnAfEPA8c8T1VII451YMAVJBPbbBYTUdFeKeys0+SmG7lDBJexA6H0P44hyT2iVFLoYVOWg00iyR+IRyJPX/7iye9kT6NRZpkssxqDNGxkvcKo5HqMO06yXQnUiac4+4Z/iuW0sctPMZFmURMVNluD5TbfTcDGzaXeNszLi256GdP8MAuX5e+fZb4pgjDxot/DBP+mxGr2PXBJ+VXSA0vGSSMKdJ0aWhoaVo6fVZYFX5Bbb6874WV3l7eg8bJJlhoOEM7jpYpNTxK1naO1td+Xl67E7db4u7/AI9F3ZxfaOpHxd+wtS8TZ3LxL8K0oeGamaZ2zDLWZY4mcjaSLoPVBtjf8f5+FNYmZVbw82azn+x1XUlOsFVxdxdl1airFMJKOFnjkA3KgkWX9QOeH4f5DFvKEpeIkls1Bm/2XePsrnpnj45yrM6B2KyKlE4eNRfzMNVunIHGlS8xCSwxL8ScXkJm+zhxhDT1FXT8Z0WaRInijRSspdexBcW2/bBf9rSO+JhlP8AuJZckqc2j4my1l0NKEip2Utb5hck2IHfAXdwziJHwyXZr2L4c8eVMtYlDBQZgqQGSmVKoeLUAc1VG/qtva+D1qiUdFuCZT854az/hqaGPiCgzfLKh4hIFmisCpO3m3H54WhJy67IcUgBaqGhkRnqZ6HULlnTmvTnhurCpgnETOvzGOO2jO6Woew/lFRck8+XvhWpyj2TwRhl1HT17FpsxiZ22sG0C3/tz/DHUqsisofQf/AopqllE0qINja21vTDkJeyODJW4ErZ5fFpJo5rHS7bXHTY3w5CcPYhVUs4J5uG81jDeJFHqDFPMACN7X9rY6c4heEgKp4Tq0LPoKgXWxOnWbbX7DAKlVYyGS1gjp+FqnSqTK4CEsoItbe39sZ8qrYSCTDqjK4mEK1WWza0U3ewPrsfpjoVmtMtNeym1WS09RKZIctr2SwF7ld/bBfniCPcqm4fzikmebLp6hHBBBU7Obdu2PCTfNHrqSwtmzsk45zX+VS12V07VqqArrKQDba5HQ4yKtOOcD0KqwiwU/FebZg38PzFatoYD/KVbFVBNza3rgDp4eRpSTLPTJDVGV1cqS2rS3zYq5JdlhvT5QfFYM8ci81AWzAdRbmcR8kfs4p3FHEeW5PFIsNTGa6+kQoQ0p67qD+uC0oObwik5YRrWTP8APZop2pIayCFVLFlW+iPqdthz9MPwtYp7ElWk3gr9C/EBnWuoq/MUlFwGE5BbfrvY2vyxf4IF+bNgrnvG33CYVPElZUT8itlUjbY3HQdsIVbeOchfn/oovFPxD4l4arcjqcvq83zbMJGCx001SZFiFhqYvbnq3HYbYLTsoz2gFS8cfRZcs+J3EirT1dTk60dZydoVLXFydwduvPHVPGr0glO7ftFkg+OOYQ6I6vK6KR/mQKSjKb3t13OF5eJk+kEV2ui5UP2jaRlVKjhuuifSbBZk8x3te/S+F6viqv2W+eH2VTiv4w8T8QGKbJKWLKqRLEw1UniHXbmCu1sdDxcu2yZ3axoTZV8UeMIniGYUWSz01j5qZHRz63JI/LB5Wij7B066k8Fvg+ITTRgz02ZQvfWSUsoUc7W2tgEqKawHUsjmL4gZXFArtFKxI52ZiTf0HLAvxkv4kjCX4m0tFA0v8Nq5WHnFkIvt3tvjvxkF5oQzfEyaWXwvulYsr7hEgYge52xMbdI7mgs5lm+ZJeCnakgt5tZB5jbbpi3w42VlNNYEdVw7NLMXq6p3VtwqoLXt27YYU0mUJKP4e0LRCSdQ8Uo2ZAQVPqT+mLzksHFPzrgKoy+SeTK5azRuTGJWKt0uLnbAouDf7IBUhvKNacRw5zldDNItZWU88MiqwclluTvqt0xo0aNN/wBAJVJrRb+CeJErZVy3MKbwKsWGpb2c87gn3wC5tktoJRrNvC7N6UkdVIvhHQARbde2MhwaH+aGdDpimQeKri9rht0I33wvPsubGovvFbrmklMt2s0jb6ycVOMmow6SQuviDv23xxxXJfEolqFeOIkglGItpseuAJZIgsLDPk4ry1ZtFRNJTx87lSRuOwxE6OS8pZC0zrKsxiKmUmUEruttQHLDVFvGGUmslOzzLw6loUVbA7HrhiPYPgzV+bRwCnEoYx1CDyMvb398PFB/wvUGrlSKTS8QAa7HlgFZM42NHSEKfCV3gsdzvbfbCOUpMJDtlZrGkFXHRogklID39D2xftBDanCbNIDE6BbcweuF+W8HF4nole0SRI9xbSRtixxT8xyqFKmJwqxgN5ltyxWUsHEf8Kg0uTGoOw2F+mLqWNnN42UbiHI0VvFipBIRqJ0j5sH/ACGdGX0U18so5lKSgIzFbHTyI5b4LTrNA3SRxnGVRZlHT5VOKiF9Ia6m1jbY/wC2KfOk9kOn9FjyXIMsFpKjLKGGsNKkBlp00maRRbxXBJ856sOdhitW8lHo5U3kcZBlfjZtmMUsDGNH8p6HsduvXC352ey/BDWv4DjeoaujmrDC+oTQ2AD+qm3lOL/kspwZr3irgGEzy1NMr1NMwCr4i7qPTfDdG4+yrpNms84+HGSzQzQVDTUMt1KSRAHmOv8AtjUjfyxhC1WyWMs0jxZwDLSELcZjF4gKtGoR/lP5kdDjWtrhyWzGuLZp6NYVnA3heK3DeZ1EU8gtNTug+awN2Q7E7X9cbFO7MypRKpw1wzmfC9ZNPmGUNPRCrMsdRBf+SGuSuk76RyGGZXGY6AqEcYZsaryDhDjWvp80oly6tm+6rSqY2Dh167H5T5rEW6YXhcyXWgkrdY0dbfip8Es7yKtM9Hk9Nm+UVkbIqVACGMpchUJ5HfYj2x6Gx8tGSxU2ZVa1z0JOAPsn5RxFl0FfxblVRTVhDuiUriJl5bOTvbpblvgV55KCX6hrejLouOa/Zc+HHDVv4pwRxTUiV7wVcUxnigA/pcDYfXGVG/TeR90mka8qvs68HSVFRV0tTn3DV7aUkQqsgXqr6j6dMP0vIy97FuOdFQzD7M3HBqKqfhTi5K+niCyaBKC+53A1W1N6j9sHXkv6ASoLOCpT/Cj475bPDDJJSVL6W8P7xC3nPe63Bvgk7qEiXan0vCXxooIZKmq4Skr40QSPJSp4yqvViBe1jtbHQdPO2Uq0ktLsq1LnGdVL+DXZOtOFFyfMpB9jv0xo/jU8ZixVTcXs2Dwtw5xZxXUmDh/h/M5QB55VZfCUbGxJ62NwMBuPjprLDwm2y7y/Br4lyySJHkTXjYxtdwdx6gWO1t8Jfk0voLwZ6kcN5zSZukVTEYo1ewYDbfluPfHgJR46R7CnNvssxljp6hoZiFp76n0qBrI6k88Z/LOxyVOI7jraOB1kipjUSn/SLsdgR5jsBy3xWUchIywzKbi3MKZBJS8OQ1c8pOlJJSNHqxAuR7DA/iz2X5o1rn/F/GObUxy+WtGQU7IQVp4SjSi++p7k+lvbGhRtKUXticqrf8RLlVHPSxMJqGWsqNirRnr1vfDGVF/oVUZy2y2QGtSCQfdKyliZQsigEggjcbbHC8pt9k8WtsZUlJUxqIabLZmvcglACPz9MAlUaYWMU0TpSZ/VROYeHqlnAsDJIqi4OKyqRfZb4R5ScLZlLGTU5ZSqQAT5gQT+F9sXVw4rCZ34+exz/wDo7knDS1EnhggHQFFhtfbrheNw85yS7ddCt/h1SVgMUcSrpbUxVLE/7YOr+f2V/GQJm3w/y56MReDEsv8AqQWN78wfoMS72bK/iI1ucrnyrMGy6ZiaO/lkvY2PQjBZVpSjkGqS5YZc6bIlFhHJGbi58u2E5tjEaSY7y6gXVLSyOpUmxubKbdr8zbAn1kLGLRb6LhSjpy0kUSqGWwBtsPfA/lZcjmogpNFTweIw52Hy+uI5s4sGVcL0sUhlmHjTkb6l5YiVXBxbIMnp0QqY4kj6jaxxSdbKOCTlFJNcqioqkEjl+GBc2cZtQo3kZyVUbADYYlzbOKfNls0cs61iPKt2Fgdj2PpiIdhP+JqjPMmgtW01OkjUUjBWL28oA3H49cPU5a2LVEnplNquGykkVRTkpOq6gRtdeVvflgzq50wUYKO0bM4V4jDImWZhLC1Si2SVhbxPQnoTcC2E5xXQ0XyKkpZc0kihYrTsFbfmx678tsIzj7DQ6NoZZTpFHFTRygxXvpvvgPLeCwzqhFRwPOU1RC97b39MWONfVkX3rxJGIGwBTqAd9h7YHBezim11JGGaQXWEWABGHMY0ccwZWGpLyWjlI2JHym+3XHHA89WUgalnA1MNKnnq9/zxMeyJdGuuLJ6ZKSGkjppqerBlaecy6lm3GgKtvLYagd98Px2LSlgk+HGaRzUhhmIWZXFr3JB5H6YDdvjHREZZOw8KKtHKENiFIuBbGXN7yMwjrJp6TOmpOIcwMviSSRhVK23HlHX64vn9WWNwcJ5zllRFT1KTxxy3sVc2bc/nhVreSeEjY9dV2jV4ZEkN/MR0HfBObIKl94etmMmllIPXfUvf8sSt9nDNYmijDmEGwtbt3wQ7jnRW85m12aKMIq23O19u2OKxil0azzOmeApNTktqUkxg9t8Hj0WCxUQV9PSVcSXlUBT2/HAp9nF0yShWVHDa9VrhvS3PCtWbaOLflWSimapqdSlpGDC53XYcve2BQimik5NdDKsqHpkcFtBtyJ/LBSYyyii5jPNmPioJDThVLFSLXAP9Pf6Ynm8jHBGu66jAiZRC5Tbn164eogJSSWWa5zzIUq6hqlk8JQ1yoBFj/nXGvbVGuhKrDltGoOIuH6mhjlr1ENSiWdbjTIp7auux/LGzQuOXRl3Vs4LZr2qkTXTOMwqFWRCTdQdBHQ/5th1N5wzMf8TVHG1X9yyYnIMsSm4ipq5ZZTEQquh2YbAECx1d8PU8NPkKSjh6Nj5ZV5gvAUOZS5xllXI00cK5QHaWeNpGUBy55CzaiLHSBjKlV4yxE0KST7Lpl2eVKEPUNJqkvdFA7AD9MWayRBceixVnFOY5YsDxskoqI/8AtOguB0J7/hjksF5Sb7KPn+UVlbR0GZnL4qTKquR0DLTao9V/M1gbi2527HDlOaiLVKfWDVfxI+HtRlXFTZNlFZlcyRTfd1raCqMkNTKvzSI+11+Ui46MDywzRqqTwxWpTa2hNI3GiUkuRZxxdw9V5akkbw1KQvTyAdUJvsD3G344aUEisW2XDKcorvFp4PvVLlbkEqY5yxcchc97X/HC9zUUUE+PKEfxJySuyOWnq6zg3M+IMrVSI5KCnV2HX+YuzX5ja+2C2923oFUt17KfwjxLwTk9NV/wlMy4dzV2L+AYJIjUPtbZhs3IW7YJdQclnJ0aSXRuPJKuiqqLx8wz+oad3LaAqt4N7HST3uSfrhD4ZBubOxVVwvDRVGvLqxqcWACnpa5vty548mriT7PVfDFdAMNJxFNqikpY5hpBSVXsH35Ec74HVayWjHCwbUyfKUhhpSysZwmlgwAv1J9cDdR9BIxyWRqUJHSsRDUSC5RlWxC87EdBivNhOCEkuU0ddUIix2bxArhltqF7/XFeeCvxItMfClIREsMDN/pUAEk4jmiVTSCY+HY/GWyS6LbgoQB9DiHW+i8aaZZss4cghUuU1knbb8z64DOcgjpIscWRU4UeHGth/UR0/bFfmYMZRZXRgKEQAnnvfFXUL8GKpsuMrnQniKbqDf36dfpgVSTZeMcHFRkv3OmjnmXQ0h0KANwQOZ7DCjuMPBMuhTJlcdRHISpYsDew5Yfp1JYyC47wayz3guWvLymDVOq6kltuP/YdcNwrayBqUkxGchzrLI0UxxzREAtIRYk2vy+mLc1LstCKS0a4at4kpqyWGRYZGTz6Vj3VRy369cX+NY0UdVZxgt0XHNRNHSUf3SaI7BZjJ06i1tueI+FFuaNgZHX5YiRy1lVGZvmY3vc4WnAuPnz6gUiRagMTYDTffCz12EhFNbDaLNBVyRqzab8r3744uoousERcXGgixB9PXHEhgpgul0sxXcgjFFWZwiz2jkeKV47qzctI2GO58tMh1MPZrqsyZjAxjjIJuxBNt8NJ5AFJzbwYijbXXme2+CxkkjhFk8az51BKCL6jcEC5HXBZy9g4R9m68kgRVZpEJ0sRt27X6DGbXzkbisLA4eSWGWJ0LBhybe6+2EKyJLnWRVU2ROykNPHpcAHcgMDbF4dnQjhtlYkEQlQQtIsYGkawLj/bDEOynNAtXRxhd1Dxsvmv0bBQcnkBky10k1xyM0YbdLbLy644vTKTxJTAqJEQF43LCxsTfDFGPSB1I4bNP52ZJPFBk0yLexI2P0xo04IUn0VzhjNKijrTXQnw9MmmeO+4vyNuo9u/pgdzDWui9GXo7W5TxHQVcEUrVaRaISzqTbXbffHnpwaY/Cmmlk1bW1VNPLmMscpp/vDaneQnY225e2AvD0NxprGSu0VbWRVQQTBoT/2yp526H8MN06axgqb04e4uanoVo81pq16uSNRFURgNHGwO4fqLjkRgU6axhgZ9llizXLkZBHUePK24AX5L974Xwk9IFKmnhs5TO5NYlOpkB2taxPqMHgiySXRzMZqs+QsKZt2UgWZhy5YKSVniFKOGldj4q1Q+Uhbb25YIvZxrrL81fKqqKAhWo5OaMPkPQ3/bBaz6Rx2AyKtp6mNGVRGSo/XCVSXF7JRdPGaGIOq8xbfphSTXLJbMSvVchICsFfcW23+mD5zsphLoXtTxeIxqYWMQFiVAJH0wVRwzst9iHMKaELsUALciLXGDQfoiS0UHNaIeJYKwjBPLe49MOQqpPYPgzWHGNCv3BwsbX2KDub8j+eH7OpvIpXiuODrdnGXfe8uq/u5aOsppwxRVAu1zupxvwqtHnalNqWCoNkFdLBMk+XNUTHzytY2kU72Hb1wx8+VstGjJbGWU8IZtTyUktFTVVRQIrmUOpGl7bH1tywvOss5YVUJG6OHuE0nKM9ZKEA0+FNT79Li98I1vIfSGaNm32XbiTgahqIIlpJqKmq1jCRuV6ddu+BW1+8/sGqWK9Fby7h3OqU0KztTyxQSlS0caXNMw82om1yCBbb6jD8qse2JRoyTZrv4l0kfEUqZDmuXVlJTrTGko8zoadYWSzXUME3bdvm+a218MW0knlitaLSwdH6X4ecU09ZU1+Y5hV1oiqWjKTDUsugkBhe5ttYqcephcxcMYMp02mdheE4curaumg4dol4bluglux8J3BF2APLmcY939jdJZ2bUqcxz1TJkS5zXF7M+8aBHK3sNQFrWB9cZ9PGcsZktGnq/KOLK2uepy6pjnqLLJHGyBlI/q2ts2NSjUjjDF5x9iOo4pq4GRKimgqZdNyz0qg8zsdO2C8oAztXFndRNTqYqwFCpdyisQd+dzvsMeRjZpLZ6WFzy6NlcKsmY2iepiqUDAO8e5j22ve1sZ1Xsap1fTNk0tflNFVpJLmStIqlVXa4264Xqcs4iGlNY0S5jxTlUkkkkwaeVR8xawJ7YJGL9kxf2U2l4nSvmE8skIIayaRte+Lzok5RuTIs6gqaYLGBAVU6iT2+uEKkcSwSP6OuhqnqHjk+9yOSXdtyW9/pgNTS2EpjmkaRViKXU35DAS8ugtJ7amZyUO4F7bf5ti3NgCE1Lklo3URarWLAW264hxzthIyYOmZfd5qeZdJERDj/2vzxSpFpaCNCDiHj/KK+aGR8wjpYYiymIgj+Zfe/7YVpWs2+UiEsE1JmVPJETBKsySLYaXBP5Y04rCwdhdkwkjWaNfl66TvcW64kFPsp3EGa0UIeilmSS/lI2BTbYnBKcW+iprTMMypRJ5Y2VflZrfhvh6nBo4qxpDVS6UVirMSpA6jmMGK8EFHJaih01YTwIW84tY6jfcWwObKxe8D6mq42pWDyaSBcArz9sAb7Zfm08IdZFWnXE+1r7XYe++Fa0mgqm8G86aSjsklPPM0JUXMqhWVtIvy5i98B5ojmx/TlWijaMOGNt/rgQUilgaQujlWQnrjuWNgp9lXzeigQsURVuN/Y4ajLBQ698bUFZTNLPBBLPGSV8oNjb0GGYLLOFXDEukirF4ZVbS11syHqLHEzl6ONpPxBSZXl1TVNNHJW6WEcYezSv25fngMIOXfRd1fsqmT/ELMKOoEmYRxZjT3uyIoBS290P5WPb1xeVthZIdZejbtN8VuDFqKDLKnOFp6uqjWSNHhIQB9vO3JW9DhOpQZPNgdZXQwVTJT1cMsLeZdwdI9MW4pdFDNqyOqUqWddfK5AxJwG+aLB4sbTAbkCzDfcb44NLC6KPn2YSSySPENaLe4vuR3wzSj0BlL2zXn3T+JVGmEEytyDDYjt640FLGwXBS6A5OFKmjr4a+jCU84G687jse43/LHSrZWCipOMshlZX1uTyu9dQRS2USR2a635DUOeEXbKXYy6ywsCWfMoVlVqyJIdXnB32B6nA5WUca7OhXeSw8PV/DOYMlqiSmzFoW0RS+V1JbfTyufbAlRcewyrl8pGr8va8MJraOQFd13UW746dJtaJznZnmVfBKgeJfAqvLpAFjblf8sBhTZxBl+fVcbk5pC9OeerR84x0qD7OLvl+bRPL/ACqpfDO4IO49CMRwZxDmtpaeRFmVTz3HPn1wSMSsujT9TLNS1bpUKtxyPMMDiWvspzZtrgvNkmUU3jBpVttfoeRwlWhy37Clrl4nhQ1KPVfyhJpUMLXPo3v3wt8cg0c+yyROpjWZUL612YHYfnhqMEkBJjVQgWIj1H5vTBDivZhLTKskUhjay3X1OLQ7ONeV1XIkoKoJFBuAfbBjig59IuawS00cIWW9/S/UDDVpKUewNTbwaMzDKKumr2jnp3MJFzYXBN9sa6udGbO3zIscMNBNDHOL6oxqYOADb8vTAJ3D9B6dul2WymNLHTAi6oU1cuXvheU2+w8YpdFxosoeU004eEUzqSxU+Y+1uWAT7LDOroIJFkpy0cMysQv3hgrNytY4ijNkSejVWcUGdBZHoFVqiJmUoT5Tv0I6Y0aTX/IUmsbRWIc3qvvax5pKMvl8oJZLeck2Ibtt+ONThhfoKcE/5AWYZDwxnEkKLJSgspbxQugrITcgH3vv1xenWqJYaFZ0YPplag4cghzWVJIPv81MwZZNNmMZ5E226YK6rlpgHbtJYLvn+S5RUZRBUNQrSzrNHKwIH80p0N+lzfCim+WByNusZZrHNMvrswr1/hk38HqzfWGIG/cONr+mGYVGuxOosaRYqL4dCqpoZ56WgWZhdm8A/wAw/wCrbbfEu6x7OjbSayb3peEGglkVlRqaY6mawsvtbpjDndTfZsRtkuitcU8EzwiSTJs1r8jzKSMlZaZtJcDo1unbB7WcXpg60WjrvGfiNw9XyDPczqc1hudE5G+n6C3LGz8VOUejOlXmvQ/TijNanwiZJvDWxPlBuPXFPxKf0gkLqSHtNxZLSM6008UgS9lKgaG5jlhetZxwXV0n6Ni5Hxy0iw01RVsqOQz6dmBxnVrJLY5SuGbq4O4moKRtFXmkaixIaSQDy32GMmpTlnCNOnJdljzT4l5HTJNHlFZl+Z10ThTE8rRI3fS+mxOF3bSyFclgW1HxWyJjI0aZhSwqty0sNkLDnZgN7fni/wCI/oCLV+ItBmPiNT1tJURNvaN9Vyf39MWjaBI1Elg+XjeIxhkjkniK7FWC3I9z6YL+OkUqVF6Ki+cQ1k9fP9yagtaSLUCS7/1ByeW3IjHfCgfLOh3FTU+dQvLS0K07AIUCSMTGRuSCDvf1xLpxRenrBT+LM14xoqQLT5i8UIb+Y5FpHF+WrqPTB6VKDZWrU+ka7p81zGWISVkkjg3YsTcNv+uHPgjFCaqSZY6eRCn3kFJY2Frk3s3a3TA5RSWUdzY5p6xBAJLyCZFLKDtb0wKUchqckXiqzjKxlJmnqKYTFQ/hAi9wLE2HLCzTUgvNGuo80QAvJGLMbDDXxvBSUslkyTMqNS6z1CQOo1kkj/L4Wq021oLTms4NxZNxHl9Yy00FZDLUout1B1GwNr4QqU5fQxy/s2ItbSwQmSaaKBBdSzkIAffAMoiUcrBTs14+yeKO9HO+Yut7+Guwse5ti0YOWkCccaK1Hx/T1QcS5XX0yAhRIArq34bjDMoNdkFPruL4zXVMFTRZg1CwuriMDfcbdbbXPucGhD0cJcwzbKZdDUcE0jEC720jB4UkTJYeCpzrPLao1SSbWAsdt+QwzHCF6lRdADViiaNZoyFL6bLYED9+uLyhhaF5PLyUrjKBmD1tBLUpGCIySQGK3uDYdQcGt6cZA/kknhFj4czzN3haGqzB6tyAPOtipF+vXphWpQS6GqNVvsv1Lnlcsboiy1RjUFrsRz6364WVHKGSNuJ6sRxu9CURrWGzH/OuCKmkQ3gY1Fe8sccoCrGwAuRzGLKCeyjn9BHDuWLU1Jms0cqpvbcqBztik3iODqY/zClpIIpZHnUrpKruDfr9MKQn/QQ17mddFKFZonkXYCQggsLjDtNlJorGa5vTCJYqimBpWNrkbC/rhmnT5MUnHeSu0OXao4Ij48ig3pJUW7i3LcYtXopeytOaXo3flXGubZflSwPlyVU8WxlbyryNrgcueMupRyzRpSSRUK/PY6tXirzLl9SXDIQdr+/bfBacH0UnJZ2XrhjMBnVIgk/mVkV4283QC4PscArRaLQx2W/+CxSTWaFFAUFmUkMTblcYVlLHYaMskdRkZU3OvZRtqP4YtGSzklrKNacQ5TPBLK0Ur6dxpbcAdB6YKqiBSjgGyapr4WkdEkpJAtmKtuduhx3x8ns6MmnlE1Dn9S2c0q5paoy1YmpysibC5BDHuRY74t+LEJ88jZeXcbZTTR10gzCnp6COQlEaQkEE8kJ5+2E3TZKkmC1/xJyWNNYapkl1EaAu4FuRvi8KEmdKq46TKaeLa/M1lmpZYaci+xOoj8cOQtkgU6za2Vau40r6S8NSIZGDBNaqbtf0HLlg8LXl0gEqyRzlvEUOYVIjsqLJ5u+/1xMqDj/RaM0y5ZjkUldSCaKKm0i1yFG+/f64BObj2XFuacMZGPvJEjRxILIWiGp3Njp2Nrcz9MC/KSewnxMV1OXyUcclNG8cgsQTsdj0wWNVPWCODJcprq2niqKK0EwO0ZuVt6n2xM6UWWdVMKSaogrDU1FIJAbAyEX8w23v6DERopIpJ5eRlUq1ddY11Jy0qnp+WJhJnQSbwxH/AMvy1bGJIUqYALHUOXWw/XDMK+Cs7dNFSq/h1mHjmakjloNT+VC2w7WxoryCxiQhK3yLavhbirharNYksdeQCCgAJPU333xR14yjgpG2xokr6tuJZ6aahpHbK0hCVis//bnPK45263/2xFCO2y1am1H9RevBFZDD98jmaHQS4Y7qxtyIPT88OSuIvQnC1a2BU3Fed5NCmW01XT+BH8oaMm19yB6XJxZ00/QTh/R2Xz+eLJcwgo443k1wmYebYC5AFu+2PMKbaNbgii5vXO8ysykKV1ABuQB2GHaetg5prSKHmlM0zGKV/EcgkMem9satvXctMQqQKzWZTD92TwWIIZw99rgcrWw0poC6KexXBkkM8qSFIRL5idtjtiK1UBTpaHNNw9RPIgnXxAGFvQgbHCNS5bWxyMcPBsikyDLVQSMryTlQAzAG2EZJZyaFJtoPXJFaaHzRyIBqu48yn/xPTFZdBMP7L0MsMkUeid4WJDgrt5u574W5osUHOeEoqiriq6SSOizMAxySxrpEyj5QwHO2DKegUqeXkapw9PQ5RltJVGjrJpws6Skt5EUWdCnLc7g4C6rbJhTwG0WXLNToA1msSdXmBA2F++2CxWWW4Iv+XLFQ+EsKFUdAwA6W3/UYXq9ssfZnltBmAb7xTrKCD82K06rOKfJkeWtAKealjNO3kVVFrHue+GJV2+ynBFLrODcupZWaJ5Yl+ZlQ2F/TtgyeTpQTWCEcNBYo4vvtUVY6wS5JHpfFgfwuOkwul4ciZzE8pYG4J6tfvji3Bj+PgnLBBIjapBct5jfY9MT+RJaKuly7K3U8MLRL4dJMkQLWPl73OOc8oHKk4/tkV5lLmOStTHLcwko5JpY4ZZEUFtDG50+u2ILSqNLJXI3rZhUZlVZlWVYWQKodyS3uCSBz5DEq3h9AY3s8d/8Ag3Fw+DmL09GbREtqa26m4viJU1F/qOQm5LLNu5Zw3RwwxzM7o5QIQnJt+t+eMupJt7LhseQ5UZIxLTa7HT9d98QqjRwjzbhrJ2ZWig0KWKAFRvblfB6dbZLeTWHE2VQ+AWy56jLZiwMTxyWIAaxDC29/yw1Ce8MWqw3k0z/1sk8sFRUeIpkKg3uQAe9sa8IxazgVlpi+tqFrKto1iEMMbKQo35nBILj0LzqbLfkuXU1TUPMC0KnT5VA+uM+sPUlhGyMmpYKiGSOzjSBe/wC2EuTWhw4qMjpy8bJaNZWsQBy6YDCq5dkNZKmctqMskSliqF8AEAIRdVF+Qvg3Ngmt4DYc1zDL5WaklWEP5Nua32NvTFJLloKljoSZhVV7I0LVLFUIv/5C+CQpJIkHzPMoaykmoXikhcHysh2AJt+2ClJsENDBmVBVQSl4VMIeHTv5x1a/7YspsTq52iT4Y1SSPHTVMXjIfIu9tIPPfpjq/wDHJe2eDbr5VCJ5oWssS7W56vfljLVbQ+oZWQDMODMuzCCKKoaRYiACUNmHscMUK+wVSkmuTNSQ0mb8EZi9bRVqT0CIGKsxDONXIi1vrfDEv2WwSTTN+cN8bw59CxWlqIZNCX1EEX35YybmmNwfotbVCKgMis6M5W3053wuEFWYZZT1gFSwZIjzUHf/AHx3NxWiGslcqqCnhR6emBUAXGrlyvhulUZWUElk11U0rTVVMKiTUzGyFdrE9/Tn+OG4vKBAtRQworiTYFmuFAIJHI74tGCyUqVHkqFYhNdT0shdi4NnDWI+lsM04JfqKc2W3hamSo+9RTeYK119duuFrmWHoZgssPq8moarUjIVme4B6fXDNvctAKi9muZMpnyapEtNMmpySg3sBbr2PthycuehWEmthFLx3mWXiCEPO0DKG0ltVrm3XCFa2Q1TrvA7quIKivqYKNQEJmBBI2GEatsh6NZvsZtktQ+hqqs8SYqZdSjt0wWnRilkFK4a2QLTNE/jpPKGQ6CL7MDi5HyF5paunq2RZIG1EFTvcHfY++A82XTyWCimjpZ10KSJVB3A8p/wYX5sLTOafM0RpG8GyqS1gAL/AOXxGWXl0Wc1tLVR6/uoWQhzq62HMfXE8mUpxT7AzT02ZBWaI0zghgVIO3bcY6nVwy0lrAif4f5WZ6irjjgglmOpmRbauvmHI8sO/O8YAqlnYYnCniwOslUzow8yk7H8sV+XeSsqWFk1rmvwrqMxrJKmgzClpaf5Qjq17j2xf81/bBfr9H//2Q==;" parent="1" vertex="1">
          <mxGeometry x="7.189999999999998" y="20" width="96.62" height="80" as="geometry" />
        </mxCell>
        <UserObject label="&lt;b&gt;Input (x)&lt;/b&gt;" placeholders="1" name="Variable" id="Hpuvhwq70IxdgYuToOBc-5">
          <mxCell style="text;html=1;strokeColor=none;fillColor=none;align=center;verticalAlign=middle;whiteSpace=wrap;overflow=hidden;" parent="1" vertex="1">
            <mxGeometry x="10.5" width="80" height="20" as="geometry" />
          </mxCell>
        </UserObject>
        <mxCell id="Hpuvhwq70IxdgYuToOBc-16" value="Wing" style="text;html=1;strokeColor=none;fillColor=none;align=left;verticalAlign=middle;whiteSpace=wrap;rounded=0;" parent="1" vertex="1">
          <mxGeometry x="95" y="163" width="31" height="20" as="geometry" />
        </mxCell>
        <mxCell id="Hpuvhwq70IxdgYuToOBc-17" value="&lt;font style=&quot;font-size: 12px;&quot;&gt;Tail&lt;/font&gt;" style="text;html=1;strokeColor=none;fillColor=none;align=left;verticalAlign=middle;whiteSpace=wrap;rounded=0;" parent="1" vertex="1">
          <mxGeometry x="95" y="228" width="21" height="12" as="geometry" />
        </mxCell>
        <mxCell id="Hpuvhwq70IxdgYuToOBc-18" value="&lt;font style=&quot;font-size: 12px;&quot;&gt;Beak&lt;/font&gt;" style="text;html=1;strokeColor=none;fillColor=none;align=left;verticalAlign=middle;whiteSpace=wrap;rounded=0;" parent="1" vertex="1">
          <mxGeometry x="96" y="248" width="30" height="12" as="geometry" />
        </mxCell>
        <mxCell id="Hpuvhwq70IxdgYuToOBc-19" value="&lt;font style=&quot;font-size: 12px;&quot;&gt;Body&lt;/font&gt;" style="text;html=1;strokeColor=none;fillColor=none;align=left;verticalAlign=middle;whiteSpace=wrap;rounded=0;" parent="1" vertex="1">
          <mxGeometry x="97" y="185" width="29" height="12" as="geometry" />
        </mxCell>
        <mxCell id="Hpuvhwq70IxdgYuToOBc-20" value="&lt;font style=&quot;font-size: 12px;&quot;&gt;Head&lt;/font&gt;" style="text;html=1;strokeColor=none;fillColor=none;align=left;verticalAlign=middle;whiteSpace=wrap;rounded=0;" parent="1" vertex="1">
          <mxGeometry x="97" y="205" width="29" height="12" as="geometry" />
        </mxCell>
        <mxCell id="Hpuvhwq70IxdgYuToOBc-73" value="" style="rounded=0;whiteSpace=wrap;html=1;fillColor=#F1D302;" parent="1" vertex="1">
          <mxGeometry x="17" y="167" width="9" height="10" as="geometry" />
        </mxCell>
        <mxCell id="Hpuvhwq70IxdgYuToOBc-74" value="" style="rounded=0;whiteSpace=wrap;html=1;fillColor=#F1D302;" parent="1" vertex="1">
          <mxGeometry x="7" y="167" width="9" height="10" as="geometry" />
        </mxCell>
        <mxCell id="Hpuvhwq70IxdgYuToOBc-75" value="" style="rounded=0;whiteSpace=wrap;html=1;fillColor=#F1D302;" parent="1" vertex="1">
          <mxGeometry x="27" y="167" width="9" height="10" as="geometry" />
        </mxCell>
        <mxCell id="Hpuvhwq70IxdgYuToOBc-76" value="" style="rounded=0;whiteSpace=wrap;html=1;fillColor=#F1D302;" parent="1" vertex="1">
          <mxGeometry x="37" y="167" width="9" height="10" as="geometry" />
        </mxCell>
        <mxCell id="Hpuvhwq70IxdgYuToOBc-77" value="" style="rounded=0;whiteSpace=wrap;html=1;fillColor=#235789;" parent="1" vertex="1">
          <mxGeometry x="47" y="167" width="9" height="10" as="geometry" />
        </mxCell>
        <mxCell id="Hpuvhwq70IxdgYuToOBc-78" value="" style="rounded=0;whiteSpace=wrap;html=1;fillColor=#235789;" parent="1" vertex="1">
          <mxGeometry x="57" y="167" width="9" height="10" as="geometry" />
        </mxCell>
        <mxCell id="Hpuvhwq70IxdgYuToOBc-79" value="" style="rounded=0;whiteSpace=wrap;html=1;fillColor=#235789;" parent="1" vertex="1">
          <mxGeometry x="67" y="167" width="9" height="10" as="geometry" />
        </mxCell>
        <mxCell id="Hpuvhwq70IxdgYuToOBc-80" value="" style="rounded=0;whiteSpace=wrap;html=1;fillColor=#235789;" parent="1" vertex="1">
          <mxGeometry x="77" y="167" width="9" height="10" as="geometry" />
        </mxCell>
        <mxCell id="Hpuvhwq70IxdgYuToOBc-81" value="" style="rounded=0;whiteSpace=wrap;html=1;fillColor=#235789;" parent="1" vertex="1">
          <mxGeometry x="7" y="229" width="9" height="10" as="geometry" />
        </mxCell>
        <mxCell id="Hpuvhwq70IxdgYuToOBc-82" value="" style="rounded=0;whiteSpace=wrap;html=1;fillColor=#235789;" parent="1" vertex="1">
          <mxGeometry x="17" y="229" width="9" height="10" as="geometry" />
        </mxCell>
        <mxCell id="Hpuvhwq70IxdgYuToOBc-83" value="" style="rounded=0;whiteSpace=wrap;html=1;fillColor=#235789;" parent="1" vertex="1">
          <mxGeometry x="27" y="229" width="9" height="10" as="geometry" />
        </mxCell>
        <mxCell id="Hpuvhwq70IxdgYuToOBc-84" value="" style="rounded=0;whiteSpace=wrap;html=1;fillColor=#235789;" parent="1" vertex="1">
          <mxGeometry x="37" y="229" width="9" height="10" as="geometry" />
        </mxCell>
        <mxCell id="Hpuvhwq70IxdgYuToOBc-85" value="" style="rounded=0;whiteSpace=wrap;html=1;fillColor=#F1D302;" parent="1" vertex="1">
          <mxGeometry x="47" y="229" width="9" height="10" as="geometry" />
        </mxCell>
        <mxCell id="Hpuvhwq70IxdgYuToOBc-86" value="" style="rounded=0;whiteSpace=wrap;html=1;fillColor=#F1D302;" parent="1" vertex="1">
          <mxGeometry x="57" y="229" width="9" height="10" as="geometry" />
        </mxCell>
        <mxCell id="Hpuvhwq70IxdgYuToOBc-87" value="" style="rounded=0;whiteSpace=wrap;html=1;fillColor=#F1D302;" parent="1" vertex="1">
          <mxGeometry x="67" y="229" width="9" height="10" as="geometry" />
        </mxCell>
        <mxCell id="Hpuvhwq70IxdgYuToOBc-88" value="" style="rounded=0;whiteSpace=wrap;html=1;fillColor=#F1D302;" parent="1" vertex="1">
          <mxGeometry x="77" y="229" width="9" height="10" as="geometry" />
        </mxCell>
        <mxCell id="Hpuvhwq70IxdgYuToOBc-89" value="" style="rounded=0;whiteSpace=wrap;html=1;fillColor=#235789;" parent="1" vertex="1">
          <mxGeometry x="7" y="249" width="9" height="10" as="geometry" />
        </mxCell>
        <mxCell id="Hpuvhwq70IxdgYuToOBc-90" value="" style="rounded=0;whiteSpace=wrap;html=1;fillColor=#235789;" parent="1" vertex="1">
          <mxGeometry x="17" y="249" width="9" height="10" as="geometry" />
        </mxCell>
        <mxCell id="Hpuvhwq70IxdgYuToOBc-91" value="" style="rounded=0;whiteSpace=wrap;html=1;fillColor=#235789;" parent="1" vertex="1">
          <mxGeometry x="27" y="249" width="9" height="10" as="geometry" />
        </mxCell>
        <mxCell id="Hpuvhwq70IxdgYuToOBc-92" value="" style="rounded=0;whiteSpace=wrap;html=1;fillColor=#235789;" parent="1" vertex="1">
          <mxGeometry x="37" y="249" width="9" height="10" as="geometry" />
        </mxCell>
        <mxCell id="Hpuvhwq70IxdgYuToOBc-93" value="" style="rounded=0;whiteSpace=wrap;html=1;fillColor=#F1D302;" parent="1" vertex="1">
          <mxGeometry x="47" y="249" width="9" height="10" as="geometry" />
        </mxCell>
        <mxCell id="Hpuvhwq70IxdgYuToOBc-94" value="" style="rounded=0;whiteSpace=wrap;html=1;fillColor=#F1D302;" parent="1" vertex="1">
          <mxGeometry x="57" y="249" width="9" height="10" as="geometry" />
        </mxCell>
        <mxCell id="Hpuvhwq70IxdgYuToOBc-95" value="" style="rounded=0;whiteSpace=wrap;html=1;fillColor=#F1D302;" parent="1" vertex="1">
          <mxGeometry x="67" y="249" width="9" height="10" as="geometry" />
        </mxCell>
        <mxCell id="Hpuvhwq70IxdgYuToOBc-96" value="" style="rounded=0;whiteSpace=wrap;html=1;fillColor=#F1D302;" parent="1" vertex="1">
          <mxGeometry x="77" y="249" width="9" height="10" as="geometry" />
        </mxCell>
        <mxCell id="Hpuvhwq70IxdgYuToOBc-97" value="" style="rounded=0;whiteSpace=wrap;html=1;fillColor=#235789;" parent="1" vertex="1">
          <mxGeometry x="7" y="186" width="9" height="10" as="geometry" />
        </mxCell>
        <mxCell id="Hpuvhwq70IxdgYuToOBc-98" value="" style="rounded=0;whiteSpace=wrap;html=1;fillColor=#235789;" parent="1" vertex="1">
          <mxGeometry x="17" y="186" width="9" height="10" as="geometry" />
        </mxCell>
        <mxCell id="Hpuvhwq70IxdgYuToOBc-99" value="" style="rounded=0;whiteSpace=wrap;html=1;fillColor=#235789;" parent="1" vertex="1">
          <mxGeometry x="27" y="186" width="9" height="10" as="geometry" />
        </mxCell>
        <mxCell id="Hpuvhwq70IxdgYuToOBc-100" value="" style="rounded=0;whiteSpace=wrap;html=1;fillColor=#235789;" parent="1" vertex="1">
          <mxGeometry x="37" y="186" width="9" height="10" as="geometry" />
        </mxCell>
        <mxCell id="Hpuvhwq70IxdgYuToOBc-101" value="" style="rounded=0;whiteSpace=wrap;html=1;fillColor=#235789;" parent="1" vertex="1">
          <mxGeometry x="47" y="186" width="9" height="10" as="geometry" />
        </mxCell>
        <mxCell id="Hpuvhwq70IxdgYuToOBc-102" value="" style="rounded=0;whiteSpace=wrap;html=1;fillColor=#235789;" parent="1" vertex="1">
          <mxGeometry x="57" y="186" width="9" height="10" as="geometry" />
        </mxCell>
        <mxCell id="Hpuvhwq70IxdgYuToOBc-103" value="" style="rounded=0;whiteSpace=wrap;html=1;fillColor=#235789;" parent="1" vertex="1">
          <mxGeometry x="67" y="186" width="9" height="10" as="geometry" />
        </mxCell>
        <mxCell id="Hpuvhwq70IxdgYuToOBc-104" value="" style="rounded=0;whiteSpace=wrap;html=1;fillColor=#235789;" parent="1" vertex="1">
          <mxGeometry x="77" y="186" width="9" height="10" as="geometry" />
        </mxCell>
        <mxCell id="Hpuvhwq70IxdgYuToOBc-105" value="" style="rounded=0;whiteSpace=wrap;html=1;fillColor=#F1D302;" parent="1" vertex="1">
          <mxGeometry x="7" y="206" width="9" height="10" as="geometry" />
        </mxCell>
        <mxCell id="Hpuvhwq70IxdgYuToOBc-106" value="" style="rounded=0;whiteSpace=wrap;html=1;fillColor=#F1D302;" parent="1" vertex="1">
          <mxGeometry x="17" y="206" width="9" height="10" as="geometry" />
        </mxCell>
        <mxCell id="Hpuvhwq70IxdgYuToOBc-107" value="" style="rounded=0;whiteSpace=wrap;html=1;fillColor=#F1D302;" parent="1" vertex="1">
          <mxGeometry x="27" y="206" width="9" height="10" as="geometry" />
        </mxCell>
        <mxCell id="Hpuvhwq70IxdgYuToOBc-108" value="" style="rounded=0;whiteSpace=wrap;html=1;fillColor=#F1D302;" parent="1" vertex="1">
          <mxGeometry x="37" y="206" width="9" height="10" as="geometry" />
        </mxCell>
        <mxCell id="Hpuvhwq70IxdgYuToOBc-109" value="" style="rounded=0;whiteSpace=wrap;html=1;fillColor=#F1D302;" parent="1" vertex="1">
          <mxGeometry x="47" y="206" width="9" height="10" as="geometry" />
        </mxCell>
        <mxCell id="Hpuvhwq70IxdgYuToOBc-110" value="" style="rounded=0;whiteSpace=wrap;html=1;fillColor=#F1D302;" parent="1" vertex="1">
          <mxGeometry x="57" y="206" width="9" height="10" as="geometry" />
        </mxCell>
        <mxCell id="Hpuvhwq70IxdgYuToOBc-111" value="" style="rounded=0;whiteSpace=wrap;html=1;fillColor=#F1D302;" parent="1" vertex="1">
          <mxGeometry x="67" y="206" width="9" height="10" as="geometry" />
        </mxCell>
        <mxCell id="Hpuvhwq70IxdgYuToOBc-112" value="" style="rounded=0;whiteSpace=wrap;html=1;fillColor=#F1D302;" parent="1" vertex="1">
          <mxGeometry x="77" y="206" width="9" height="10" as="geometry" />
        </mxCell>
        <mxCell id="Hpuvhwq70IxdgYuToOBc-116" value="" style="endArrow=classic;html=1;rounded=0;" parent="1" edge="1">
          <mxGeometry width="50" height="50" relative="1" as="geometry">
            <mxPoint x="137" y="218" as="sourcePoint" />
            <mxPoint x="207" y="218" as="targetPoint" />
          </mxGeometry>
        </mxCell>
        <mxCell id="Hpuvhwq70IxdgYuToOBc-117" value="Intervention" style="text;html=1;strokeColor=none;fillColor=none;align=left;verticalAlign=middle;whiteSpace=wrap;rounded=0;" parent="1" vertex="1">
          <mxGeometry x="137" y="198" width="31" height="20" as="geometry" />
        </mxCell>
        <mxCell id="Hpuvhwq70IxdgYuToOBc-164" value="&lt;b&gt;Ground truth&lt;br&gt;Concepts&lt;/b&gt;" style="text;html=1;strokeColor=none;fillColor=none;align=center;verticalAlign=middle;whiteSpace=wrap;rounded=0;" parent="1" vertex="1">
          <mxGeometry x="210" y="6" width="89" height="20" as="geometry" />
        </mxCell>
        <mxCell id="Hpuvhwq70IxdgYuToOBc-174" value="Wing" style="text;html=1;strokeColor=none;fillColor=none;align=left;verticalAlign=middle;whiteSpace=wrap;rounded=0;" parent="1" vertex="1">
          <mxGeometry x="302" y="28" width="31" height="20" as="geometry" />
        </mxCell>
        <mxCell id="Hpuvhwq70IxdgYuToOBc-175" value="" style="rounded=0;whiteSpace=wrap;html=1;fillColor=#235789;" parent="1" vertex="1">
          <mxGeometry x="222" y="31" width="9" height="10" as="geometry" />
        </mxCell>
        <mxCell id="Hpuvhwq70IxdgYuToOBc-176" value="" style="rounded=0;whiteSpace=wrap;html=1;fillColor=#235789;" parent="1" vertex="1">
          <mxGeometry x="212" y="31" width="9" height="10" as="geometry" />
        </mxCell>
        <mxCell id="Hpuvhwq70IxdgYuToOBc-177" value="" style="rounded=0;whiteSpace=wrap;html=1;fillColor=#235789;" parent="1" vertex="1">
          <mxGeometry x="232" y="31" width="9" height="10" as="geometry" />
        </mxCell>
        <mxCell id="Hpuvhwq70IxdgYuToOBc-178" value="" style="rounded=0;whiteSpace=wrap;html=1;fillColor=#235789;" parent="1" vertex="1">
          <mxGeometry x="242" y="31" width="9" height="10" as="geometry" />
        </mxCell>
        <mxCell id="Hpuvhwq70IxdgYuToOBc-179" value="" style="rounded=0;whiteSpace=wrap;html=1;fillColor=#F1D302;" parent="1" vertex="1">
          <mxGeometry x="252" y="31" width="9" height="10" as="geometry" />
        </mxCell>
        <mxCell id="Hpuvhwq70IxdgYuToOBc-180" value="" style="rounded=0;whiteSpace=wrap;html=1;fillColor=#F1D302;" parent="1" vertex="1">
          <mxGeometry x="262" y="31" width="9" height="10" as="geometry" />
        </mxCell>
        <mxCell id="Hpuvhwq70IxdgYuToOBc-181" value="" style="rounded=0;whiteSpace=wrap;html=1;fillColor=#F1D302;" parent="1" vertex="1">
          <mxGeometry x="272" y="31" width="9" height="10" as="geometry" />
        </mxCell>
        <mxCell id="Hpuvhwq70IxdgYuToOBc-182" value="" style="rounded=0;whiteSpace=wrap;html=1;fillColor=#F1D302;" parent="1" vertex="1">
          <mxGeometry x="282" y="31" width="9" height="10" as="geometry" />
        </mxCell>
        <mxCell id="Hpuvhwq70IxdgYuToOBc-183" value="&lt;font style=&quot;font-size: 12px;&quot;&gt;Body&lt;/font&gt;" style="text;html=1;strokeColor=none;fillColor=none;align=left;verticalAlign=middle;whiteSpace=wrap;rounded=0;" parent="1" vertex="1">
          <mxGeometry x="302" y="50" width="29" height="12" as="geometry" />
        </mxCell>
        <mxCell id="Hpuvhwq70IxdgYuToOBc-184" value="&lt;font style=&quot;font-size: 12px;&quot;&gt;Head&lt;/font&gt;" style="text;html=1;strokeColor=none;fillColor=none;align=left;verticalAlign=middle;whiteSpace=wrap;rounded=0;" parent="1" vertex="1">
          <mxGeometry x="302" y="70" width="29" height="12" as="geometry" />
        </mxCell>
        <mxCell id="Hpuvhwq70IxdgYuToOBc-185" value="" style="rounded=0;whiteSpace=wrap;html=1;fillColor=#F1D302;" parent="1" vertex="1">
          <mxGeometry x="212" y="51" width="9" height="10" as="geometry" />
        </mxCell>
        <mxCell id="Hpuvhwq70IxdgYuToOBc-186" value="" style="rounded=0;whiteSpace=wrap;html=1;fillColor=#F1D302;" parent="1" vertex="1">
          <mxGeometry x="222" y="51" width="9" height="10" as="geometry" />
        </mxCell>
        <mxCell id="Hpuvhwq70IxdgYuToOBc-187" value="" style="rounded=0;whiteSpace=wrap;html=1;fillColor=#F1D302;" parent="1" vertex="1">
          <mxGeometry x="232" y="51" width="9" height="10" as="geometry" />
        </mxCell>
        <mxCell id="Hpuvhwq70IxdgYuToOBc-188" value="" style="rounded=0;whiteSpace=wrap;html=1;fillColor=#F1D302;" parent="1" vertex="1">
          <mxGeometry x="242" y="51" width="9" height="10" as="geometry" />
        </mxCell>
        <mxCell id="Hpuvhwq70IxdgYuToOBc-189" value="" style="rounded=0;whiteSpace=wrap;html=1;fillColor=#F1D302;" parent="1" vertex="1">
          <mxGeometry x="252" y="51" width="9" height="10" as="geometry" />
        </mxCell>
        <mxCell id="Hpuvhwq70IxdgYuToOBc-190" value="" style="rounded=0;whiteSpace=wrap;html=1;fillColor=#F1D302;" parent="1" vertex="1">
          <mxGeometry x="262" y="51" width="9" height="10" as="geometry" />
        </mxCell>
        <mxCell id="Hpuvhwq70IxdgYuToOBc-191" value="" style="rounded=0;whiteSpace=wrap;html=1;fillColor=#F1D302;" parent="1" vertex="1">
          <mxGeometry x="272" y="51" width="9" height="10" as="geometry" />
        </mxCell>
        <mxCell id="Hpuvhwq70IxdgYuToOBc-192" value="" style="rounded=0;whiteSpace=wrap;html=1;fillColor=#F1D302;" parent="1" vertex="1">
          <mxGeometry x="282" y="51" width="9" height="10" as="geometry" />
        </mxCell>
        <mxCell id="Hpuvhwq70IxdgYuToOBc-193" value="" style="rounded=0;whiteSpace=wrap;html=1;fillColor=#235789;" parent="1" vertex="1">
          <mxGeometry x="212" y="71" width="9" height="10" as="geometry" />
        </mxCell>
        <mxCell id="Hpuvhwq70IxdgYuToOBc-194" value="" style="rounded=0;whiteSpace=wrap;html=1;fillColor=#235789;" parent="1" vertex="1">
          <mxGeometry x="222" y="71" width="9" height="10" as="geometry" />
        </mxCell>
        <mxCell id="Hpuvhwq70IxdgYuToOBc-195" value="" style="rounded=0;whiteSpace=wrap;html=1;fillColor=#235789;" parent="1" vertex="1">
          <mxGeometry x="232" y="71" width="9" height="10" as="geometry" />
        </mxCell>
        <mxCell id="Hpuvhwq70IxdgYuToOBc-196" value="" style="rounded=0;whiteSpace=wrap;html=1;fillColor=#235789;" parent="1" vertex="1">
          <mxGeometry x="242" y="71" width="9" height="10" as="geometry" />
        </mxCell>
        <mxCell id="Hpuvhwq70IxdgYuToOBc-197" value="" style="rounded=0;whiteSpace=wrap;html=1;fillColor=#F1D302;" parent="1" vertex="1">
          <mxGeometry x="252" y="71" width="9" height="10" as="geometry" />
        </mxCell>
        <mxCell id="Hpuvhwq70IxdgYuToOBc-198" value="" style="rounded=0;whiteSpace=wrap;html=1;fillColor=#F1D302;" parent="1" vertex="1">
          <mxGeometry x="262" y="71" width="9" height="10" as="geometry" />
        </mxCell>
        <mxCell id="Hpuvhwq70IxdgYuToOBc-199" value="" style="rounded=0;whiteSpace=wrap;html=1;fillColor=#F1D302;" parent="1" vertex="1">
          <mxGeometry x="272" y="71" width="9" height="10" as="geometry" />
        </mxCell>
        <mxCell id="Hpuvhwq70IxdgYuToOBc-200" value="" style="rounded=0;whiteSpace=wrap;html=1;fillColor=#F1D302;" parent="1" vertex="1">
          <mxGeometry x="282" y="71" width="9" height="10" as="geometry" />
        </mxCell>
        <mxCell id="Hpuvhwq70IxdgYuToOBc-247" value="" style="endArrow=classic;html=1;rounded=0;" parent="1" edge="1">
          <mxGeometry width="50" height="50" relative="1" as="geometry">
            <mxPoint x="343" y="218" as="sourcePoint" />
            <mxPoint x="493" y="218" as="targetPoint" />
          </mxGeometry>
        </mxCell>
        <mxCell id="Hpuvhwq70IxdgYuToOBc-248" value="Basis Aided&lt;br&gt;Intervention" style="text;html=1;strokeColor=none;fillColor=none;align=center;verticalAlign=middle;whiteSpace=wrap;rounded=0;" parent="1" vertex="1">
          <mxGeometry x="403" y="186" width="30" height="20" as="geometry" />
        </mxCell>
        <mxCell id="Hpuvhwq70IxdgYuToOBc-250" value="&lt;font style=&quot;font-size: 12px;&quot;&gt;Tail&lt;/font&gt;" style="text;html=1;strokeColor=none;fillColor=none;align=left;verticalAlign=middle;whiteSpace=wrap;rounded=0;" parent="1" vertex="1">
          <mxGeometry x="299" y="228" width="21" height="12" as="geometry" />
        </mxCell>
        <mxCell id="Hpuvhwq70IxdgYuToOBc-251" value="&lt;font style=&quot;font-size: 12px;&quot;&gt;Beak&lt;/font&gt;" style="text;html=1;strokeColor=none;fillColor=none;align=left;verticalAlign=middle;whiteSpace=wrap;rounded=0;" parent="1" vertex="1">
          <mxGeometry x="300" y="248" width="30" height="12" as="geometry" />
        </mxCell>
        <mxCell id="Hpuvhwq70IxdgYuToOBc-262" value="" style="rounded=0;whiteSpace=wrap;html=1;fillColor=#235789;" parent="1" vertex="1">
          <mxGeometry x="211" y="229" width="9" height="10" as="geometry" />
        </mxCell>
        <mxCell id="Hpuvhwq70IxdgYuToOBc-263" value="" style="rounded=0;whiteSpace=wrap;html=1;fillColor=#235789;" parent="1" vertex="1">
          <mxGeometry x="221" y="229" width="9" height="10" as="geometry" />
        </mxCell>
        <mxCell id="Hpuvhwq70IxdgYuToOBc-264" value="" style="rounded=0;whiteSpace=wrap;html=1;fillColor=#235789;" parent="1" vertex="1">
          <mxGeometry x="231" y="229" width="9" height="10" as="geometry" />
        </mxCell>
        <mxCell id="Hpuvhwq70IxdgYuToOBc-265" value="" style="rounded=0;whiteSpace=wrap;html=1;fillColor=#235789;" parent="1" vertex="1">
          <mxGeometry x="241" y="229" width="9" height="10" as="geometry" />
        </mxCell>
        <mxCell id="Hpuvhwq70IxdgYuToOBc-266" value="" style="rounded=0;whiteSpace=wrap;html=1;fillColor=#F1D302;" parent="1" vertex="1">
          <mxGeometry x="251" y="229" width="9" height="10" as="geometry" />
        </mxCell>
        <mxCell id="Hpuvhwq70IxdgYuToOBc-267" value="" style="rounded=0;whiteSpace=wrap;html=1;fillColor=#F1D302;" parent="1" vertex="1">
          <mxGeometry x="261" y="229" width="9" height="10" as="geometry" />
        </mxCell>
        <mxCell id="Hpuvhwq70IxdgYuToOBc-268" value="" style="rounded=0;whiteSpace=wrap;html=1;fillColor=#F1D302;" parent="1" vertex="1">
          <mxGeometry x="271" y="229" width="9" height="10" as="geometry" />
        </mxCell>
        <mxCell id="Hpuvhwq70IxdgYuToOBc-269" value="" style="rounded=0;whiteSpace=wrap;html=1;fillColor=#F1D302;" parent="1" vertex="1">
          <mxGeometry x="281" y="229" width="9" height="10" as="geometry" />
        </mxCell>
        <mxCell id="Hpuvhwq70IxdgYuToOBc-270" value="" style="rounded=0;whiteSpace=wrap;html=1;fillColor=#235789;" parent="1" vertex="1">
          <mxGeometry x="211" y="249" width="9" height="10" as="geometry" />
        </mxCell>
        <mxCell id="Hpuvhwq70IxdgYuToOBc-271" value="" style="rounded=0;whiteSpace=wrap;html=1;fillColor=#235789;" parent="1" vertex="1">
          <mxGeometry x="221" y="249" width="9" height="10" as="geometry" />
        </mxCell>
        <mxCell id="Hpuvhwq70IxdgYuToOBc-272" value="" style="rounded=0;whiteSpace=wrap;html=1;fillColor=#235789;" parent="1" vertex="1">
          <mxGeometry x="231" y="249" width="9" height="10" as="geometry" />
        </mxCell>
        <mxCell id="Hpuvhwq70IxdgYuToOBc-273" value="" style="rounded=0;whiteSpace=wrap;html=1;fillColor=#235789;" parent="1" vertex="1">
          <mxGeometry x="241" y="249" width="9" height="10" as="geometry" />
        </mxCell>
        <mxCell id="Hpuvhwq70IxdgYuToOBc-274" value="" style="rounded=0;whiteSpace=wrap;html=1;fillColor=#F1D302;" parent="1" vertex="1">
          <mxGeometry x="251" y="249" width="9" height="10" as="geometry" />
        </mxCell>
        <mxCell id="Hpuvhwq70IxdgYuToOBc-275" value="" style="rounded=0;whiteSpace=wrap;html=1;fillColor=#F1D302;" parent="1" vertex="1">
          <mxGeometry x="261" y="249" width="9" height="10" as="geometry" />
        </mxCell>
        <mxCell id="Hpuvhwq70IxdgYuToOBc-276" value="" style="rounded=0;whiteSpace=wrap;html=1;fillColor=#F1D302;" parent="1" vertex="1">
          <mxGeometry x="271" y="249" width="9" height="10" as="geometry" />
        </mxCell>
        <mxCell id="Hpuvhwq70IxdgYuToOBc-277" value="" style="rounded=0;whiteSpace=wrap;html=1;fillColor=#F1D302;" parent="1" vertex="1">
          <mxGeometry x="281" y="249" width="9" height="10" as="geometry" />
        </mxCell>
        <mxCell id="Hpuvhwq70IxdgYuToOBc-294" value="" style="rounded=0;whiteSpace=wrap;html=1;fillColor=#235789;" parent="1" vertex="1">
          <mxGeometry x="222" y="167" width="9" height="10" as="geometry" />
        </mxCell>
        <mxCell id="Hpuvhwq70IxdgYuToOBc-295" value="" style="rounded=0;whiteSpace=wrap;html=1;fillColor=#235789;" parent="1" vertex="1">
          <mxGeometry x="212" y="167" width="9" height="10" as="geometry" />
        </mxCell>
        <mxCell id="Hpuvhwq70IxdgYuToOBc-296" value="" style="rounded=0;whiteSpace=wrap;html=1;fillColor=#235789;" parent="1" vertex="1">
          <mxGeometry x="232" y="167" width="9" height="10" as="geometry" />
        </mxCell>
        <mxCell id="Hpuvhwq70IxdgYuToOBc-297" value="" style="rounded=0;whiteSpace=wrap;html=1;fillColor=#235789;" parent="1" vertex="1">
          <mxGeometry x="242" y="167" width="9" height="10" as="geometry" />
        </mxCell>
        <mxCell id="Hpuvhwq70IxdgYuToOBc-298" value="" style="rounded=0;whiteSpace=wrap;html=1;fillColor=#F1D302;" parent="1" vertex="1">
          <mxGeometry x="252" y="167" width="9" height="10" as="geometry" />
        </mxCell>
        <mxCell id="Hpuvhwq70IxdgYuToOBc-299" value="" style="rounded=0;whiteSpace=wrap;html=1;fillColor=#F1D302;" parent="1" vertex="1">
          <mxGeometry x="262" y="167" width="9" height="10" as="geometry" />
        </mxCell>
        <mxCell id="Hpuvhwq70IxdgYuToOBc-300" value="" style="rounded=0;whiteSpace=wrap;html=1;fillColor=#F1D302;" parent="1" vertex="1">
          <mxGeometry x="272" y="167" width="9" height="10" as="geometry" />
        </mxCell>
        <mxCell id="Hpuvhwq70IxdgYuToOBc-301" value="" style="rounded=0;whiteSpace=wrap;html=1;fillColor=#F1D302;" parent="1" vertex="1">
          <mxGeometry x="282" y="167" width="9" height="10" as="geometry" />
        </mxCell>
        <mxCell id="Hpuvhwq70IxdgYuToOBc-302" value="Wing" style="text;html=1;strokeColor=none;fillColor=none;align=left;verticalAlign=middle;whiteSpace=wrap;rounded=0;" parent="1" vertex="1">
          <mxGeometry x="300" y="162" width="31" height="20" as="geometry" />
        </mxCell>
        <mxCell id="Hpuvhwq70IxdgYuToOBc-326" value="&lt;font style=&quot;font-size: 12px;&quot;&gt;Body&lt;/font&gt;" style="text;html=1;strokeColor=none;fillColor=none;align=left;verticalAlign=middle;whiteSpace=wrap;rounded=0;" parent="1" vertex="1">
          <mxGeometry x="302" y="186" width="29" height="12" as="geometry" />
        </mxCell>
        <mxCell id="Hpuvhwq70IxdgYuToOBc-327" value="&lt;font style=&quot;font-size: 12px;&quot;&gt;Head&lt;/font&gt;" style="text;html=1;strokeColor=none;fillColor=none;align=left;verticalAlign=middle;whiteSpace=wrap;rounded=0;" parent="1" vertex="1">
          <mxGeometry x="302" y="206" width="29" height="12" as="geometry" />
        </mxCell>
        <mxCell id="Hpuvhwq70IxdgYuToOBc-328" value="" style="rounded=0;whiteSpace=wrap;html=1;fillColor=#F1D302;" parent="1" vertex="1">
          <mxGeometry x="212" y="187" width="9" height="10" as="geometry" />
        </mxCell>
        <mxCell id="Hpuvhwq70IxdgYuToOBc-329" value="" style="rounded=0;whiteSpace=wrap;html=1;fillColor=#F1D302;" parent="1" vertex="1">
          <mxGeometry x="222" y="187" width="9" height="10" as="geometry" />
        </mxCell>
        <mxCell id="Hpuvhwq70IxdgYuToOBc-330" value="" style="rounded=0;whiteSpace=wrap;html=1;fillColor=#F1D302;" parent="1" vertex="1">
          <mxGeometry x="232" y="187" width="9" height="10" as="geometry" />
        </mxCell>
        <mxCell id="Hpuvhwq70IxdgYuToOBc-331" value="" style="rounded=0;whiteSpace=wrap;html=1;fillColor=#F1D302;" parent="1" vertex="1">
          <mxGeometry x="242" y="187" width="9" height="10" as="geometry" />
        </mxCell>
        <mxCell id="Hpuvhwq70IxdgYuToOBc-332" value="" style="rounded=0;whiteSpace=wrap;html=1;fillColor=#F1D302;" parent="1" vertex="1">
          <mxGeometry x="252" y="187" width="9" height="10" as="geometry" />
        </mxCell>
        <mxCell id="Hpuvhwq70IxdgYuToOBc-333" value="" style="rounded=0;whiteSpace=wrap;html=1;fillColor=#F1D302;" parent="1" vertex="1">
          <mxGeometry x="262" y="187" width="9" height="10" as="geometry" />
        </mxCell>
        <mxCell id="Hpuvhwq70IxdgYuToOBc-334" value="" style="rounded=0;whiteSpace=wrap;html=1;fillColor=#F1D302;" parent="1" vertex="1">
          <mxGeometry x="272" y="187" width="9" height="10" as="geometry" />
        </mxCell>
        <mxCell id="Hpuvhwq70IxdgYuToOBc-335" value="" style="rounded=0;whiteSpace=wrap;html=1;fillColor=#F1D302;" parent="1" vertex="1">
          <mxGeometry x="282" y="187" width="9" height="10" as="geometry" />
        </mxCell>
        <mxCell id="Hpuvhwq70IxdgYuToOBc-336" value="" style="rounded=0;whiteSpace=wrap;html=1;fillColor=#235789;" parent="1" vertex="1">
          <mxGeometry x="212" y="207" width="9" height="10" as="geometry" />
        </mxCell>
        <mxCell id="Hpuvhwq70IxdgYuToOBc-337" value="" style="rounded=0;whiteSpace=wrap;html=1;fillColor=#235789;" parent="1" vertex="1">
          <mxGeometry x="222" y="207" width="9" height="10" as="geometry" />
        </mxCell>
        <mxCell id="Hpuvhwq70IxdgYuToOBc-338" value="" style="rounded=0;whiteSpace=wrap;html=1;fillColor=#235789;" parent="1" vertex="1">
          <mxGeometry x="232" y="207" width="9" height="10" as="geometry" />
        </mxCell>
        <mxCell id="Hpuvhwq70IxdgYuToOBc-339" value="" style="rounded=0;whiteSpace=wrap;html=1;fillColor=#235789;" parent="1" vertex="1">
          <mxGeometry x="242" y="207" width="9" height="10" as="geometry" />
        </mxCell>
        <mxCell id="Hpuvhwq70IxdgYuToOBc-340" value="" style="rounded=0;whiteSpace=wrap;html=1;fillColor=#F1D302;" parent="1" vertex="1">
          <mxGeometry x="252" y="207" width="9" height="10" as="geometry" />
        </mxCell>
        <mxCell id="Hpuvhwq70IxdgYuToOBc-341" value="" style="rounded=0;whiteSpace=wrap;html=1;fillColor=#F1D302;" parent="1" vertex="1">
          <mxGeometry x="262" y="207" width="9" height="10" as="geometry" />
        </mxCell>
        <mxCell id="Hpuvhwq70IxdgYuToOBc-342" value="" style="rounded=0;whiteSpace=wrap;html=1;fillColor=#F1D302;" parent="1" vertex="1">
          <mxGeometry x="272" y="207" width="9" height="10" as="geometry" />
        </mxCell>
        <mxCell id="Hpuvhwq70IxdgYuToOBc-343" value="" style="rounded=0;whiteSpace=wrap;html=1;fillColor=#F1D302;" parent="1" vertex="1">
          <mxGeometry x="282" y="207" width="9" height="10" as="geometry" />
        </mxCell>
        <UserObject label="Wing" placeholders="1" name="Variable" id="Hpuvhwq70IxdgYuToOBc-344">
          <mxCell style="text;html=1;strokeColor=none;fillColor=none;align=center;verticalAlign=middle;whiteSpace=wrap;overflow=hidden;" parent="1" vertex="1">
            <mxGeometry x="454" y="94" width="29" height="20" as="geometry" />
          </mxCell>
        </UserObject>
        <mxCell id="Hpuvhwq70IxdgYuToOBc-351" value="Beak" style="text;html=1;strokeColor=none;fillColor=none;align=left;verticalAlign=middle;whiteSpace=wrap;rounded=0;" parent="1" vertex="1">
          <mxGeometry x="386" y="85" width="31" height="20" as="geometry" />
        </mxCell>
        <mxCell id="Hpuvhwq70IxdgYuToOBc-352" value="&lt;font style=&quot;font-size: 12px;&quot;&gt;Body&lt;/font&gt;" style="text;html=1;strokeColor=none;fillColor=none;align=left;verticalAlign=middle;whiteSpace=wrap;rounded=0;" parent="1" vertex="1">
          <mxGeometry x="417" y="44" width="29" height="12" as="geometry" />
        </mxCell>
        <UserObject label="Tail" placeholders="1" name="Variable" id="Hpuvhwq70IxdgYuToOBc-356">
          <mxCell style="text;html=1;strokeColor=none;fillColor=none;align=center;verticalAlign=middle;whiteSpace=wrap;overflow=hidden;" parent="1" vertex="1">
            <mxGeometry x="451" y="65" width="29" height="20" as="geometry" />
          </mxCell>
        </UserObject>
        <mxCell id="Hpuvhwq70IxdgYuToOBc-361" value="&lt;font style=&quot;font-size: 12px;&quot;&gt;Head&lt;/font&gt;" style="text;html=1;strokeColor=none;fillColor=none;align=left;verticalAlign=middle;whiteSpace=wrap;rounded=0;" parent="1" vertex="1">
          <mxGeometry x="399.5" y="114" width="29" height="12" as="geometry" />
        </mxCell>
        <mxCell id="Hpuvhwq70IxdgYuToOBc-362" value="" style="ellipse;whiteSpace=wrap;html=1;aspect=fixed;fillColor=#C7C7C7;" parent="1" vertex="1">
          <mxGeometry x="432" y="94" width="19" height="20" as="geometry" />
        </mxCell>
        <mxCell id="Hpuvhwq70IxdgYuToOBc-363" value="" style="ellipse;whiteSpace=wrap;html=1;aspect=fixed;" parent="1" vertex="1">
          <mxGeometry x="432" y="65" width="19" height="20" as="geometry" />
        </mxCell>
        <mxCell id="Hpuvhwq70IxdgYuToOBc-364" value="" style="ellipse;whiteSpace=wrap;html=1;aspect=fixed;" parent="1" vertex="1">
          <mxGeometry x="366" y="85" width="19" height="20" as="geometry" />
        </mxCell>
        <mxCell id="Hpuvhwq70IxdgYuToOBc-365" value="" style="ellipse;whiteSpace=wrap;html=1;aspect=fixed;fillColor=#C7C7C7;" parent="1" vertex="1">
          <mxGeometry x="397" y="41" width="19" height="20" as="geometry" />
        </mxCell>
        <mxCell id="Hpuvhwq70IxdgYuToOBc-366" value="" style="ellipse;whiteSpace=wrap;html=1;aspect=fixed;fillColor=#C7C7C7;" parent="1" vertex="1">
          <mxGeometry x="374.5" y="110" width="19" height="20" as="geometry" />
        </mxCell>
        <mxCell id="Hpuvhwq70IxdgYuToOBc-368" value="Tail" style="text;html=1;strokeColor=none;fillColor=none;align=center;verticalAlign=middle;whiteSpace=wrap;rounded=0;" parent="1" vertex="1">
          <mxGeometry x="603" y="108" width="30" height="13" as="geometry" />
        </mxCell>
        <mxCell id="Hpuvhwq70IxdgYuToOBc-371" value="+" style="text;html=1;strokeColor=none;fillColor=none;align=center;verticalAlign=middle;whiteSpace=wrap;rounded=0;" parent="1" vertex="1">
          <mxGeometry x="499" y="61" width="16" height="30" as="geometry" />
        </mxCell>
        <mxCell id="Hpuvhwq70IxdgYuToOBc-372" value="" style="endArrow=none;html=1;rounded=0;" parent="1" edge="1">
          <mxGeometry width="50" height="50" relative="1" as="geometry">
            <mxPoint x="511" y="100" as="sourcePoint" />
            <mxPoint x="631" y="100" as="targetPoint" />
          </mxGeometry>
        </mxCell>
        <mxCell id="Hpuvhwq70IxdgYuToOBc-373" value="Wing" style="text;html=1;strokeColor=none;fillColor=none;align=left;verticalAlign=middle;whiteSpace=wrap;rounded=0;" parent="1" vertex="1">
          <mxGeometry x="606" y="51" width="31" height="20" as="geometry" />
        </mxCell>
        <mxCell id="Hpuvhwq70IxdgYuToOBc-374" value="" style="rounded=0;whiteSpace=wrap;html=1;fillColor=#235789;" parent="1" vertex="1">
          <mxGeometry x="525" y="55" width="9" height="10" as="geometry" />
        </mxCell>
        <mxCell id="Hpuvhwq70IxdgYuToOBc-375" value="" style="rounded=0;whiteSpace=wrap;html=1;fillColor=#235789;" parent="1" vertex="1">
          <mxGeometry x="515" y="55" width="9" height="10" as="geometry" />
        </mxCell>
        <mxCell id="Hpuvhwq70IxdgYuToOBc-376" value="" style="rounded=0;whiteSpace=wrap;html=1;fillColor=#235789;" parent="1" vertex="1">
          <mxGeometry x="535" y="55" width="9" height="10" as="geometry" />
        </mxCell>
        <mxCell id="Hpuvhwq70IxdgYuToOBc-377" value="" style="rounded=0;whiteSpace=wrap;html=1;fillColor=#235789;" parent="1" vertex="1">
          <mxGeometry x="545" y="55" width="9" height="10" as="geometry" />
        </mxCell>
        <mxCell id="Hpuvhwq70IxdgYuToOBc-378" value="" style="rounded=0;whiteSpace=wrap;html=1;fillColor=#F1D302;" parent="1" vertex="1">
          <mxGeometry x="555" y="55" width="9" height="10" as="geometry" />
        </mxCell>
        <mxCell id="Hpuvhwq70IxdgYuToOBc-379" value="" style="rounded=0;whiteSpace=wrap;html=1;fillColor=#F1D302;" parent="1" vertex="1">
          <mxGeometry x="565" y="55" width="9" height="10" as="geometry" />
        </mxCell>
        <mxCell id="Hpuvhwq70IxdgYuToOBc-380" value="" style="rounded=0;whiteSpace=wrap;html=1;fillColor=#F1D302;" parent="1" vertex="1">
          <mxGeometry x="575" y="55" width="9" height="10" as="geometry" />
        </mxCell>
        <mxCell id="Hpuvhwq70IxdgYuToOBc-381" value="" style="rounded=0;whiteSpace=wrap;html=1;fillColor=#F1D302;" parent="1" vertex="1">
          <mxGeometry x="585" y="55" width="9" height="10" as="geometry" />
        </mxCell>
        <mxCell id="Hpuvhwq70IxdgYuToOBc-400" value="&lt;font style=&quot;font-size: 12px;&quot;&gt;Body&lt;/font&gt;" style="text;html=1;strokeColor=none;fillColor=none;align=left;verticalAlign=middle;whiteSpace=wrap;rounded=0;" parent="1" vertex="1">
          <mxGeometry x="606" y="79" width="29" height="12" as="geometry" />
        </mxCell>
        <mxCell id="Hpuvhwq70IxdgYuToOBc-401" value="" style="rounded=0;whiteSpace=wrap;html=1;fillColor=#F1D302;" parent="1" vertex="1">
          <mxGeometry x="515" y="80" width="9" height="10" as="geometry" />
        </mxCell>
        <mxCell id="Hpuvhwq70IxdgYuToOBc-402" value="" style="rounded=0;whiteSpace=wrap;html=1;fillColor=#F1D302;" parent="1" vertex="1">
          <mxGeometry x="525" y="80" width="9" height="10" as="geometry" />
        </mxCell>
        <mxCell id="Hpuvhwq70IxdgYuToOBc-403" value="" style="rounded=0;whiteSpace=wrap;html=1;fillColor=#F1D302;" parent="1" vertex="1">
          <mxGeometry x="535" y="80" width="9" height="10" as="geometry" />
        </mxCell>
        <mxCell id="Hpuvhwq70IxdgYuToOBc-404" value="" style="rounded=0;whiteSpace=wrap;html=1;fillColor=#F1D302;" parent="1" vertex="1">
          <mxGeometry x="545" y="80" width="9" height="10" as="geometry" />
        </mxCell>
        <mxCell id="Hpuvhwq70IxdgYuToOBc-405" value="" style="rounded=0;whiteSpace=wrap;html=1;fillColor=#F1D302;" parent="1" vertex="1">
          <mxGeometry x="555" y="80" width="9" height="10" as="geometry" />
        </mxCell>
        <mxCell id="Hpuvhwq70IxdgYuToOBc-406" value="" style="rounded=0;whiteSpace=wrap;html=1;fillColor=#F1D302;" parent="1" vertex="1">
          <mxGeometry x="565" y="80" width="9" height="10" as="geometry" />
        </mxCell>
        <mxCell id="Hpuvhwq70IxdgYuToOBc-407" value="" style="rounded=0;whiteSpace=wrap;html=1;fillColor=#F1D302;" parent="1" vertex="1">
          <mxGeometry x="575" y="80" width="9" height="10" as="geometry" />
        </mxCell>
        <mxCell id="Hpuvhwq70IxdgYuToOBc-408" value="" style="rounded=0;whiteSpace=wrap;html=1;fillColor=#F1D302;" parent="1" vertex="1">
          <mxGeometry x="585" y="80" width="9" height="10" as="geometry" />
        </mxCell>
        <mxCell id="Hpuvhwq70IxdgYuToOBc-409" value="" style="rounded=0;whiteSpace=wrap;html=1;fillColor=#8A9546;" parent="1" vertex="1">
          <mxGeometry x="525" y="110" width="9" height="10" as="geometry" />
        </mxCell>
        <mxCell id="Hpuvhwq70IxdgYuToOBc-410" value="" style="rounded=0;whiteSpace=wrap;html=1;fillColor=#8A9546;" parent="1" vertex="1">
          <mxGeometry x="515" y="110" width="9" height="10" as="geometry" />
        </mxCell>
        <mxCell id="Hpuvhwq70IxdgYuToOBc-411" value="" style="rounded=0;whiteSpace=wrap;html=1;fillColor=#8A9546;" parent="1" vertex="1">
          <mxGeometry x="535" y="110" width="9" height="10" as="geometry" />
        </mxCell>
        <mxCell id="Hpuvhwq70IxdgYuToOBc-412" value="" style="rounded=0;whiteSpace=wrap;html=1;fillColor=#8A9546;" parent="1" vertex="1">
          <mxGeometry x="545" y="110" width="9" height="10" as="geometry" />
        </mxCell>
        <mxCell id="Hpuvhwq70IxdgYuToOBc-413" value="" style="rounded=0;whiteSpace=wrap;html=1;fillColor=#F1D302;" parent="1" vertex="1">
          <mxGeometry x="555" y="110" width="9" height="10" as="geometry" />
        </mxCell>
        <mxCell id="Hpuvhwq70IxdgYuToOBc-414" value="" style="rounded=0;whiteSpace=wrap;html=1;fillColor=#F1D302;" parent="1" vertex="1">
          <mxGeometry x="565" y="110" width="9" height="10" as="geometry" />
        </mxCell>
        <mxCell id="Hpuvhwq70IxdgYuToOBc-415" value="" style="rounded=0;whiteSpace=wrap;html=1;fillColor=#F1D302;" parent="1" vertex="1">
          <mxGeometry x="575" y="110" width="9" height="10" as="geometry" />
        </mxCell>
        <mxCell id="Hpuvhwq70IxdgYuToOBc-416" value="" style="rounded=0;whiteSpace=wrap;html=1;fillColor=#F1D302;" parent="1" vertex="1">
          <mxGeometry x="585" y="110" width="9" height="10" as="geometry" />
        </mxCell>
        <mxCell id="Hpuvhwq70IxdgYuToOBc-417" value="&lt;font style=&quot;font-size: 12px;&quot;&gt;Tail&lt;/font&gt;" style="text;html=1;strokeColor=none;fillColor=none;align=left;verticalAlign=middle;whiteSpace=wrap;rounded=0;" parent="1" vertex="1">
          <mxGeometry x="603.29" y="228" width="21" height="12" as="geometry" />
        </mxCell>
        <mxCell id="Hpuvhwq70IxdgYuToOBc-418" value="&lt;font style=&quot;font-size: 12px;&quot;&gt;Beak&lt;/font&gt;" style="text;html=1;strokeColor=none;fillColor=none;align=left;verticalAlign=middle;whiteSpace=wrap;rounded=0;" parent="1" vertex="1">
          <mxGeometry x="604.29" y="248" width="30" height="12" as="geometry" />
        </mxCell>
        <mxCell id="Hpuvhwq70IxdgYuToOBc-419" value="" style="rounded=0;whiteSpace=wrap;html=1;fillColor=#8A9546;" parent="1" vertex="1">
          <mxGeometry x="515.29" y="229" width="9" height="10" as="geometry" />
        </mxCell>
        <mxCell id="Hpuvhwq70IxdgYuToOBc-420" value="" style="rounded=0;whiteSpace=wrap;html=1;fillColor=#8A9546;" parent="1" vertex="1">
          <mxGeometry x="525.29" y="229" width="9" height="10" as="geometry" />
        </mxCell>
        <mxCell id="Hpuvhwq70IxdgYuToOBc-421" value="" style="rounded=0;whiteSpace=wrap;html=1;fillColor=#8A9546;" parent="1" vertex="1">
          <mxGeometry x="535.29" y="229" width="9" height="10" as="geometry" />
        </mxCell>
        <mxCell id="Hpuvhwq70IxdgYuToOBc-422" value="" style="rounded=0;whiteSpace=wrap;html=1;fillColor=#8A9546;" parent="1" vertex="1">
          <mxGeometry x="545.29" y="229" width="9" height="10" as="geometry" />
        </mxCell>
        <mxCell id="Hpuvhwq70IxdgYuToOBc-423" value="" style="rounded=0;whiteSpace=wrap;html=1;fillColor=#F1D302;" parent="1" vertex="1">
          <mxGeometry x="555.29" y="229" width="9" height="10" as="geometry" />
        </mxCell>
        <mxCell id="Hpuvhwq70IxdgYuToOBc-424" value="" style="rounded=0;whiteSpace=wrap;html=1;fillColor=#F1D302;" parent="1" vertex="1">
          <mxGeometry x="565.29" y="229" width="9" height="10" as="geometry" />
        </mxCell>
        <mxCell id="Hpuvhwq70IxdgYuToOBc-425" value="" style="rounded=0;whiteSpace=wrap;html=1;fillColor=#F1D302;" parent="1" vertex="1">
          <mxGeometry x="575.29" y="229" width="9" height="10" as="geometry" />
        </mxCell>
        <mxCell id="Hpuvhwq70IxdgYuToOBc-426" value="" style="rounded=0;whiteSpace=wrap;html=1;fillColor=#F1D302;" parent="1" vertex="1">
          <mxGeometry x="585.29" y="229" width="9" height="10" as="geometry" />
        </mxCell>
        <mxCell id="Hpuvhwq70IxdgYuToOBc-427" value="" style="rounded=0;whiteSpace=wrap;html=1;fillColor=#235789;" parent="1" vertex="1">
          <mxGeometry x="515.29" y="249" width="9" height="10" as="geometry" />
        </mxCell>
        <mxCell id="Hpuvhwq70IxdgYuToOBc-428" value="" style="rounded=0;whiteSpace=wrap;html=1;fillColor=#235789;" parent="1" vertex="1">
          <mxGeometry x="525.29" y="249" width="9" height="10" as="geometry" />
        </mxCell>
        <mxCell id="Hpuvhwq70IxdgYuToOBc-429" value="" style="rounded=0;whiteSpace=wrap;html=1;fillColor=#235789;" parent="1" vertex="1">
          <mxGeometry x="535.29" y="249" width="9" height="10" as="geometry" />
        </mxCell>
        <mxCell id="Hpuvhwq70IxdgYuToOBc-430" value="" style="rounded=0;whiteSpace=wrap;html=1;fillColor=#235789;" parent="1" vertex="1">
          <mxGeometry x="545.29" y="249" width="9" height="10" as="geometry" />
        </mxCell>
        <mxCell id="Hpuvhwq70IxdgYuToOBc-431" value="" style="rounded=0;whiteSpace=wrap;html=1;fillColor=#F1D302;" parent="1" vertex="1">
          <mxGeometry x="555.29" y="249" width="9" height="10" as="geometry" />
        </mxCell>
        <mxCell id="Hpuvhwq70IxdgYuToOBc-432" value="" style="rounded=0;whiteSpace=wrap;html=1;fillColor=#F1D302;" parent="1" vertex="1">
          <mxGeometry x="565.29" y="249" width="9" height="10" as="geometry" />
        </mxCell>
        <mxCell id="Hpuvhwq70IxdgYuToOBc-433" value="" style="rounded=0;whiteSpace=wrap;html=1;fillColor=#F1D302;" parent="1" vertex="1">
          <mxGeometry x="575.29" y="249" width="9" height="10" as="geometry" />
        </mxCell>
        <mxCell id="Hpuvhwq70IxdgYuToOBc-434" value="" style="rounded=0;whiteSpace=wrap;html=1;fillColor=#F1D302;" parent="1" vertex="1">
          <mxGeometry x="585.29" y="249" width="9" height="10" as="geometry" />
        </mxCell>
        <mxCell id="Hpuvhwq70IxdgYuToOBc-435" value="" style="rounded=0;whiteSpace=wrap;html=1;fillColor=#235789;" parent="1" vertex="1">
          <mxGeometry x="526" y="167" width="9" height="10" as="geometry" />
        </mxCell>
        <mxCell id="Hpuvhwq70IxdgYuToOBc-436" value="" style="rounded=0;whiteSpace=wrap;html=1;fillColor=#235789;" parent="1" vertex="1">
          <mxGeometry x="516" y="167" width="9" height="10" as="geometry" />
        </mxCell>
        <mxCell id="Hpuvhwq70IxdgYuToOBc-437" value="" style="rounded=0;whiteSpace=wrap;html=1;fillColor=#235789;" parent="1" vertex="1">
          <mxGeometry x="536" y="167" width="9" height="10" as="geometry" />
        </mxCell>
        <mxCell id="Hpuvhwq70IxdgYuToOBc-438" value="" style="rounded=0;whiteSpace=wrap;html=1;fillColor=#235789;" parent="1" vertex="1">
          <mxGeometry x="546" y="167" width="9" height="10" as="geometry" />
        </mxCell>
        <mxCell id="Hpuvhwq70IxdgYuToOBc-439" value="" style="rounded=0;whiteSpace=wrap;html=1;fillColor=#F1D302;" parent="1" vertex="1">
          <mxGeometry x="556" y="167" width="9" height="10" as="geometry" />
        </mxCell>
        <mxCell id="Hpuvhwq70IxdgYuToOBc-440" value="" style="rounded=0;whiteSpace=wrap;html=1;fillColor=#F1D302;" parent="1" vertex="1">
          <mxGeometry x="566" y="167" width="9" height="10" as="geometry" />
        </mxCell>
        <mxCell id="Hpuvhwq70IxdgYuToOBc-441" value="" style="rounded=0;whiteSpace=wrap;html=1;fillColor=#F1D302;" parent="1" vertex="1">
          <mxGeometry x="576" y="167" width="9" height="10" as="geometry" />
        </mxCell>
        <mxCell id="Hpuvhwq70IxdgYuToOBc-442" value="" style="rounded=0;whiteSpace=wrap;html=1;fillColor=#F1D302;" parent="1" vertex="1">
          <mxGeometry x="586" y="167" width="9" height="10" as="geometry" />
        </mxCell>
        <mxCell id="Hpuvhwq70IxdgYuToOBc-443" value="Wing" style="text;html=1;strokeColor=none;fillColor=none;align=left;verticalAlign=middle;whiteSpace=wrap;rounded=0;" parent="1" vertex="1">
          <mxGeometry x="604" y="162" width="31" height="20" as="geometry" />
        </mxCell>
        <mxCell id="Hpuvhwq70IxdgYuToOBc-444" value="&lt;font style=&quot;font-size: 12px;&quot;&gt;Body&lt;/font&gt;" style="text;html=1;strokeColor=none;fillColor=none;align=left;verticalAlign=middle;whiteSpace=wrap;rounded=0;" parent="1" vertex="1">
          <mxGeometry x="606" y="189" width="29" height="12" as="geometry" />
        </mxCell>
        <mxCell id="Hpuvhwq70IxdgYuToOBc-445" value="&lt;font style=&quot;font-size: 12px;&quot;&gt;Head&lt;/font&gt;" style="text;html=1;strokeColor=none;fillColor=none;align=left;verticalAlign=middle;whiteSpace=wrap;rounded=0;" parent="1" vertex="1">
          <mxGeometry x="606" y="209" width="29" height="12" as="geometry" />
        </mxCell>
        <mxCell id="Hpuvhwq70IxdgYuToOBc-446" value="" style="rounded=0;whiteSpace=wrap;html=1;fillColor=#F1D302;" parent="1" vertex="1">
          <mxGeometry x="516" y="190" width="9" height="10" as="geometry" />
        </mxCell>
        <mxCell id="Hpuvhwq70IxdgYuToOBc-447" value="" style="rounded=0;whiteSpace=wrap;html=1;fillColor=#F1D302;" parent="1" vertex="1">
          <mxGeometry x="526" y="190" width="9" height="10" as="geometry" />
        </mxCell>
        <mxCell id="Hpuvhwq70IxdgYuToOBc-448" value="" style="rounded=0;whiteSpace=wrap;html=1;fillColor=#F1D302;" parent="1" vertex="1">
          <mxGeometry x="536" y="190" width="9" height="10" as="geometry" />
        </mxCell>
        <mxCell id="Hpuvhwq70IxdgYuToOBc-449" value="" style="rounded=0;whiteSpace=wrap;html=1;fillColor=#F1D302;" parent="1" vertex="1">
          <mxGeometry x="546" y="190" width="9" height="10" as="geometry" />
        </mxCell>
        <mxCell id="Hpuvhwq70IxdgYuToOBc-450" value="" style="rounded=0;whiteSpace=wrap;html=1;fillColor=#F1D302;" parent="1" vertex="1">
          <mxGeometry x="556" y="190" width="9" height="10" as="geometry" />
        </mxCell>
        <mxCell id="Hpuvhwq70IxdgYuToOBc-451" value="" style="rounded=0;whiteSpace=wrap;html=1;fillColor=#F1D302;" parent="1" vertex="1">
          <mxGeometry x="566" y="190" width="9" height="10" as="geometry" />
        </mxCell>
        <mxCell id="Hpuvhwq70IxdgYuToOBc-452" value="" style="rounded=0;whiteSpace=wrap;html=1;fillColor=#F1D302;" parent="1" vertex="1">
          <mxGeometry x="576" y="190" width="9" height="10" as="geometry" />
        </mxCell>
        <mxCell id="Hpuvhwq70IxdgYuToOBc-453" value="" style="rounded=0;whiteSpace=wrap;html=1;fillColor=#F1D302;" parent="1" vertex="1">
          <mxGeometry x="586" y="190" width="9" height="10" as="geometry" />
        </mxCell>
        <mxCell id="Hpuvhwq70IxdgYuToOBc-454" value="" style="rounded=0;whiteSpace=wrap;html=1;fillColor=#235789;" parent="1" vertex="1">
          <mxGeometry x="516" y="210" width="9" height="10" as="geometry" />
        </mxCell>
        <mxCell id="Hpuvhwq70IxdgYuToOBc-455" value="" style="rounded=0;whiteSpace=wrap;html=1;fillColor=#235789;" parent="1" vertex="1">
          <mxGeometry x="526" y="210" width="9" height="10" as="geometry" />
        </mxCell>
        <mxCell id="Hpuvhwq70IxdgYuToOBc-456" value="" style="rounded=0;whiteSpace=wrap;html=1;fillColor=#235789;" parent="1" vertex="1">
          <mxGeometry x="536" y="210" width="9" height="10" as="geometry" />
        </mxCell>
        <mxCell id="Hpuvhwq70IxdgYuToOBc-457" value="" style="rounded=0;whiteSpace=wrap;html=1;fillColor=#235789;" parent="1" vertex="1">
          <mxGeometry x="546" y="210" width="9" height="10" as="geometry" />
        </mxCell>
        <mxCell id="Hpuvhwq70IxdgYuToOBc-458" value="" style="rounded=0;whiteSpace=wrap;html=1;fillColor=#F1D302;" parent="1" vertex="1">
          <mxGeometry x="556" y="210" width="9" height="10" as="geometry" />
        </mxCell>
        <mxCell id="Hpuvhwq70IxdgYuToOBc-459" value="" style="rounded=0;whiteSpace=wrap;html=1;fillColor=#F1D302;" parent="1" vertex="1">
          <mxGeometry x="566" y="210" width="9" height="10" as="geometry" />
        </mxCell>
        <mxCell id="Hpuvhwq70IxdgYuToOBc-460" value="" style="rounded=0;whiteSpace=wrap;html=1;fillColor=#F1D302;" parent="1" vertex="1">
          <mxGeometry x="576" y="210" width="9" height="10" as="geometry" />
        </mxCell>
        <mxCell id="Hpuvhwq70IxdgYuToOBc-461" value="" style="rounded=0;whiteSpace=wrap;html=1;fillColor=#F1D302;" parent="1" vertex="1">
          <mxGeometry x="586" y="210" width="9" height="10" as="geometry" />
        </mxCell>
        <mxCell id="eelOjYlrPNe3uLTM3w6s-33" value="&lt;b&gt;Concept Basis&lt;/b&gt;" style="text;html=1;strokeColor=none;fillColor=none;align=center;verticalAlign=middle;whiteSpace=wrap;rounded=0;" parent="1" vertex="1">
          <mxGeometry x="374.5" width="87" height="17" as="geometry" />
        </mxCell>
        <mxCell id="eelOjYlrPNe3uLTM3w6s-36" value="&lt;b&gt;Basis Predicted Concepts&lt;/b&gt;" style="text;html=1;strokeColor=none;fillColor=none;align=center;verticalAlign=middle;whiteSpace=wrap;rounded=0;" parent="1" vertex="1">
          <mxGeometry x="516.1700000000001" y="1" width="86.65" height="44" as="geometry" />
        </mxCell>
        <mxCell id="eelOjYlrPNe3uLTM3w6s-37" value="" style="endArrow=classic;html=1;rounded=0;" parent="1" edge="1">
          <mxGeometry width="50" height="50" relative="1" as="geometry">
            <mxPoint x="50" y="120" as="sourcePoint" />
            <mxPoint x="50" y="160" as="targetPoint" />
          </mxGeometry>
        </mxCell>
        <mxCell id="eelOjYlrPNe3uLTM3w6s-38" value="Encoder g(x)" style="text;html=1;strokeColor=none;fillColor=none;align=center;verticalAlign=middle;whiteSpace=wrap;rounded=0;" parent="1" vertex="1">
          <mxGeometry x="67" y="128" width="93" height="20" as="geometry" />
        </mxCell>
        <mxCell id="eelOjYlrPNe3uLTM3w6s-39" value="" style="endArrow=classic;html=1;rounded=0;" parent="1" edge="1">
          <mxGeometry width="50" height="50" relative="1" as="geometry">
            <mxPoint x="254" y="90" as="sourcePoint" />
            <mxPoint x="254" y="160" as="targetPoint" />
          </mxGeometry>
        </mxCell>
        <mxCell id="eelOjYlrPNe3uLTM3w6s-40" value="" style="endArrow=classic;html=1;rounded=0;" parent="1" edge="1">
          <mxGeometry width="50" height="50" relative="1" as="geometry">
            <mxPoint x="560" y="133" as="sourcePoint" />
            <mxPoint x="560" y="160" as="targetPoint" />
          </mxGeometry>
        </mxCell>
        <mxCell id="l8GjsodKGu9lRiB5CIU7-7" value="" style="endArrow=none;html=1;rounded=0;strokeColor=#FF6929;exitX=0;exitY=0;exitDx=0;exitDy=0;entryX=1;entryY=0;entryDx=0;entryDy=0;" parent="1" source="Hpuvhwq70IxdgYuToOBc-295" target="Hpuvhwq70IxdgYuToOBc-301" edge="1">
          <mxGeometry width="50" height="50" relative="1" as="geometry">
            <mxPoint x="210" y="200" as="sourcePoint" />
            <mxPoint x="260" y="150" as="targetPoint" />
          </mxGeometry>
        </mxCell>
        <mxCell id="l8GjsodKGu9lRiB5CIU7-8" value="" style="endArrow=none;html=1;rounded=0;strokeColor=#FF6929;exitX=0;exitY=0;exitDx=0;exitDy=0;entryX=1;entryY=0;entryDx=0;entryDy=0;" parent="1" edge="1">
          <mxGeometry width="50" height="50" relative="1" as="geometry">
            <mxPoint x="212" y="177" as="sourcePoint" />
            <mxPoint x="291" y="177" as="targetPoint" />
          </mxGeometry>
        </mxCell>
        <mxCell id="l8GjsodKGu9lRiB5CIU7-10" value="" style="endArrow=none;html=1;rounded=0;exitX=0;exitY=1;exitDx=0;exitDy=0;entryX=0;entryY=0;entryDx=0;entryDy=0;strokeColor=#FF6929;" parent="1" source="Hpuvhwq70IxdgYuToOBc-295" target="Hpuvhwq70IxdgYuToOBc-295" edge="1">
          <mxGeometry width="50" height="50" relative="1" as="geometry">
            <mxPoint x="230" y="200" as="sourcePoint" />
            <mxPoint x="280" y="150" as="targetPoint" />
          </mxGeometry>
        </mxCell>
        <mxCell id="l8GjsodKGu9lRiB5CIU7-11" value="" style="endArrow=none;html=1;rounded=0;exitX=0;exitY=1;exitDx=0;exitDy=0;entryX=0;entryY=0;entryDx=0;entryDy=0;strokeColor=#FF6929;" parent="1" edge="1">
          <mxGeometry width="50" height="50" relative="1" as="geometry">
            <mxPoint x="290.87" y="177" as="sourcePoint" />
            <mxPoint x="290.87" y="167" as="targetPoint" />
          </mxGeometry>
        </mxCell>
        <mxCell id="l8GjsodKGu9lRiB5CIU7-12" value="" style="endArrow=none;html=1;rounded=0;strokeColor=#FF6929;exitX=0;exitY=0;exitDx=0;exitDy=0;entryX=1;entryY=0;entryDx=0;entryDy=0;" parent="1" edge="1">
          <mxGeometry width="50" height="50" relative="1" as="geometry">
            <mxPoint x="212" y="187" as="sourcePoint" />
            <mxPoint x="291" y="187" as="targetPoint" />
          </mxGeometry>
        </mxCell>
        <mxCell id="l8GjsodKGu9lRiB5CIU7-13" value="" style="endArrow=none;html=1;rounded=0;strokeColor=#FF6929;exitX=0;exitY=0;exitDx=0;exitDy=0;entryX=1;entryY=0;entryDx=0;entryDy=0;" parent="1" edge="1">
          <mxGeometry width="50" height="50" relative="1" as="geometry">
            <mxPoint x="212" y="197" as="sourcePoint" />
            <mxPoint x="291" y="197" as="targetPoint" />
          </mxGeometry>
        </mxCell>
        <mxCell id="l8GjsodKGu9lRiB5CIU7-14" value="" style="endArrow=none;html=1;rounded=0;exitX=0;exitY=1;exitDx=0;exitDy=0;entryX=0;entryY=0;entryDx=0;entryDy=0;strokeColor=#FF6929;" parent="1" edge="1">
          <mxGeometry width="50" height="50" relative="1" as="geometry">
            <mxPoint x="212" y="197" as="sourcePoint" />
            <mxPoint x="212" y="187" as="targetPoint" />
          </mxGeometry>
        </mxCell>
        <mxCell id="l8GjsodKGu9lRiB5CIU7-15" value="" style="endArrow=none;html=1;rounded=0;exitX=0;exitY=1;exitDx=0;exitDy=0;entryX=0;entryY=0;entryDx=0;entryDy=0;strokeColor=#FF6929;" parent="1" edge="1">
          <mxGeometry width="50" height="50" relative="1" as="geometry">
            <mxPoint x="290.87" y="197" as="sourcePoint" />
            <mxPoint x="290.87" y="187" as="targetPoint" />
          </mxGeometry>
        </mxCell>
        <mxCell id="l8GjsodKGu9lRiB5CIU7-16" value="" style="endArrow=none;html=1;rounded=0;strokeColor=#FF6929;exitX=0;exitY=0;exitDx=0;exitDy=0;entryX=1;entryY=0;entryDx=0;entryDy=0;" parent="1" edge="1">
          <mxGeometry width="50" height="50" relative="1" as="geometry">
            <mxPoint x="212" y="207" as="sourcePoint" />
            <mxPoint x="291" y="207" as="targetPoint" />
          </mxGeometry>
        </mxCell>
        <mxCell id="l8GjsodKGu9lRiB5CIU7-17" value="" style="endArrow=none;html=1;rounded=0;strokeColor=#FF6929;exitX=0;exitY=0;exitDx=0;exitDy=0;entryX=1;entryY=0;entryDx=0;entryDy=0;" parent="1" edge="1">
          <mxGeometry width="50" height="50" relative="1" as="geometry">
            <mxPoint x="212" y="217" as="sourcePoint" />
            <mxPoint x="291" y="217" as="targetPoint" />
          </mxGeometry>
        </mxCell>
        <mxCell id="l8GjsodKGu9lRiB5CIU7-18" value="" style="endArrow=none;html=1;rounded=0;exitX=0;exitY=1;exitDx=0;exitDy=0;entryX=0;entryY=0;entryDx=0;entryDy=0;strokeColor=#FF6929;" parent="1" edge="1">
          <mxGeometry width="50" height="50" relative="1" as="geometry">
            <mxPoint x="212" y="217" as="sourcePoint" />
            <mxPoint x="212" y="207" as="targetPoint" />
          </mxGeometry>
        </mxCell>
        <mxCell id="l8GjsodKGu9lRiB5CIU7-19" value="" style="endArrow=none;html=1;rounded=0;exitX=0;exitY=1;exitDx=0;exitDy=0;entryX=0;entryY=0;entryDx=0;entryDy=0;strokeColor=#FF6929;" parent="1" edge="1">
          <mxGeometry width="50" height="50" relative="1" as="geometry">
            <mxPoint x="290.87" y="217" as="sourcePoint" />
            <mxPoint x="290.87" y="207" as="targetPoint" />
          </mxGeometry>
        </mxCell>
        <mxCell id="l8GjsodKGu9lRiB5CIU7-20" value="" style="endArrow=none;html=1;rounded=0;strokeColor=#FF6929;exitX=0;exitY=0;exitDx=0;exitDy=0;entryX=1;entryY=0;entryDx=0;entryDy=0;" parent="1" edge="1">
          <mxGeometry width="50" height="50" relative="1" as="geometry">
            <mxPoint x="515.7099999999999" y="229.29" as="sourcePoint" />
            <mxPoint x="594.7099999999999" y="229.29" as="targetPoint" />
          </mxGeometry>
        </mxCell>
        <mxCell id="l8GjsodKGu9lRiB5CIU7-21" value="" style="endArrow=none;html=1;rounded=0;strokeColor=#FF6929;exitX=0;exitY=0;exitDx=0;exitDy=0;entryX=1;entryY=0;entryDx=0;entryDy=0;" parent="1" edge="1">
          <mxGeometry width="50" height="50" relative="1" as="geometry">
            <mxPoint x="515.7099999999999" y="239.29" as="sourcePoint" />
            <mxPoint x="594.7099999999999" y="239.29" as="targetPoint" />
          </mxGeometry>
        </mxCell>
        <mxCell id="l8GjsodKGu9lRiB5CIU7-22" value="" style="endArrow=none;html=1;rounded=0;exitX=0;exitY=1;exitDx=0;exitDy=0;entryX=0;entryY=0;entryDx=0;entryDy=0;strokeColor=#FF6929;" parent="1" edge="1">
          <mxGeometry width="50" height="50" relative="1" as="geometry">
            <mxPoint x="515.7099999999999" y="239.29" as="sourcePoint" />
            <mxPoint x="515.7099999999999" y="229.29" as="targetPoint" />
          </mxGeometry>
        </mxCell>
        <mxCell id="l8GjsodKGu9lRiB5CIU7-23" value="" style="endArrow=none;html=1;rounded=0;exitX=0;exitY=1;exitDx=0;exitDy=0;entryX=0;entryY=0;entryDx=0;entryDy=0;strokeColor=#FF6929;" parent="1" edge="1">
          <mxGeometry width="50" height="50" relative="1" as="geometry">
            <mxPoint x="594.5799999999999" y="239.29" as="sourcePoint" />
            <mxPoint x="594.5799999999999" y="229.29" as="targetPoint" />
          </mxGeometry>
        </mxCell>
        <mxCell id="l8GjsodKGu9lRiB5CIU7-24" value="" style="endArrow=none;html=1;rounded=0;strokeColor=#FF6929;exitX=0;exitY=0;exitDx=0;exitDy=0;entryX=1;entryY=0;entryDx=0;entryDy=0;" parent="1" edge="1">
          <mxGeometry width="50" height="50" relative="1" as="geometry">
            <mxPoint x="212" y="178" as="sourcePoint" />
            <mxPoint x="291" y="178" as="targetPoint" />
          </mxGeometry>
        </mxCell>
        <mxCell id="l8GjsodKGu9lRiB5CIU7-25" value="" style="endArrow=none;html=1;rounded=0;strokeColor=#FF6929;exitX=0;exitY=0;exitDx=0;exitDy=0;entryX=1;entryY=0;entryDx=0;entryDy=0;" parent="1" edge="1">
          <mxGeometry width="50" height="50" relative="1" as="geometry">
            <mxPoint x="212" y="166" as="sourcePoint" />
            <mxPoint x="291" y="166" as="targetPoint" />
          </mxGeometry>
        </mxCell>
        <mxCell id="l8GjsodKGu9lRiB5CIU7-26" value="" style="endArrow=none;html=1;rounded=0;exitX=0;exitY=1;exitDx=0;exitDy=0;entryX=0;entryY=0;entryDx=0;entryDy=0;strokeColor=#FF6929;" parent="1" edge="1">
          <mxGeometry width="50" height="50" relative="1" as="geometry">
            <mxPoint x="291.87" y="177" as="sourcePoint" />
            <mxPoint x="291.87" y="167" as="targetPoint" />
          </mxGeometry>
        </mxCell>
        <mxCell id="l8GjsodKGu9lRiB5CIU7-27" value="" style="endArrow=none;html=1;rounded=0;exitX=0;exitY=1;exitDx=0;exitDy=0;entryX=0;entryY=0;entryDx=0;entryDy=0;strokeColor=#FF6929;" parent="1" edge="1">
          <mxGeometry width="50" height="50" relative="1" as="geometry">
            <mxPoint x="211" y="177" as="sourcePoint" />
            <mxPoint x="211" y="167" as="targetPoint" />
          </mxGeometry>
        </mxCell>
        <mxCell id="l8GjsodKGu9lRiB5CIU7-28" value="" style="endArrow=none;html=1;rounded=0;strokeColor=#FF6929;exitX=0;exitY=0;exitDx=0;exitDy=0;entryX=1;entryY=0;entryDx=0;entryDy=0;" parent="1" edge="1">
          <mxGeometry width="50" height="50" relative="1" as="geometry">
            <mxPoint x="212" y="198" as="sourcePoint" />
            <mxPoint x="291" y="198" as="targetPoint" />
          </mxGeometry>
        </mxCell>
        <mxCell id="l8GjsodKGu9lRiB5CIU7-29" value="" style="endArrow=none;html=1;rounded=0;strokeColor=#FF6929;exitX=0;exitY=0;exitDx=0;exitDy=0;entryX=1;entryY=0;entryDx=0;entryDy=0;" parent="1" edge="1">
          <mxGeometry width="50" height="50" relative="1" as="geometry">
            <mxPoint x="212" y="186" as="sourcePoint" />
            <mxPoint x="291" y="186" as="targetPoint" />
          </mxGeometry>
        </mxCell>
        <mxCell id="l8GjsodKGu9lRiB5CIU7-30" value="" style="endArrow=none;html=1;rounded=0;exitX=0;exitY=1;exitDx=0;exitDy=0;entryX=0;entryY=0;entryDx=0;entryDy=0;strokeColor=#FF6929;" parent="1" edge="1">
          <mxGeometry width="50" height="50" relative="1" as="geometry">
            <mxPoint x="291.87" y="197" as="sourcePoint" />
            <mxPoint x="291.87" y="187" as="targetPoint" />
          </mxGeometry>
        </mxCell>
        <mxCell id="l8GjsodKGu9lRiB5CIU7-31" value="" style="endArrow=none;html=1;rounded=0;exitX=0;exitY=1;exitDx=0;exitDy=0;entryX=0;entryY=0;entryDx=0;entryDy=0;strokeColor=#FF6929;" parent="1" edge="1">
          <mxGeometry width="50" height="50" relative="1" as="geometry">
            <mxPoint x="211" y="197" as="sourcePoint" />
            <mxPoint x="211" y="187" as="targetPoint" />
          </mxGeometry>
        </mxCell>
        <mxCell id="l8GjsodKGu9lRiB5CIU7-32" value="" style="endArrow=none;html=1;rounded=0;strokeColor=#FF6929;exitX=0;exitY=0;exitDx=0;exitDy=0;entryX=1;entryY=0;entryDx=0;entryDy=0;" parent="1" edge="1">
          <mxGeometry width="50" height="50" relative="1" as="geometry">
            <mxPoint x="212" y="218" as="sourcePoint" />
            <mxPoint x="291" y="218" as="targetPoint" />
          </mxGeometry>
        </mxCell>
        <mxCell id="l8GjsodKGu9lRiB5CIU7-33" value="" style="endArrow=none;html=1;rounded=0;strokeColor=#FF6929;exitX=0;exitY=0;exitDx=0;exitDy=0;entryX=1;entryY=0;entryDx=0;entryDy=0;" parent="1" edge="1">
          <mxGeometry width="50" height="50" relative="1" as="geometry">
            <mxPoint x="212" y="206" as="sourcePoint" />
            <mxPoint x="291" y="206" as="targetPoint" />
          </mxGeometry>
        </mxCell>
        <mxCell id="l8GjsodKGu9lRiB5CIU7-34" value="" style="endArrow=none;html=1;rounded=0;exitX=0;exitY=1;exitDx=0;exitDy=0;entryX=0;entryY=0;entryDx=0;entryDy=0;strokeColor=#FF6929;" parent="1" edge="1">
          <mxGeometry width="50" height="50" relative="1" as="geometry">
            <mxPoint x="291.87" y="217" as="sourcePoint" />
            <mxPoint x="291.87" y="207" as="targetPoint" />
          </mxGeometry>
        </mxCell>
        <mxCell id="l8GjsodKGu9lRiB5CIU7-35" value="" style="endArrow=none;html=1;rounded=0;exitX=0;exitY=1;exitDx=0;exitDy=0;entryX=0;entryY=0;entryDx=0;entryDy=0;strokeColor=#FF6929;" parent="1" edge="1">
          <mxGeometry width="50" height="50" relative="1" as="geometry">
            <mxPoint x="211" y="217" as="sourcePoint" />
            <mxPoint x="211" y="207" as="targetPoint" />
          </mxGeometry>
        </mxCell>
        <mxCell id="l8GjsodKGu9lRiB5CIU7-36" value="" style="endArrow=none;html=1;rounded=0;strokeColor=#FF6929;exitX=0;exitY=0;exitDx=0;exitDy=0;entryX=1;entryY=0;entryDx=0;entryDy=0;" parent="1" edge="1">
          <mxGeometry width="50" height="50" relative="1" as="geometry">
            <mxPoint x="515.7099999999999" y="240" as="sourcePoint" />
            <mxPoint x="594.7099999999999" y="240" as="targetPoint" />
          </mxGeometry>
        </mxCell>
        <mxCell id="l8GjsodKGu9lRiB5CIU7-37" value="" style="endArrow=none;html=1;rounded=0;strokeColor=#FF6929;exitX=0;exitY=0;exitDx=0;exitDy=0;entryX=1;entryY=0;entryDx=0;entryDy=0;" parent="1" edge="1">
          <mxGeometry width="50" height="50" relative="1" as="geometry">
            <mxPoint x="515.7099999999999" y="228" as="sourcePoint" />
            <mxPoint x="594.7099999999999" y="228" as="targetPoint" />
          </mxGeometry>
        </mxCell>
        <mxCell id="l8GjsodKGu9lRiB5CIU7-38" value="" style="endArrow=none;html=1;rounded=0;exitX=0;exitY=1;exitDx=0;exitDy=0;entryX=0;entryY=0;entryDx=0;entryDy=0;strokeColor=#FF6929;" parent="1" edge="1">
          <mxGeometry width="50" height="50" relative="1" as="geometry">
            <mxPoint x="595.5799999999999" y="239" as="sourcePoint" />
            <mxPoint x="595.5799999999999" y="229" as="targetPoint" />
          </mxGeometry>
        </mxCell>
        <mxCell id="l8GjsodKGu9lRiB5CIU7-39" value="" style="endArrow=none;html=1;rounded=0;exitX=0;exitY=1;exitDx=0;exitDy=0;entryX=0;entryY=0;entryDx=0;entryDy=0;strokeColor=#FF6929;" parent="1" edge="1">
          <mxGeometry width="50" height="50" relative="1" as="geometry">
            <mxPoint x="514.7099999999999" y="239" as="sourcePoint" />
            <mxPoint x="514.7099999999999" y="229" as="targetPoint" />
          </mxGeometry>
        </mxCell>
        <mxCell id="p8HJGUjP2RouXOZzvtOF-1" value="" style="ellipse;whiteSpace=wrap;html=1;fillColor=none;" parent="1" vertex="1">
          <mxGeometry x="348" y="20" width="140" height="140" as="geometry" />
        </mxCell>
      </root>
    </mxGraphModel>
  </diagram>
</mxfile>
